STARTFONT 2.3
FONT -FontForge-Roboto-Bold-R-Normal--8-80-72-72-P-46-ISO10646-1
SIZE 8 72 72  2
FONTBOUNDINGBOX 16 10 -6 -2
COMMENT "Generated by fontforge, http://fontforge.sourceforge.net"
COMMENT "Copyright 2011 Google Inc. All Rights Reserved."
STARTPROPERTIES 42
FOUNDRY "FontForge"
FAMILY_NAME "Roboto"
WEIGHT_NAME "Bold"
SLANT "R"
SETWIDTH_NAME "Normal"
ADD_STYLE_NAME ""
PIXEL_SIZE 8
POINT_SIZE 80
RESOLUTION_X 72
RESOLUTION_Y 72
SPACING "P"
AVERAGE_WIDTH 46
CHARSET_REGISTRY "ISO10646"
CHARSET_ENCODING "1"
FONTNAME_REGISTRY ""
CHARSET_COLLECTIONS "ISO8859-2 ISO8859-5 ISO8859-7 ISO8859-9 ISO8859-4 ISO10646-1"
BITS_PER_PIXEL 2
FONT_NAME "Roboto-Bold"
FACE_NAME "Roboto Bold"
COPYRIGHT "Copyright 2011 Google Inc. All Rights Reserved."
FONT_VERSION "2.137; 2017"
FONT_ASCENT 6
FONT_DESCENT 2
UNDERLINE_POSITION -1
UNDERLINE_THICKNESS 1
X_HEIGHT 4
CAP_HEIGHT 5
DEFAULT_CHAR 1
RAW_ASCENT 750
RAW_DESCENT 250
NORM_SPACE 2
RELATIVE_WEIGHT 70
RELATIVE_SETWIDTH 50
SUPERSCRIPT_X 0
SUPERSCRIPT_Y 3
SUPERSCRIPT_SIZE 5
SUBSCRIPT_X 0
SUBSCRIPT_Y 1
SUBSCRIPT_SIZE 5
FIGURE_WIDTH 5
AVG_LOWERCASE_WIDTH 44
AVG_UPPERCASE_WIDTH 53
ENDPROPERTIES
CHARS 1296
STARTCHAR glyph1.dup1
ENCODING 0
SWIDTH 0 0
DWIDTH 0 0
BBX 1 1 0 0
BITMAP
00
ENDCHAR
STARTCHAR uni0002
ENCODING 2
SWIDTH 0 0
DWIDTH 0 0
BBX 1 1 0 0
BITMAP
00
ENDCHAR
STARTCHAR uni000D
ENCODING 13
SWIDTH 249 0
DWIDTH 2 0
BBX 1 1 0 0
BITMAP
00
ENDCHAR
STARTCHAR space
ENCODING 32
SWIDTH 249 0
DWIDTH 2 0
BBX 1 1 0 0
BITMAP
00
ENDCHAR
STARTCHAR exclam
ENCODING 33
SWIDTH 271 0
DWIDTH 2 0
BBX 2 6 0 0
BITMAP
50
60
60
60
10
60
ENDCHAR
STARTCHAR quotedbl
ENCODING 34
SWIDTH 320 0
DWIDTH 3 0
BBX 3 2 0 4
BITMAP
A4
94
ENDCHAR
STARTCHAR numbersign
ENCODING 35
SWIDTH 595 0
DWIDTH 5 0
BBX 5 6 0 0
BITMAP
0500
1600
7B40
6600
6A00
2800
ENDCHAR
STARTCHAR dollar
ENCODING 36
SWIDTH 573 0
DWIDTH 5 0
BBX 5 8 0 -1
BITMAP
0400
2D00
7700
7400
1A00
5340
7E00
0800
ENDCHAR
STARTCHAR percent
ENCODING 37
SWIDTH 738 0
DWIDTH 6 0
BBX 6 6 0 0
BITMAP
6400
9940
6A00
0980
1660
1290
ENDCHAR
STARTCHAR ampersand
ENCODING 38
SWIDTH 656 0
DWIDTH 5 0
BBX 5 6 0 0
BITMAP
2900
7600
3900
7D80
9780
7E80
ENDCHAR
STARTCHAR quotesingle
ENCODING 39
SWIDTH 161 0
DWIDTH 1 0
BBX 1 2 0 4
BITMAP
80
80
ENDCHAR
STARTCHAR parenleft
ENCODING 40
SWIDTH 351 0
DWIDTH 3 0
BBX 3 8 0 -2
BITMAP
14
20
60
50
50
60
20
04
ENDCHAR
STARTCHAR parenright
ENCODING 41
SWIDTH 352 0
DWIDTH 3 0
BBX 3 8 0 -2
BITMAP
90
20
24
24
24
30
60
40
ENDCHAR
STARTCHAR asterisk
ENCODING 42
SWIDTH 453 0
DWIDTH 4 0
BBX 4 4 0 2
BITMAP
10
A9
28
54
ENDCHAR
STARTCHAR plus
ENCODING 43
SWIDTH 545 0
DWIDTH 4 0
BBX 4 5 0 0
BITMAP
18
19
BE
18
04
ENDCHAR
STARTCHAR comma
ENCODING 44
SWIDTH 244 0
DWIDTH 2 0
BBX 2 3 0 -2
BITMAP
50
90
40
ENDCHAR
STARTCHAR hyphen
ENCODING 45
SWIDTH 387 0
DWIDTH 3 0
BBX 3 1 0 2
BITMAP
B8
ENDCHAR
STARTCHAR period
ENCODING 46
SWIDTH 290 0
DWIDTH 2 0
BBX 2 1 0 0
BITMAP
60
ENDCHAR
STARTCHAR slash
ENCODING 47
SWIDTH 373 0
DWIDTH 3 0
BBX 3 7 0 -1
BITMAP
08
14
20
20
50
80
40
ENDCHAR
STARTCHAR zero
ENCODING 48
SWIDTH 573 0
DWIDTH 5 0
BBX 5 6 0 0
BITMAP
2900
6700
A340
A340
A300
3E00
ENDCHAR
STARTCHAR one
ENCODING 49
SWIDTH 573 0
DWIDTH 5 0
BBX 3 6 0 0
BITMAP
08
6C
0C
0C
0C
0C
ENDCHAR
STARTCHAR two
ENCODING 50
SWIDTH 573 0
DWIDTH 5 0
BBX 5 6 0 0
BITMAP
2900
A700
0700
0D00
3400
BF40
ENDCHAR
STARTCHAR three
ENCODING 51
SWIDTH 573 0
DWIDTH 5 0
BBX 4 6 0 0
BITMAP
29
67
0A
1A
53
7E
ENDCHAR
STARTCHAR four
ENCODING 52
SWIDTH 573 0
DWIDTH 5 0
BBX 5 6 0 0
BITMAP
0600
1E00
2A00
6600
AF40
0600
ENDCHAR
STARTCHAR five
ENCODING 53
SWIDTH 573 0
DWIDTH 5 0
BBX 5 6 0 0
BITMAP
2A00
6500
7900
1700
5340
3E00
ENDCHAR
STARTCHAR six
ENCODING 54
SWIDTH 573 0
DWIDTH 5 0
BBX 5 6 0 0
BITMAP
1900
3400
7A00
A740
6340
2E00
ENDCHAR
STARTCHAR seven
ENCODING 55
SWIDTH 573 0
DWIDTH 5 0
BBX 5 6 0 0
BITMAP
AA40
1700
0A00
0C00
1800
3400
ENDCHAR
STARTCHAR eight
ENCODING 56
SWIDTH 573 0
DWIDTH 5 0
BBX 4 6 0 0
BITMAP
29
67
7A
7A
A3
7E
ENDCHAR
STARTCHAR nine
ENCODING 57
SWIDTH 573 0
DWIDTH 5 0
BBX 4 6 0 0
BITMAP
29
67
A3
7B
06
29
ENDCHAR
STARTCHAR colon
ENCODING 58
SWIDTH 282 0
DWIDTH 2 0
BBX 2 5 0 0
BITMAP
10
60
00
00
60
ENDCHAR
STARTCHAR semicolon
ENCODING 59
SWIDTH 262 0
DWIDTH 2 0
BBX 2 6 0 -2
BITMAP
50
00
00
60
50
40
ENDCHAR
STARTCHAR less
ENCODING 60
SWIDTH 508 0
DWIDTH 4 0
BBX 4 4 0 0
BITMAP
1E
B4
2D
01
ENDCHAR
STARTCHAR equal
ENCODING 61
SWIDTH 572 0
DWIDTH 5 0
BBX 4 3 0 1
BITMAP
7F
15
6A
ENDCHAR
STARTCHAR greater
ENCODING 62
SWIDTH 516 0
DWIDTH 4 0
BBX 4 4 0 0
BITMAP
74
1B
79
40
ENDCHAR
STARTCHAR question
ENCODING 63
SWIDTH 497 0
DWIDTH 4 0
BBX 4 6 0 0
BITMAP
68
9A
09
18
10
24
ENDCHAR
STARTCHAR at
ENCODING 64
SWIDTH 895 0
DWIDTH 7 0
BBX 7 8 0 -2
BITMAP
0540
2460
6288
9888
8C88
9AA4
2000
1A80
ENDCHAR
STARTCHAR A
ENCODING 65
SWIDTH 672 0
DWIDTH 5 0
BBX 6 6 0 0
BITMAP
0900
1E00
2B00
3640
7B80
90D0
ENDCHAR
STARTCHAR B
ENCODING 66
SWIDTH 638 0
DWIDTH 5 0
BBX 5 6 0 0
BITMAP
6A00
6680
6640
7B40
6280
7F40
ENDCHAR
STARTCHAR C
ENCODING 67
SWIDTH 654 0
DWIDTH 5 0
BBX 5 6 0 0
BITMAP
1A00
7680
A040
A000
6180
2F40
ENDCHAR
STARTCHAR D
ENCODING 68
SWIDTH 649 0
DWIDTH 5 0
BBX 5 6 0 0
BITMAP
6900
6740
6180
6180
6280
7E00
ENDCHAR
STARTCHAR E
ENCODING 69
SWIDTH 562 0
DWIDTH 5 0
BBX 5 6 0 0
BITMAP
6A40
6500
6500
7900
6000
7F40
ENDCHAR
STARTCHAR F
ENCODING 70
SWIDTH 547 0
DWIDTH 4 0
BBX 4 6 0 0
BITMAP
6A
65
65
7A
60
60
ENDCHAR
STARTCHAR G
ENCODING 71
SWIDTH 681 0
DWIDTH 5 0
BBX 5 6 0 0
BITMAP
1A00
7680
A000
A7C0
61C0
2F80
ENDCHAR
STARTCHAR H
ENCODING 72
SWIDTH 706 0
DWIDTH 6 0
BBX 5 6 0 0
BITMAP
5080
60C0
65C0
7AC0
60C0
60C0
ENDCHAR
STARTCHAR I
ENCODING 73
SWIDTH 291 0
DWIDTH 2 0
BBX 2 6 0 0
BITMAP
60
60
60
60
60
60
ENDCHAR
STARTCHAR J
ENCODING 74
SWIDTH 558 0
DWIDTH 4 0
BBX 4 6 0 0
BITMAP
02
07
07
07
97
7D
ENDCHAR
STARTCHAR K
ENCODING 75
SWIDTH 634 0
DWIDTH 5 0
BBX 5 6 0 0
BITMAP
5180
6740
6D00
7D00
6740
6280
ENDCHAR
STARTCHAR L
ENCODING 76
SWIDTH 541 0
DWIDTH 4 0
BBX 4 6 0 0
BITMAP
50
60
60
60
60
7F
ENDCHAR
STARTCHAR M
ENCODING 77
SWIDTH 875 0
DWIDTH 7 0
BBX 7 6 0 0
BITMAP
6024
7478
68A8
69A8
6768
6328
ENDCHAR
STARTCHAR N
ENCODING 78
SWIDTH 706 0
DWIDTH 6 0
BBX 5 6 0 0
BITMAP
6080
74C0
7CC0
6AC0
63C0
61C0
ENDCHAR
STARTCHAR O
ENCODING 79
SWIDTH 690 0
DWIDTH 6 0
BBX 5 6 0 0
BITMAP
1A00
7680
A0C0
A0C0
61C0
2F40
ENDCHAR
STARTCHAR P
ENCODING 80
SWIDTH 645 0
DWIDTH 5 0
BBX 5 6 0 0
BITMAP
6A00
6680
6180
7F40
6000
6000
ENDCHAR
STARTCHAR Q
ENCODING 81
SWIDTH 690 0
DWIDTH 6 0
BBX 5 7 0 -1
BITMAP
1A00
7680
A0C0
A0C0
61C0
2F40
0180
ENDCHAR
STARTCHAR R
ENCODING 82
SWIDTH 638 0
DWIDTH 5 0
BBX 5 6 0 0
BITMAP
6A00
6680
6280
7F00
6340
6280
ENDCHAR
STARTCHAR S
ENCODING 83
SWIDTH 614 0
DWIDTH 5 0
BBX 5 6 0 0
BITMAP
2A00
6680
7400
1B40
9280
6F40
ENDCHAR
STARTCHAR T
ENCODING 84
SWIDTH 618 0
DWIDTH 5 0
BBX 5 6 0 0
BITMAP
AA80
5D40
0C00
0C00
0C00
0C00
ENDCHAR
STARTCHAR U
ENCODING 85
SWIDTH 658 0
DWIDTH 5 0
BBX 5 6 0 0
BITMAP
5180
A180
A180
A180
6180
2F40
ENDCHAR
STARTCHAR V
ENCODING 86
SWIDTH 653 0
DWIDTH 5 0
BBX 5 6 0 0
BITMAP
9080
A180
7240
3700
2E00
1D00
ENDCHAR
STARTCHAR W
ENCODING 87
SWIDTH 874 0
DWIDTH 7 0
BBX 7 6 0 0
BITMAP
9218
A768
67A4
39B0
3CF0
28A0
ENDCHAR
STARTCHAR X
ENCODING 88
SWIDTH 635 0
DWIDTH 5 0
BBX 5 6 0 0
BITMAP
5180
7740
2E00
1E00
3700
A280
ENDCHAR
STARTCHAR Y
ENCODING 89
SWIDTH 618 0
DWIDTH 5 0
BBX 5 6 0 0
BITMAP
9180
7340
3A00
1D00
0C00
0C00
ENDCHAR
STARTCHAR Z
ENCODING 90
SWIDTH 605 0
DWIDTH 5 0
BBX 5 6 0 0
BITMAP
6A40
5740
0A00
1800
7400
BF80
ENDCHAR
STARTCHAR bracketleft
ENCODING 91
SWIDTH 277 0
DWIDTH 2 0
BBX 2 9 0 -2
BITMAP
60
A0
A0
A0
A0
A0
A0
A0
50
ENDCHAR
STARTCHAR backslash
ENCODING 92
SWIDTH 421 0
DWIDTH 3 0
BBX 4 7 0 -1
BITMAP
90
A0
30
24
18
0C
05
ENDCHAR
STARTCHAR bracketright
ENCODING 93
SWIDTH 277 0
DWIDTH 2 0
BBX 2 9 0 -2
BITMAP
90
A0
60
60
60
60
60
A0
50
ENDCHAR
STARTCHAR asciicircum
ENCODING 94
SWIDTH 437 0
DWIDTH 4 0
BBX 3 3 0 3
BITMAP
24
38
98
ENDCHAR
STARTCHAR underscore
ENCODING 95
SWIDTH 446 0
DWIDTH 4 0
BBX 4 1 0 -1
BITMAP
FE
ENDCHAR
STARTCHAR grave
ENCODING 96
SWIDTH 330 0
DWIDTH 3 0
BBX 2 1 0 5
BITMAP
60
ENDCHAR
STARTCHAR a
ENCODING 97
SWIDTH 536 0
DWIDTH 4 0
BBX 4 5 0 0
BITMAP
14
7A
2B
A7
7B
ENDCHAR
STARTCHAR b
ENCODING 98
SWIDTH 562 0
DWIDTH 5 0
BBX 5 6 0 0
BITMAP
A000
A400
BB00
A340
A340
BE00
ENDCHAR
STARTCHAR c
ENCODING 99
SWIDTH 521 0
DWIDTH 4 0
BBX 4 5 0 0
BITMAP
04
7A
91
91
7D
ENDCHAR
STARTCHAR d
ENCODING 100
SWIDTH 563 0
DWIDTH 5 0
BBX 4 6 0 0
BITMAP
03
17
7B
93
93
7B
ENDCHAR
STARTCHAR e
ENCODING 101
SWIDTH 540 0
DWIDTH 4 0
BBX 4 5 0 0
BITMAP
04
7A
AB
A5
3E
ENDCHAR
STARTCHAR f
ENCODING 102
SWIDTH 358 0
DWIDTH 3 0
BBX 3 6 0 0
BITMAP
38
74
B4
70
70
70
ENDCHAR
STARTCHAR g
ENCODING 103
SWIDTH 570 0
DWIDTH 5 0
BBX 4 7 0 -2
BITMAP
15
7B
93
A3
7B
17
29
ENDCHAR
STARTCHAR h
ENCODING 104
SWIDTH 559 0
DWIDTH 4 0
BBX 4 6 0 0
BITMAP
A0
A4
BB
A3
A3
A3
ENDCHAR
STARTCHAR i
ENCODING 105
SWIDTH 265 0
DWIDTH 2 0
BBX 2 6 0 0
BITMAP
50
50
A0
A0
A0
A0
ENDCHAR
STARTCHAR j
ENCODING 106
SWIDTH 259 0
DWIDTH 2 0
BBX 3 8 -1 -2
BITMAP
14
14
28
28
28
28
28
60
ENDCHAR
STARTCHAR k
ENCODING 107
SWIDTH 534 0
DWIDTH 4 0
BBX 4 6 0 0
BITMAP
A0
A1
AA
BC
AD
A7
ENDCHAR
STARTCHAR l
ENCODING 108
SWIDTH 265 0
DWIDTH 2 0
BBX 2 6 0 0
BITMAP
A0
A0
A0
A0
A0
A0
ENDCHAR
STARTCHAR m
ENCODING 109
SWIDTH 865 0
DWIDTH 7 0
BBX 7 5 0 0
BITMAP
0410
BBB4
A324
A328
A328
ENDCHAR
STARTCHAR n
ENCODING 110
SWIDTH 560 0
DWIDTH 4 0
BBX 4 5 0 0
BITMAP
04
BB
A3
A3
A3
ENDCHAR
STARTCHAR o
ENCODING 111
SWIDTH 565 0
DWIDTH 5 0
BBX 5 5 0 0
BITMAP
0400
7A00
9340
A300
7E00
ENDCHAR
STARTCHAR p
ENCODING 112
SWIDTH 562 0
DWIDTH 5 0
BBX 5 7 0 -2
BITMAP
0400
BB00
A340
A300
BE00
A000
5000
ENDCHAR
STARTCHAR q
ENCODING 113
SWIDTH 564 0
DWIDTH 5 0
BBX 4 7 0 -2
BITMAP
11
7B
93
93
7B
03
02
ENDCHAR
STARTCHAR r
ENCODING 114
SWIDTH 364 0
DWIDTH 3 0
BBX 3 5 0 0
BITMAP
04
B8
A0
A0
A0
ENDCHAR
STARTCHAR s
ENCODING 115
SWIDTH 514 0
DWIDTH 4 0
BBX 4 5 0 0
BITMAP
14
6A
74
5A
7D
ENDCHAR
STARTCHAR t
ENCODING 116
SWIDTH 337 0
DWIDTH 3 0
BBX 3 6 0 0
BITMAP
10
70
B4
60
60
74
ENDCHAR
STARTCHAR u
ENCODING 117
SWIDTH 559 0
DWIDTH 4 0
BBX 4 5 0 0
BITMAP
01
A3
A3
A3
7B
ENDCHAR
STARTCHAR v
ENCODING 118
SWIDTH 505 0
DWIDTH 4 0
BBX 4 5 0 0
BITMAP
41
96
69
3C
28
ENDCHAR
STARTCHAR w
ENCODING 119
SWIDTH 734 0
DWIDTH 6 0
BBX 6 5 0 0
BITMAP
4010
9A60
6E90
7AC0
3580
ENDCHAR
STARTCHAR x
ENCODING 120
SWIDTH 508 0
DWIDTH 4 0
BBX 4 5 0 0
BITMAP
41
6A
3C
3C
A6
ENDCHAR
STARTCHAR y
ENCODING 121
SWIDTH 501 0
DWIDTH 4 0
BBX 4 7 0 -2
BITMAP
41
96
69
3C
28
24
60
ENDCHAR
STARTCHAR z
ENCODING 122
SWIDTH 508 0
DWIDTH 4 0
BBX 4 5 0 0
BITMAP
15
6E
1C
34
BE
ENDCHAR
STARTCHAR braceleft
ENCODING 123
SWIDTH 330 0
DWIDTH 3 0
BBX 3 7 0 -1
BITMAP
24
30
30
90
60
30
34
ENDCHAR
STARTCHAR bar
ENCODING 124
SWIDTH 252 0
DWIDTH 2 0
BBX 2 7 0 -1
BITMAP
50
50
50
50
50
50
50
ENDCHAR
STARTCHAR braceright
ENCODING 125
SWIDTH 330 0
DWIDTH 3 0
BBX 3 8 0 -2
BITMAP
90
60
60
24
70
60
A0
40
ENDCHAR
STARTCHAR asciitilde
ENCODING 126
SWIDTH 648 0
DWIDTH 5 0
BBX 5 2 0 1
BITMAP
7A80
4100
ENDCHAR
STARTCHAR uni00A0
ENCODING 160
SWIDTH 249 0
DWIDTH 2 0
BBX 1 1 0 0
BITMAP
00
ENDCHAR
STARTCHAR exclamdown
ENCODING 161
SWIDTH 282 0
DWIDTH 2 0
BBX 2 6 0 -2
BITMAP
60
50
60
60
60
50
ENDCHAR
STARTCHAR cent
ENCODING 162
SWIDTH 575 0
DWIDTH 5 0
BBX 4 6 0 -1
BITMAP
08
7A
A1
A1
3E
08
ENDCHAR
STARTCHAR sterling
ENCODING 163
SWIDTH 594 0
DWIDTH 5 0
BBX 5 6 0 0
BITMAP
1A00
3640
3400
7900
3000
BF40
ENDCHAR
STARTCHAR currency
ENCODING 164
SWIDTH 692 0
DWIDTH 6 0
BBX 5 5 0 0
BITMAP
6A80
6180
9080
5080
6A80
ENDCHAR
STARTCHAR yen
ENCODING 165
SWIDTH 536 0
DWIDTH 4 0
BBX 4 6 0 0
BITMAP
92
66
3D
7E
6E
18
ENDCHAR
STARTCHAR brokenbar
ENCODING 166
SWIDTH 251 0
DWIDTH 2 0
BBX 2 7 0 -1
BITMAP
50
A0
A0
00
A0
A0
A0
ENDCHAR
STARTCHAR section
ENCODING 167
SWIDTH 628 0
DWIDTH 5 0
BBX 5 8 0 -2
BITMAP
2A00
6640
7900
6740
7640
1B40
6640
2A00
ENDCHAR
STARTCHAR dieresis
ENCODING 168
SWIDTH 466 0
DWIDTH 4 0
BBX 4 1 0 5
BITMAP
55
ENDCHAR
STARTCHAR copyright
ENCODING 169
SWIDTH 784 0
DWIDTH 6 0
BBX 6 6 0 0
BITMAP
1940
5550
5550
5410
5A50
1580
ENDCHAR
STARTCHAR ordfeminine
ENCODING 170
SWIDTH 443 0
DWIDTH 4 0
BBX 3 4 0 2
BITMAP
24
28
68
14
ENDCHAR
STARTCHAR guillemotleft
ENCODING 171
SWIDTH 499 0
DWIDTH 4 0
BBX 4 4 0 0
BITMAP
15
68
68
11
ENDCHAR
STARTCHAR logicalnot
ENCODING 172
SWIDTH 551 0
DWIDTH 4 0
BBX 4 2 0 1
BITMAP
6A
01
ENDCHAR
STARTCHAR uni00AD
ENCODING 173
SWIDTH 387 0
DWIDTH 3 0
BBX 3 1 0 2
BITMAP
B8
ENDCHAR
STARTCHAR registered
ENCODING 174
SWIDTH 784 0
DWIDTH 6 0
BBX 6 6 0 0
BITMAP
1940
6950
4950
4A10
5550
1580
ENDCHAR
STARTCHAR macron
ENCODING 175
SWIDTH 500 0
DWIDTH 4 0
BBX 4 1 0 5
BITMAP
69
ENDCHAR
STARTCHAR degree
ENCODING 176
SWIDTH 388 0
DWIDTH 3 0
BBX 3 3 0 3
BITMAP
24
58
10
ENDCHAR
STARTCHAR plusminus
ENCODING 177
SWIDTH 537 0
DWIDTH 4 0
BBX 4 5 0 0
BITMAP
18
6E
69
14
BE
ENDCHAR
STARTCHAR uni00B2
ENCODING 178
SWIDTH 372 0
DWIDTH 3 0
BBX 3 4 0 2
BITMAP
64
58
64
54
ENDCHAR
STARTCHAR uni00B3
ENCODING 179
SWIDTH 372 0
DWIDTH 3 0
BBX 3 4 0 2
BITMAP
64
24
58
10
ENDCHAR
STARTCHAR acute
ENCODING 180
SWIDTH 331 0
DWIDTH 3 0
BBX 2 1 0 5
BITMAP
70
ENDCHAR
STARTCHAR mu
ENCODING 181
SWIDTH 615 0
DWIDTH 5 0
BBX 5 7 0 -2
BITMAP
0100
6240
6240
6340
7F40
6000
5000
ENDCHAR
STARTCHAR paragraph
ENCODING 182
SWIDTH 489 0
DWIDTH 4 0
BBX 4 6 0 0
BITMAP
29
BD
BD
6D
05
05
ENDCHAR
STARTCHAR periodcentered
ENCODING 183
SWIDTH 301 0
DWIDTH 2 0
BBX 2 2 0 2
BITMAP
10
60
ENDCHAR
STARTCHAR cedilla
ENCODING 184
SWIDTH 267 0
DWIDTH 2 0
BBX 2 2 0 -2
BITMAP
60
50
ENDCHAR
STARTCHAR uni00B9
ENCODING 185
SWIDTH 372 0
DWIDTH 3 0
BBX 1 4 1 2
BITMAP
80
80
80
40
ENDCHAR
STARTCHAR ordmasculine
ENCODING 186
SWIDTH 457 0
DWIDTH 4 0
BBX 3 4 0 2
BITMAP
28
58
68
10
ENDCHAR
STARTCHAR guillemotright
ENCODING 187
SWIDTH 499 0
DWIDTH 4 0
BBX 4 4 0 0
BITMAP
54
25
29
44
ENDCHAR
STARTCHAR onequarter
ENCODING 188
SWIDTH 717 0
DWIDTH 6 0
BBX 6 6 0 0
BITMAP
6000
6140
2200
19C0
1690
1190
ENDCHAR
STARTCHAR onehalf
ENCODING 189
SWIDTH 761 0
DWIDTH 6 0
BBX 6 6 0 0
BITMAP
6000
6200
2600
1AA0
1490
12D0
ENDCHAR
STARTCHAR threequarters
ENCODING 190
SWIDTH 808 0
DWIDTH 6 0
BBX 6 6 0 0
BITMAP
6400
1880
5940
16A0
09A0
0560
ENDCHAR
STARTCHAR questiondown
ENCODING 191
SWIDTH 497 0
DWIDTH 4 0
BBX 4 6 0 -2
BITMAP
18
14
24
A0
AA
14
ENDCHAR
STARTCHAR Agrave
ENCODING 192
SWIDTH 672 0
DWIDTH 5 0
BBX 6 7 0 0
BITMAP
0800
0900
1E00
2B00
3640
7B80
90D0
ENDCHAR
STARTCHAR Aacute
ENCODING 193
SWIDTH 672 0
DWIDTH 5 0
BBX 6 8 0 0
BITMAP
0100
0A00
0900
1E00
2B00
3640
7B80
90D0
ENDCHAR
STARTCHAR Acircumflex
ENCODING 194
SWIDTH 672 0
DWIDTH 5 0
BBX 6 7 0 0
BITMAP
1A00
0900
1E00
2B00
3640
7B80
90D0
ENDCHAR
STARTCHAR Atilde
ENCODING 195
SWIDTH 672 0
DWIDTH 5 0
BBX 6 7 0 0
BITMAP
2A00
0900
1E00
2B00
3640
7B80
90D0
ENDCHAR
STARTCHAR Adieresis
ENCODING 196
SWIDTH 672 0
DWIDTH 5 0
BBX 6 7 0 0
BITMAP
2200
0900
1E00
2B00
3640
7B80
90D0
ENDCHAR
STARTCHAR Aring
ENCODING 197
SWIDTH 672 0
DWIDTH 5 0
BBX 6 8 0 0
BITMAP
0400
0900
0900
1E00
2B00
3640
7B80
90D0
ENDCHAR
STARTCHAR AE
ENCODING 198
SWIDTH 939 0
DWIDTH 8 0
BBX 8 6 0 0
BITMAP
02A8
0B94
0DD4
2AE4
7AC0
A1FD
ENDCHAR
STARTCHAR Ccedilla
ENCODING 199
SWIDTH 654 0
DWIDTH 5 0
BBX 5 8 0 -2
BITMAP
1A00
7680
A040
A000
6180
2F40
0900
0900
ENDCHAR
STARTCHAR Egrave
ENCODING 200
SWIDTH 562 0
DWIDTH 5 0
BBX 5 8 0 0
BITMAP
1000
1800
6A40
6500
6500
7900
6000
7F40
ENDCHAR
STARTCHAR Eacute
ENCODING 201
SWIDTH 562 0
DWIDTH 5 0
BBX 5 8 0 0
BITMAP
0100
0900
6A40
6500
6500
7900
6000
7F40
ENDCHAR
STARTCHAR Ecircumflex
ENCODING 202
SWIDTH 562 0
DWIDTH 5 0
BBX 5 8 0 0
BITMAP
0400
2900
6A40
6500
6500
7900
6000
7F40
ENDCHAR
STARTCHAR Edieresis
ENCODING 203
SWIDTH 562 0
DWIDTH 5 0
BBX 5 7 0 0
BITMAP
2200
6A40
6500
6500
7900
6000
7F40
ENDCHAR
STARTCHAR Igrave
ENCODING 204
SWIDTH 291 0
DWIDTH 2 0
BBX 2 8 0 0
BITMAP
40
90
60
60
60
60
60
60
ENDCHAR
STARTCHAR Iacute
ENCODING 205
SWIDTH 291 0
DWIDTH 2 0
BBX 2 7 0 0
BITMAP
20
60
60
60
60
60
60
ENDCHAR
STARTCHAR Icircumflex
ENCODING 206
SWIDTH 291 0
DWIDTH 2 0
BBX 3 7 0 0
BITMAP
A4
60
60
60
60
60
60
ENDCHAR
STARTCHAR Idieresis
ENCODING 207
SWIDTH 291 0
DWIDTH 2 0
BBX 4 7 -1 0
BITMAP
65
18
18
18
18
18
18
ENDCHAR
STARTCHAR Eth
ENCODING 208
SWIDTH 664 0
DWIDTH 5 0
BBX 5 6 0 0
BITMAP
6900
7680
B1C0
B5C0
6280
7E00
ENDCHAR
STARTCHAR Ntilde
ENCODING 209
SWIDTH 706 0
DWIDTH 6 0
BBX 5 7 0 0
BITMAP
1A00
6080
74C0
7CC0
6AC0
63C0
61C0
ENDCHAR
STARTCHAR Ograve
ENCODING 210
SWIDTH 690 0
DWIDTH 6 0
BBX 5 7 0 0
BITMAP
0800
1A00
7680
A0C0
A0C0
61C0
2F40
ENDCHAR
STARTCHAR Oacute
ENCODING 211
SWIDTH 690 0
DWIDTH 6 0
BBX 5 8 0 0
BITMAP
0100
0600
1A00
7680
A0C0
A0C0
61C0
2F40
ENDCHAR
STARTCHAR Ocircumflex
ENCODING 212
SWIDTH 690 0
DWIDTH 6 0
BBX 5 7 0 0
BITMAP
1A00
1A00
7680
A0C0
A0C0
61C0
2F40
ENDCHAR
STARTCHAR Otilde
ENCODING 213
SWIDTH 690 0
DWIDTH 6 0
BBX 5 7 0 0
BITMAP
1A00
1A00
7680
A0C0
A0C0
61C0
2F40
ENDCHAR
STARTCHAR Odieresis
ENCODING 214
SWIDTH 690 0
DWIDTH 6 0
BBX 5 7 0 0
BITMAP
2600
1A00
7680
A0C0
A0C0
61C0
2F40
ENDCHAR
STARTCHAR multiply
ENCODING 215
SWIDTH 531 0
DWIDTH 4 0
BBX 4 4 0 1
BITMAP
41
7A
2C
A6
ENDCHAR
STARTCHAR Oslash
ENCODING 216
SWIDTH 688 0
DWIDTH 6 0
BBX 6 6 0 0
BITMAP
1A80
7680
A2C0
A8D0
75C0
3F40
ENDCHAR
STARTCHAR Ugrave
ENCODING 217
SWIDTH 658 0
DWIDTH 5 0
BBX 5 7 0 0
BITMAP
1800
5180
A180
A180
A180
6180
2F40
ENDCHAR
STARTCHAR Uacute
ENCODING 218
SWIDTH 658 0
DWIDTH 5 0
BBX 5 8 0 0
BITMAP
0100
0900
5180
A180
A180
A180
6180
2F40
ENDCHAR
STARTCHAR Ucircumflex
ENCODING 219
SWIDTH 658 0
DWIDTH 5 0
BBX 5 8 0 0
BITMAP
0400
1A00
5180
A180
A180
A180
6180
2F40
ENDCHAR
STARTCHAR Udieresis
ENCODING 220
SWIDTH 658 0
DWIDTH 5 0
BBX 5 7 0 0
BITMAP
2200
5180
A180
A180
A180
6180
2F40
ENDCHAR
STARTCHAR Yacute
ENCODING 221
SWIDTH 618 0
DWIDTH 5 0
BBX 5 8 0 0
BITMAP
0100
0900
9180
7340
3A00
1D00
0C00
0C00
ENDCHAR
STARTCHAR Thorn
ENCODING 222
SWIDTH 608 0
DWIDTH 5 0
BBX 5 6 0 0
BITMAP
5000
7900
6640
6280
7E00
6000
ENDCHAR
STARTCHAR germandbls
ENCODING 223
SWIDTH 630 0
DWIDTH 5 0
BBX 5 6 0 0
BITMAP
3E00
6700
6600
6740
6180
6F40
ENDCHAR
STARTCHAR agrave
ENCODING 224
SWIDTH 536 0
DWIDTH 4 0
BBX 4 6 0 0
BITMAP
24
14
7A
2B
A7
7B
ENDCHAR
STARTCHAR aacute
ENCODING 225
SWIDTH 536 0
DWIDTH 4 0
BBX 4 6 0 0
BITMAP
0D
14
7A
2B
A7
7B
ENDCHAR
STARTCHAR acircumflex
ENCODING 226
SWIDTH 536 0
DWIDTH 4 0
BBX 4 6 0 0
BITMAP
28
14
7A
2B
A7
7B
ENDCHAR
STARTCHAR atilde
ENCODING 227
SWIDTH 536 0
DWIDTH 4 0
BBX 4 6 0 0
BITMAP
29
14
7A
2B
A7
7B
ENDCHAR
STARTCHAR adieresis
ENCODING 228
SWIDTH 536 0
DWIDTH 4 0
BBX 4 6 0 0
BITMAP
65
14
7A
2B
A7
7B
ENDCHAR
STARTCHAR aring
ENCODING 229
SWIDTH 536 0
DWIDTH 4 0
BBX 4 7 0 0
BITMAP
04
18
14
7A
2B
A7
7B
ENDCHAR
STARTCHAR ae
ENCODING 230
SWIDTH 844 0
DWIDTH 7 0
BBX 7 5 0 0
BITMAP
1440
7BB4
1BA8
A750
7AF4
ENDCHAR
STARTCHAR ccedilla
ENCODING 231
SWIDTH 521 0
DWIDTH 4 0
BBX 4 7 0 -2
BITMAP
04
7A
91
91
7D
1C
08
ENDCHAR
STARTCHAR egrave
ENCODING 232
SWIDTH 540 0
DWIDTH 4 0
BBX 4 6 0 0
BITMAP
24
14
7A
AB
A5
3E
ENDCHAR
STARTCHAR eacute
ENCODING 233
SWIDTH 540 0
DWIDTH 4 0
BBX 4 6 0 0
BITMAP
0D
14
7A
AB
A5
3E
ENDCHAR
STARTCHAR ecircumflex
ENCODING 234
SWIDTH 540 0
DWIDTH 4 0
BBX 4 6 0 0
BITMAP
28
14
7A
AB
A5
3E
ENDCHAR
STARTCHAR edieresis
ENCODING 235
SWIDTH 540 0
DWIDTH 4 0
BBX 4 6 0 0
BITMAP
55
14
7A
AB
A5
3E
ENDCHAR
STARTCHAR igrave
ENCODING 236
SWIDTH 273 0
DWIDTH 2 0
BBX 2 6 0 0
BITMAP
90
50
60
60
60
60
ENDCHAR
STARTCHAR iacute
ENCODING 237
SWIDTH 273 0
DWIDTH 2 0
BBX 2 6 0 0
BITMAP
20
50
60
60
60
60
ENDCHAR
STARTCHAR icircumflex
ENCODING 238
SWIDTH 273 0
DWIDTH 2 0
BBX 2 6 0 0
BITMAP
A0
50
60
60
60
60
ENDCHAR
STARTCHAR idieresis
ENCODING 239
SWIDTH 273 0
DWIDTH 2 0
BBX 4 6 -1 0
BITMAP
55
14
18
18
18
18
ENDCHAR
STARTCHAR eth
ENCODING 240
SWIDTH 575 0
DWIDTH 5 0
BBX 5 6 0 0
BITMAP
3900
1A00
2B00
A340
A340
3E00
ENDCHAR
STARTCHAR ntilde
ENCODING 241
SWIDTH 560 0
DWIDTH 4 0
BBX 4 6 0 0
BITMAP
2A
14
BB
A3
A3
A3
ENDCHAR
STARTCHAR ograve
ENCODING 242
SWIDTH 565 0
DWIDTH 5 0
BBX 5 6 0 0
BITMAP
2400
1400
7A00
9340
A300
7E00
ENDCHAR
STARTCHAR oacute
ENCODING 243
SWIDTH 565 0
DWIDTH 5 0
BBX 5 6 0 0
BITMAP
0900
1400
7A00
9340
A300
7E00
ENDCHAR
STARTCHAR ocircumflex
ENCODING 244
SWIDTH 565 0
DWIDTH 5 0
BBX 5 6 0 0
BITMAP
2900
1400
7A00
9340
A300
7E00
ENDCHAR
STARTCHAR otilde
ENCODING 245
SWIDTH 565 0
DWIDTH 5 0
BBX 5 6 0 0
BITMAP
2A00
1400
7A00
9340
A300
7E00
ENDCHAR
STARTCHAR odieresis
ENCODING 246
SWIDTH 565 0
DWIDTH 5 0
BBX 5 6 0 0
BITMAP
2600
1400
7A00
9340
A300
7E00
ENDCHAR
STARTCHAR divide
ENCODING 247
SWIDTH 570 0
DWIDTH 5 0
BBX 5 5 0 0
BITMAP
1800
1400
AA40
0400
0400
ENDCHAR
STARTCHAR oslash
ENCODING 248
SWIDTH 564 0
DWIDTH 5 0
BBX 5 6 0 -1
BITMAP
0500
7A00
9B40
A700
7E00
1000
ENDCHAR
STARTCHAR ugrave
ENCODING 249
SWIDTH 559 0
DWIDTH 4 0
BBX 4 6 0 0
BITMAP
24
11
A3
A3
A3
7B
ENDCHAR
STARTCHAR uacute
ENCODING 250
SWIDTH 559 0
DWIDTH 4 0
BBX 4 6 0 0
BITMAP
09
11
A3
A3
A3
7B
ENDCHAR
STARTCHAR ucircumflex
ENCODING 251
SWIDTH 559 0
DWIDTH 4 0
BBX 4 6 0 0
BITMAP
29
51
A3
A3
A3
7B
ENDCHAR
STARTCHAR udieresis
ENCODING 252
SWIDTH 559 0
DWIDTH 4 0
BBX 4 6 0 0
BITMAP
25
11
A3
A3
A3
7B
ENDCHAR
STARTCHAR yacute
ENCODING 253
SWIDTH 501 0
DWIDTH 4 0
BBX 4 8 0 -2
BITMAP
0C
41
96
69
3C
28
24
60
ENDCHAR
STARTCHAR thorn
ENCODING 254
SWIDTH 567 0
DWIDTH 5 0
BBX 5 8 0 -2
BITMAP
A000
A400
BB00
A340
A340
BE00
A000
5000
ENDCHAR
STARTCHAR ydieresis
ENCODING 255
SWIDTH 501 0
DWIDTH 4 0
BBX 4 8 0 -2
BITMAP
55
41
96
69
3C
28
24
60
ENDCHAR
STARTCHAR Amacron
ENCODING 256
SWIDTH 672 0
DWIDTH 5 0
BBX 6 7 0 0
BITMAP
1A00
0900
1E00
2B00
3640
7B80
90D0
ENDCHAR
STARTCHAR amacron
ENCODING 257
SWIDTH 536 0
DWIDTH 4 0
BBX 4 6 0 0
BITMAP
29
14
7A
2B
A7
7B
ENDCHAR
STARTCHAR Abreve
ENCODING 258
SWIDTH 672 0
DWIDTH 5 0
BBX 6 7 0 0
BITMAP
1A00
0900
1E00
2B00
3640
7B80
90D0
ENDCHAR
STARTCHAR abreve
ENCODING 259
SWIDTH 536 0
DWIDTH 4 0
BBX 4 6 0 0
BITMAP
29
14
7A
2B
A7
7B
ENDCHAR
STARTCHAR Aogonek
ENCODING 260
SWIDTH 672 0
DWIDTH 5 0
BBX 6 8 0 -2
BITMAP
0900
1E00
2B00
3640
7B80
90D0
0180
0080
ENDCHAR
STARTCHAR aogonek
ENCODING 261
SWIDTH 536 0
DWIDTH 4 0
BBX 4 7 0 -2
BITMAP
14
7A
2B
A7
7B
05
06
ENDCHAR
STARTCHAR Cacute
ENCODING 262
SWIDTH 654 0
DWIDTH 5 0
BBX 5 8 0 0
BITMAP
0100
0900
1A00
7680
A040
A000
6180
2F40
ENDCHAR
STARTCHAR cacute
ENCODING 263
SWIDTH 521 0
DWIDTH 4 0
BBX 4 6 0 0
BITMAP
0C
14
7A
91
91
7D
ENDCHAR
STARTCHAR Ccircumflex
ENCODING 264
SWIDTH 654 0
DWIDTH 5 0
BBX 5 8 0 0
BITMAP
0400
1A00
1A00
7680
A040
A000
6180
2F40
ENDCHAR
STARTCHAR ccircumflex
ENCODING 265
SWIDTH 521 0
DWIDTH 4 0
BBX 4 6 0 0
BITMAP
28
14
7A
91
91
7D
ENDCHAR
STARTCHAR Cdotaccent
ENCODING 266
SWIDTH 654 0
DWIDTH 5 0
BBX 5 7 0 0
BITMAP
0800
1A00
7680
A040
A000
6180
2F40
ENDCHAR
STARTCHAR cdotaccent
ENCODING 267
SWIDTH 521 0
DWIDTH 4 0
BBX 4 6 0 0
BITMAP
18
04
7A
91
91
7D
ENDCHAR
STARTCHAR Ccaron
ENCODING 268
SWIDTH 654 0
DWIDTH 5 0
BBX 5 8 0 0
BITMAP
1100
1900
1A00
7680
A040
A000
6180
2F40
ENDCHAR
STARTCHAR ccaron
ENCODING 269
SWIDTH 521 0
DWIDTH 4 0
BBX 4 6 0 0
BITMAP
29
14
7A
91
91
7D
ENDCHAR
STARTCHAR Dcaron
ENCODING 270
SWIDTH 649 0
DWIDTH 5 0
BBX 5 7 0 0
BITMAP
2800
6900
6740
6180
6180
6280
7E00
ENDCHAR
STARTCHAR dcaron
ENCODING 271
SWIDTH 636 0
DWIDTH 5 0
BBX 6 6 0 0
BITMAP
0350
1740
7B00
9300
9300
7B00
ENDCHAR
STARTCHAR Dcroat
ENCODING 272
SWIDTH 664 0
DWIDTH 5 0
BBX 5 6 0 0
BITMAP
6900
7680
B1C0
B5C0
6280
7E00
ENDCHAR
STARTCHAR dcroat
ENCODING 273
SWIDTH 630 0
DWIDTH 5 0
BBX 5 6 0 0
BITMAP
0B40
1740
7B00
9300
9300
7B00
ENDCHAR
STARTCHAR Emacron
ENCODING 274
SWIDTH 562 0
DWIDTH 5 0
BBX 5 7 0 0
BITMAP
2A00
6A40
6500
6500
7900
6000
7F40
ENDCHAR
STARTCHAR emacron
ENCODING 275
SWIDTH 540 0
DWIDTH 4 0
BBX 4 6 0 0
BITMAP
29
04
7A
AB
A5
3E
ENDCHAR
STARTCHAR Ebreve
ENCODING 276
SWIDTH 562 0
DWIDTH 5 0
BBX 5 7 0 0
BITMAP
2A00
6A40
6500
6500
7900
6000
7F40
ENDCHAR
STARTCHAR ebreve
ENCODING 277
SWIDTH 540 0
DWIDTH 4 0
BBX 4 6 0 0
BITMAP
29
14
7A
AB
A5
3E
ENDCHAR
STARTCHAR Edotaccent
ENCODING 278
SWIDTH 562 0
DWIDTH 5 0
BBX 5 7 0 0
BITMAP
0800
6A40
6500
6500
7900
6000
7F40
ENDCHAR
STARTCHAR edotaccent
ENCODING 279
SWIDTH 540 0
DWIDTH 4 0
BBX 4 6 0 0
BITMAP
18
04
7A
AB
A5
3E
ENDCHAR
STARTCHAR Eogonek
ENCODING 280
SWIDTH 562 0
DWIDTH 5 0
BBX 5 8 0 -2
BITMAP
6A40
6500
6500
7900
6000
7F40
0900
0500
ENDCHAR
STARTCHAR eogonek
ENCODING 281
SWIDTH 540 0
DWIDTH 4 0
BBX 4 7 0 -2
BITMAP
04
7A
AB
A5
7E
0C
04
ENDCHAR
STARTCHAR Ecaron
ENCODING 282
SWIDTH 562 0
DWIDTH 5 0
BBX 5 8 0 0
BITMAP
1100
1900
6A40
6500
6500
7900
6000
7F40
ENDCHAR
STARTCHAR ecaron
ENCODING 283
SWIDTH 540 0
DWIDTH 4 0
BBX 4 6 0 0
BITMAP
29
14
7A
AB
A5
3E
ENDCHAR
STARTCHAR Gcircumflex
ENCODING 284
SWIDTH 681 0
DWIDTH 5 0
BBX 5 8 0 0
BITMAP
0400
1A00
1A00
7680
A000
A7C0
61C0
2F80
ENDCHAR
STARTCHAR gcircumflex
ENCODING 285
SWIDTH 570 0
DWIDTH 5 0
BBX 4 8 0 -2
BITMAP
28
15
7B
93
A3
7B
17
29
ENDCHAR
STARTCHAR Gbreve
ENCODING 286
SWIDTH 681 0
DWIDTH 5 0
BBX 5 8 0 0
BITMAP
0100
1A00
1A00
7680
A000
A7C0
61C0
2F80
ENDCHAR
STARTCHAR gbreve
ENCODING 287
SWIDTH 570 0
DWIDTH 5 0
BBX 4 8 0 -2
BITMAP
29
15
7B
93
A3
7B
17
29
ENDCHAR
STARTCHAR Gdotaccent
ENCODING 288
SWIDTH 681 0
DWIDTH 5 0
BBX 5 7 0 0
BITMAP
0800
1A00
7680
A000
A7C0
61C0
2F80
ENDCHAR
STARTCHAR gdotaccent
ENCODING 289
SWIDTH 570 0
DWIDTH 5 0
BBX 4 8 0 -2
BITMAP
18
15
7B
93
A3
7B
17
29
ENDCHAR
STARTCHAR uni0122
ENCODING 290
SWIDTH 681 0
DWIDTH 5 0
BBX 5 8 0 -2
BITMAP
1A00
7680
A000
A7C0
61C0
2F80
0400
0800
ENDCHAR
STARTCHAR uni0123
ENCODING 291
SWIDTH 570 0
DWIDTH 5 0
BBX 4 9 0 -2
BITMAP
04
18
15
7B
93
A3
7B
17
29
ENDCHAR
STARTCHAR Hcircumflex
ENCODING 292
SWIDTH 706 0
DWIDTH 6 0
BBX 5 7 0 0
BITMAP
1A00
5080
60C0
65C0
7AC0
60C0
60C0
ENDCHAR
STARTCHAR hcircumflex
ENCODING 293
SWIDTH 559 0
DWIDTH 4 0
BBX 4 8 0 0
BITMAP
14
14
A0
A4
BB
A3
A3
A3
ENDCHAR
STARTCHAR Hbar
ENCODING 294
SWIDTH 719 0
DWIDTH 6 0
BBX 6 6 0 0
BITMAP
6080
BAE0
75D0
7AD0
60D0
60D0
ENDCHAR
STARTCHAR hbar
ENCODING 295
SWIDTH 574 0
DWIDTH 5 0
BBX 5 6 0 0
BITMAP
A400
A400
7B00
6300
6340
6340
ENDCHAR
STARTCHAR Itilde
ENCODING 296
SWIDTH 291 0
DWIDTH 2 0
BBX 3 7 0 0
BITMAP
A4
60
60
60
60
60
60
ENDCHAR
STARTCHAR itilde
ENCODING 297
SWIDTH 273 0
DWIDTH 2 0
BBX 3 6 0 0
BITMAP
A4
10
60
60
60
60
ENDCHAR
STARTCHAR Imacron
ENCODING 298
SWIDTH 291 0
DWIDTH 2 0
BBX 3 7 0 0
BITMAP
A4
60
60
60
60
60
60
ENDCHAR
STARTCHAR imacron
ENCODING 299
SWIDTH 273 0
DWIDTH 2 0
BBX 3 6 0 0
BITMAP
A4
10
60
60
60
60
ENDCHAR
STARTCHAR Ibreve
ENCODING 300
SWIDTH 291 0
DWIDTH 2 0
BBX 3 7 0 0
BITMAP
A4
60
60
60
60
60
60
ENDCHAR
STARTCHAR ibreve
ENCODING 301
SWIDTH 273 0
DWIDTH 2 0
BBX 3 6 0 0
BITMAP
A4
50
60
60
60
60
ENDCHAR
STARTCHAR Iogonek
ENCODING 302
SWIDTH 291 0
DWIDTH 2 0
BBX 2 8 0 -2
BITMAP
60
60
60
60
60
60
90
50
ENDCHAR
STARTCHAR iogonek
ENCODING 303
SWIDTH 265 0
DWIDTH 2 0
BBX 2 8 0 -2
BITMAP
50
50
A0
A0
A0
A0
80
50
ENDCHAR
STARTCHAR Idotaccent
ENCODING 304
SWIDTH 291 0
DWIDTH 2 0
BBX 2 7 0 0
BITMAP
60
60
60
60
60
60
60
ENDCHAR
STARTCHAR dotlessi
ENCODING 305
SWIDTH 273 0
DWIDTH 2 0
BBX 2 4 0 0
BITMAP
60
60
60
60
ENDCHAR
STARTCHAR IJ
ENCODING 306
SWIDTH 850 0
DWIDTH 7 0
BBX 7 6 0 0
BITMAP
6024
6034
6034
6034
6634
63E0
ENDCHAR
STARTCHAR ij
ENCODING 307
SWIDTH 524 0
DWIDTH 4 0
BBX 4 8 0 -2
BITMAP
56
51
A6
A6
A6
A6
0A
09
ENDCHAR
STARTCHAR Jcircumflex
ENCODING 308
SWIDTH 558 0
DWIDTH 4 0
BBX 5 8 0 0
BITMAP
0100
0A40
0200
0700
0700
0700
9700
7D00
ENDCHAR
STARTCHAR jcircumflex
ENCODING 309
SWIDTH 281 0
DWIDTH 2 0
BBX 3 8 -1 -2
BITMAP
28
14
18
18
18
18
28
60
ENDCHAR
STARTCHAR uni0136
ENCODING 310
SWIDTH 634 0
DWIDTH 5 0
BBX 5 8 0 -2
BITMAP
5180
6740
6D00
7D00
6740
6280
0800
0400
ENDCHAR
STARTCHAR uni0137
ENCODING 311
SWIDTH 534 0
DWIDTH 4 0
BBX 4 8 0 -2
BITMAP
A0
A1
AA
BC
AD
A7
14
14
ENDCHAR
STARTCHAR kgreenlandic
ENCODING 312
SWIDTH 589 0
DWIDTH 5 0
BBX 5 5 0 0
BITMAP
0100
6700
7D00
6E00
6740
ENDCHAR
STARTCHAR Lacute
ENCODING 313
SWIDTH 541 0
DWIDTH 4 0
BBX 4 7 0 0
BITMAP
20
50
60
60
60
60
7F
ENDCHAR
STARTCHAR lacute
ENCODING 314
SWIDTH 265 0
DWIDTH 2 0
BBX 2 8 0 0
BITMAP
10
50
A0
A0
A0
A0
A0
A0
ENDCHAR
STARTCHAR uni013B
ENCODING 315
SWIDTH 541 0
DWIDTH 4 0
BBX 4 8 0 -2
BITMAP
50
60
60
60
60
7F
08
14
ENDCHAR
STARTCHAR uni013C
ENCODING 316
SWIDTH 265 0
DWIDTH 2 0
BBX 2 8 0 -2
BITMAP
A0
A0
A0
A0
A0
A0
50
50
ENDCHAR
STARTCHAR Lcaron
ENCODING 317
SWIDTH 541 0
DWIDTH 4 0
BBX 4 6 0 0
BITMAP
55
65
60
60
60
7F
ENDCHAR
STARTCHAR lcaron
ENCODING 318
SWIDTH 338 0
DWIDTH 3 0
BBX 3 6 0 0
BITMAP
A8
A4
A0
A0
A0
A0
ENDCHAR
STARTCHAR Ldot
ENCODING 319
SWIDTH 541 0
DWIDTH 4 0
BBX 4 6 0 0
BITMAP
50
60
65
60
60
7F
ENDCHAR
STARTCHAR ldot
ENCODING 320
SWIDTH 372 0
DWIDTH 3 0
BBX 3 6 0 0
BITMAP
A0
A0
A4
A4
A0
A0
ENDCHAR
STARTCHAR Lslash
ENCODING 321
SWIDTH 557 0
DWIDTH 4 0
BBX 5 6 0 0
BITMAP
6000
6000
7400
B000
6000
7F40
ENDCHAR
STARTCHAR lslash
ENCODING 322
SWIDTH 305 0
DWIDTH 2 0
BBX 3 6 0 0
BITMAP
60
60
74
A0
60
60
ENDCHAR
STARTCHAR Nacute
ENCODING 323
SWIDTH 706 0
DWIDTH 6 0
BBX 5 8 0 0
BITMAP
0100
0600
6080
74C0
7CC0
6AC0
63C0
61C0
ENDCHAR
STARTCHAR nacute
ENCODING 324
SWIDTH 560 0
DWIDTH 4 0
BBX 4 6 0 0
BITMAP
09
14
BB
A3
A3
A3
ENDCHAR
STARTCHAR uni0145
ENCODING 325
SWIDTH 706 0
DWIDTH 6 0
BBX 5 8 0 -2
BITMAP
6080
74C0
7CC0
6AC0
63C0
61C0
0400
0800
ENDCHAR
STARTCHAR uni0146
ENCODING 326
SWIDTH 560 0
DWIDTH 4 0
BBX 4 7 0 -2
BITMAP
04
BB
A3
A3
A3
04
14
ENDCHAR
STARTCHAR Ncaron
ENCODING 327
SWIDTH 706 0
DWIDTH 6 0
BBX 5 7 0 0
BITMAP
0A00
6080
74C0
7CC0
6AC0
63C0
61C0
ENDCHAR
STARTCHAR ncaron
ENCODING 328
SWIDTH 560 0
DWIDTH 4 0
BBX 4 6 0 0
BITMAP
29
04
BB
A3
A3
A3
ENDCHAR
STARTCHAR napostrophe
ENCODING 329
SWIDTH 560 0
DWIDTH 4 0
BBX 5 6 -1 0
BITMAP
6000
5100
2EC0
28C0
28C0
28C0
ENDCHAR
STARTCHAR Eng
ENCODING 330
SWIDTH 703 0
DWIDTH 6 0
BBX 5 8 0 -2
BITMAP
6080
B4C0
ACC0
AAC0
A3C0
A1C0
01C0
0240
ENDCHAR
STARTCHAR eng
ENCODING 331
SWIDTH 564 0
DWIDTH 5 0
BBX 4 7 0 -2
BITMAP
04
AB
A3
A3
A3
07
09
ENDCHAR
STARTCHAR Omacron
ENCODING 332
SWIDTH 690 0
DWIDTH 6 0
BBX 5 7 0 0
BITMAP
1A00
1A00
7680
A0C0
A0C0
61C0
2F40
ENDCHAR
STARTCHAR omacron
ENCODING 333
SWIDTH 565 0
DWIDTH 5 0
BBX 5 6 0 0
BITMAP
2900
0400
7A00
9340
A300
7E00
ENDCHAR
STARTCHAR Obreve
ENCODING 334
SWIDTH 690 0
DWIDTH 6 0
BBX 5 7 0 0
BITMAP
1A00
1A00
7680
A0C0
A0C0
61C0
2F40
ENDCHAR
STARTCHAR obreve
ENCODING 335
SWIDTH 565 0
DWIDTH 5 0
BBX 5 6 0 0
BITMAP
2900
1400
7A00
9340
A300
7E00
ENDCHAR
STARTCHAR Ohungarumlaut
ENCODING 336
SWIDTH 690 0
DWIDTH 6 0
BBX 5 8 0 0
BITMAP
0400
0A40
1A00
7680
A0C0
A0C0
61C0
2F40
ENDCHAR
STARTCHAR ohungarumlaut
ENCODING 337
SWIDTH 565 0
DWIDTH 5 0
BBX 5 6 0 0
BITMAP
2A00
1400
7A00
9340
A300
7E00
ENDCHAR
STARTCHAR OE
ENCODING 338
SWIDTH 968 0
DWIDTH 8 0
BBX 8 6 0 0
BITMAP
1AA9
7694
A194
A1E4
6180
2FFD
ENDCHAR
STARTCHAR oe
ENCODING 339
SWIDTH 901 0
DWIDTH 7 0
BBX 7 5 0 0
BITMAP
0410
7BE8
A3AC
A394
3EF8
ENDCHAR
STARTCHAR Racute
ENCODING 340
SWIDTH 638 0
DWIDTH 5 0
BBX 5 7 0 0
BITMAP
0900
6A00
6680
6280
7F00
6340
6280
ENDCHAR
STARTCHAR racute
ENCODING 341
SWIDTH 364 0
DWIDTH 3 0
BBX 3 6 0 0
BITMAP
18
14
B8
A0
A0
A0
ENDCHAR
STARTCHAR uni0156
ENCODING 342
SWIDTH 638 0
DWIDTH 5 0
BBX 5 8 0 -2
BITMAP
6A00
6680
6280
7F00
6340
6280
0800
0400
ENDCHAR
STARTCHAR uni0157
ENCODING 343
SWIDTH 364 0
DWIDTH 3 0
BBX 3 7 0 -2
BITMAP
04
B8
A0
A0
A0
50
40
ENDCHAR
STARTCHAR Rcaron
ENCODING 344
SWIDTH 638 0
DWIDTH 5 0
BBX 5 8 0 0
BITMAP
1100
1900
6A00
6680
6280
7F00
6340
6280
ENDCHAR
STARTCHAR rcaron
ENCODING 345
SWIDTH 364 0
DWIDTH 3 0
BBX 3 6 0 0
BITMAP
68
14
B8
A0
A0
A0
ENDCHAR
STARTCHAR Sacute
ENCODING 346
SWIDTH 614 0
DWIDTH 5 0
BBX 5 8 0 0
BITMAP
0100
0900
2A00
6680
7400
1B40
9280
6F40
ENDCHAR
STARTCHAR sacute
ENCODING 347
SWIDTH 514 0
DWIDTH 4 0
BBX 4 6 0 0
BITMAP
0C
14
6A
74
5A
7D
ENDCHAR
STARTCHAR Scircumflex
ENCODING 348
SWIDTH 614 0
DWIDTH 5 0
BBX 5 8 0 0
BITMAP
0400
1A00
2A00
6680
7400
1B40
9280
6F40
ENDCHAR
STARTCHAR scircumflex
ENCODING 349
SWIDTH 514 0
DWIDTH 4 0
BBX 4 6 0 0
BITMAP
28
14
6A
74
5A
7D
ENDCHAR
STARTCHAR Scedilla
ENCODING 350
SWIDTH 614 0
DWIDTH 5 0
BBX 5 8 0 -2
BITMAP
2A00
6680
7400
1B40
9280
6F40
0900
0900
ENDCHAR
STARTCHAR scedilla
ENCODING 351
SWIDTH 514 0
DWIDTH 4 0
BBX 4 7 0 -2
BITMAP
14
6A
74
5A
7D
18
18
ENDCHAR
STARTCHAR Scaron
ENCODING 352
SWIDTH 614 0
DWIDTH 5 0
BBX 5 8 0 0
BITMAP
1100
1900
2A00
6680
7400
1B40
9280
6F40
ENDCHAR
STARTCHAR scaron
ENCODING 353
SWIDTH 514 0
DWIDTH 4 0
BBX 4 6 0 0
BITMAP
29
14
6A
74
5A
7D
ENDCHAR
STARTCHAR uni0162
ENCODING 354
SWIDTH 618 0
DWIDTH 5 0
BBX 5 8 0 -2
BITMAP
AA80
5D40
0C00
0C00
0C00
0C00
0900
0800
ENDCHAR
STARTCHAR uni0163
ENCODING 355
SWIDTH 337 0
DWIDTH 3 0
BBX 3 8 0 -2
BITMAP
10
70
B4
60
60
74
24
24
ENDCHAR
STARTCHAR Tcaron
ENCODING 356
SWIDTH 618 0
DWIDTH 5 0
BBX 5 8 0 0
BITMAP
1100
1900
AA80
5D40
0C00
0C00
0C00
0C00
ENDCHAR
STARTCHAR tcaron
ENCODING 357
SWIDTH 357 0
DWIDTH 3 0
BBX 3 7 0 0
BITMAP
04
18
70
B4
60
60
74
ENDCHAR
STARTCHAR Tbar
ENCODING 358
SWIDTH 618 0
DWIDTH 5 0
BBX 5 6 0 0
BITMAP
AA80
5D40
2E00
1C00
0C00
0C00
ENDCHAR
STARTCHAR tbar
ENCODING 359
SWIDTH 337 0
DWIDTH 3 0
BBX 3 6 0 0
BITMAP
10
70
B4
B4
60
74
ENDCHAR
STARTCHAR Utilde
ENCODING 360
SWIDTH 658 0
DWIDTH 5 0
BBX 5 7 0 0
BITMAP
2A00
5180
A180
A180
A180
6180
2F40
ENDCHAR
STARTCHAR utilde
ENCODING 361
SWIDTH 559 0
DWIDTH 4 0
BBX 4 6 0 0
BITMAP
2A
11
A3
A3
A3
7B
ENDCHAR
STARTCHAR Umacron
ENCODING 362
SWIDTH 658 0
DWIDTH 5 0
BBX 5 7 0 0
BITMAP
1A00
5180
A180
A180
A180
6180
2F40
ENDCHAR
STARTCHAR umacron
ENCODING 363
SWIDTH 559 0
DWIDTH 4 0
BBX 4 6 0 0
BITMAP
29
01
A3
A3
A3
7B
ENDCHAR
STARTCHAR Ubreve
ENCODING 364
SWIDTH 658 0
DWIDTH 5 0
BBX 5 7 0 0
BITMAP
1A00
5180
A180
A180
A180
6180
2F40
ENDCHAR
STARTCHAR ubreve
ENCODING 365
SWIDTH 559 0
DWIDTH 4 0
BBX 4 6 0 0
BITMAP
29
11
A3
A3
A3
7B
ENDCHAR
STARTCHAR Uring
ENCODING 366
SWIDTH 658 0
DWIDTH 5 0
BBX 5 8 0 0
BITMAP
0400
0900
5180
A180
A180
A180
6180
2F40
ENDCHAR
STARTCHAR uring
ENCODING 367
SWIDTH 559 0
DWIDTH 4 0
BBX 4 7 0 0
BITMAP
04
18
01
A3
A3
A3
7B
ENDCHAR
STARTCHAR Uhungarumlaut
ENCODING 368
SWIDTH 658 0
DWIDTH 5 0
BBX 5 8 0 0
BITMAP
0400
1A00
5180
A180
A180
A180
6180
2F40
ENDCHAR
STARTCHAR uhungarumlaut
ENCODING 369
SWIDTH 559 0
DWIDTH 4 0
BBX 4 6 0 0
BITMAP
2A
11
A3
A3
A3
7B
ENDCHAR
STARTCHAR Uogonek
ENCODING 370
SWIDTH 658 0
DWIDTH 5 0
BBX 5 8 0 -2
BITMAP
5180
A180
A180
A180
6180
2F40
0600
0100
ENDCHAR
STARTCHAR uogonek
ENCODING 371
SWIDTH 559 0
DWIDTH 4 0
BBX 4 7 0 -2
BITMAP
01
A3
A3
A3
7B
06
06
ENDCHAR
STARTCHAR Wcircumflex
ENCODING 372
SWIDTH 874 0
DWIDTH 7 0
BBX 7 8 0 0
BITMAP
0100
0680
9218
A768
67A4
39B0
3CF0
28A0
ENDCHAR
STARTCHAR wcircumflex
ENCODING 373
SWIDTH 734 0
DWIDTH 6 0
BBX 6 6 0 0
BITMAP
0A00
4410
9A60
6E90
7AC0
3580
ENDCHAR
STARTCHAR Ycircumflex
ENCODING 374
SWIDTH 618 0
DWIDTH 5 0
BBX 5 8 0 0
BITMAP
0400
2900
9180
7340
3A00
1D00
0C00
0C00
ENDCHAR
STARTCHAR ycircumflex
ENCODING 375
SWIDTH 501 0
DWIDTH 4 0
BBX 4 8 0 -2
BITMAP
28
41
96
69
3C
28
24
60
ENDCHAR
STARTCHAR Ydieresis
ENCODING 376
SWIDTH 618 0
DWIDTH 5 0
BBX 5 7 0 0
BITMAP
2200
9180
7340
3A00
1D00
0C00
0C00
ENDCHAR
STARTCHAR Zacute
ENCODING 377
SWIDTH 605 0
DWIDTH 5 0
BBX 5 8 0 0
BITMAP
0100
0900
6A40
5740
0A00
1800
7400
BF80
ENDCHAR
STARTCHAR zacute
ENCODING 378
SWIDTH 508 0
DWIDTH 4 0
BBX 4 6 0 0
BITMAP
0C
15
6E
1C
34
BE
ENDCHAR
STARTCHAR Zdotaccent
ENCODING 379
SWIDTH 605 0
DWIDTH 5 0
BBX 5 7 0 0
BITMAP
0800
6A40
5740
0A00
1800
7400
BF80
ENDCHAR
STARTCHAR zdotaccent
ENCODING 380
SWIDTH 508 0
DWIDTH 4 0
BBX 4 6 0 0
BITMAP
14
15
6E
1C
34
BE
ENDCHAR
STARTCHAR Zcaron
ENCODING 381
SWIDTH 605 0
DWIDTH 5 0
BBX 5 8 0 0
BITMAP
1100
1900
6A40
5740
0A00
1800
7400
BF80
ENDCHAR
STARTCHAR zcaron
ENCODING 382
SWIDTH 508 0
DWIDTH 4 0
BBX 4 6 0 0
BITMAP
29
15
6E
1C
34
BE
ENDCHAR
STARTCHAR longs
ENCODING 383
SWIDTH 259 0
DWIDTH 2 0
BBX 3 6 0 0
BITMAP
78
A0
A0
A0
A0
A0
ENDCHAR
STARTCHAR uni018F
ENCODING 399
SWIDTH 694 0
DWIDTH 6 0
BBX 6 6 0 0
BITMAP
2A00
1680
15C0
BAD0
61C0
2F40
ENDCHAR
STARTCHAR florin
ENCODING 402
SWIDTH 360 0
DWIDTH 3 0
BBX 3 8 0 -2
BITMAP
38
70
B4
70
70
70
60
90
ENDCHAR
STARTCHAR Ohorn
ENCODING 416
SWIDTH 701 0
DWIDTH 6 0
BBX 6 6 0 0
BITMAP
1A60
76C0
A0C0
A0C0
61C0
2F40
ENDCHAR
STARTCHAR ohorn
ENCODING 417
SWIDTH 581 0
DWIDTH 5 0
BBX 5 5 0 0
BITMAP
0440
7B40
9340
A300
7E00
ENDCHAR
STARTCHAR Uhorn
ENCODING 431
SWIDTH 712 0
DWIDTH 6 0
BBX 7 6 0 0
BITMAP
5194
A1E0
A180
A180
6180
2F40
ENDCHAR
STARTCHAR uhorn
ENCODING 432
SWIDTH 609 0
DWIDTH 5 0
BBX 5 5 0 0
BITMAP
0140
A380
A300
A300
7B00
ENDCHAR
STARTCHAR uni01F0
ENCODING 496
SWIDTH 281 0
DWIDTH 2 0
BBX 4 8 -1 -2
BITMAP
29
14
18
18
18
18
28
60
ENDCHAR
STARTCHAR Aringacute
ENCODING 506
SWIDTH 672 0
DWIDTH 5 0
BBX 6 8 0 0
BITMAP
0600
0500
0D00
1E00
2B00
3640
7B80
90D0
ENDCHAR
STARTCHAR aringacute
ENCODING 507
SWIDTH 536 0
DWIDTH 4 0
BBX 4 7 0 0
BITMAP
04
14
18
7A
2B
A7
7B
ENDCHAR
STARTCHAR AEacute
ENCODING 508
SWIDTH 939 0
DWIDTH 8 0
BBX 8 8 0 0
BITMAP
0040
0240
02A8
0B94
0DD4
2AE4
7AC0
A1FD
ENDCHAR
STARTCHAR aeacute
ENCODING 509
SWIDTH 844 0
DWIDTH 7 0
BBX 7 6 0 0
BITMAP
0240
1540
7BB4
1BA8
A750
7AF4
ENDCHAR
STARTCHAR Oslashacute
ENCODING 510
SWIDTH 688 0
DWIDTH 6 0
BBX 6 8 0 0
BITMAP
0100
0500
1A80
7680
A2C0
A8D0
75C0
3F40
ENDCHAR
STARTCHAR oslashacute
ENCODING 511
SWIDTH 564 0
DWIDTH 5 0
BBX 5 7 0 -1
BITMAP
0D00
1500
7A00
9B40
A700
7E00
1000
ENDCHAR
STARTCHAR uni0218
ENCODING 536
SWIDTH 614 0
DWIDTH 5 0
BBX 5 8 0 -2
BITMAP
2A00
6680
7400
1B40
9280
6F40
0800
0800
ENDCHAR
STARTCHAR uni0219
ENCODING 537
SWIDTH 514 0
DWIDTH 4 0
BBX 4 7 0 -2
BITMAP
14
6A
74
5A
7D
14
14
ENDCHAR
STARTCHAR uni021A
ENCODING 538
SWIDTH 618 0
DWIDTH 5 0
BBX 5 8 0 -2
BITMAP
AA80
5D40
0C00
0C00
0C00
0C00
0800
0800
ENDCHAR
STARTCHAR uni021B
ENCODING 539
SWIDTH 337 0
DWIDTH 3 0
BBX 3 8 0 -2
BITMAP
10
70
B4
60
60
74
10
20
ENDCHAR
STARTCHAR uni0237
ENCODING 567
SWIDTH 281 0
DWIDTH 2 0
BBX 3 7 -1 -2
BITMAP
04
18
18
18
18
28
60
ENDCHAR
STARTCHAR uni0259
ENCODING 601
SWIDTH 529 0
DWIDTH 4 0
BBX 4 5 0 0
BITMAP
14
6E
5B
AB
7D
ENDCHAR
STARTCHAR uni02BC
ENCODING 700
SWIDTH 229 0
DWIDTH 2 0
BBX 2 2 0 4
BITMAP
50
80
ENDCHAR
STARTCHAR circumflex
ENCODING 710
SWIDTH 495 0
DWIDTH 4 0
BBX 2 1 1 5
BITMAP
A0
ENDCHAR
STARTCHAR caron
ENCODING 711
SWIDTH 470 0
DWIDTH 4 0
BBX 3 1 0 5
BITMAP
68
ENDCHAR
STARTCHAR uni02C9
ENCODING 713
SWIDTH 500 0
DWIDTH 4 0
BBX 4 1 0 5
BITMAP
69
ENDCHAR
STARTCHAR breve
ENCODING 728
SWIDTH 443 0
DWIDTH 4 0
BBX 3 1 0 5
BITMAP
68
ENDCHAR
STARTCHAR dotaccent
ENCODING 729
SWIDTH 265 0
DWIDTH 2 0
BBX 2 1 0 5
BITMAP
50
ENDCHAR
STARTCHAR ring
ENCODING 730
SWIDTH 333 0
DWIDTH 3 0
BBX 2 2 0 4
BITMAP
50
10
ENDCHAR
STARTCHAR ogonek
ENCODING 731
SWIDTH 300 0
DWIDTH 2 0
BBX 2 2 0 -2
BITMAP
90
50
ENDCHAR
STARTCHAR tilde
ENCODING 732
SWIDTH 480 0
DWIDTH 4 0
BBX 4 1 0 5
BITMAP
69
ENDCHAR
STARTCHAR hungarumlaut
ENCODING 733
SWIDTH 410 0
DWIDTH 3 0
BBX 3 1 0 5
BITMAP
68
ENDCHAR
STARTCHAR uni02F3
ENCODING 755
SWIDTH 313 0
DWIDTH 3 0
BBX 2 2 0 -2
BITMAP
50
10
ENDCHAR
STARTCHAR gravecomb
ENCODING 768
SWIDTH 0 0
DWIDTH 0 0
BBX 1 1 -3 5
BITMAP
C0
ENDCHAR
STARTCHAR acutecomb
ENCODING 769
SWIDTH 0 0
DWIDTH 0 0
BBX 2 1 -3 5
BITMAP
60
ENDCHAR
STARTCHAR tildecomb
ENCODING 771
SWIDTH 0 0
DWIDTH 0 0
BBX 4 1 -4 5
BITMAP
69
ENDCHAR
STARTCHAR hookabovecomb
ENCODING 777
SWIDTH 0 0
DWIDTH 0 0
BBX 2 2 -3 5
BITMAP
40
90
ENDCHAR
STARTCHAR uni030F
ENCODING 783
SWIDTH 0 0
DWIDTH 0 0
BBX 3 1 -4 5
BITMAP
A8
ENDCHAR
STARTCHAR dotbelowcomb
ENCODING 803
SWIDTH 0 0
DWIDTH 0 0
BBX 1 2 -3 -2
BITMAP
40
40
ENDCHAR
STARTCHAR tonos
ENCODING 900
SWIDTH 336 0
DWIDTH 3 0
BBX 1 2 1 5
BITMAP
40
80
ENDCHAR
STARTCHAR dieresistonos
ENCODING 901
SWIDTH 548 0
DWIDTH 4 0
BBX 4 2 0 5
BITMAP
08
56
ENDCHAR
STARTCHAR Alphatonos
ENCODING 902
SWIDTH 672 0
DWIDTH 5 0
BBX 6 6 0 0
BITMAP
9900
1E00
2B00
3640
7B80
90D0
ENDCHAR
STARTCHAR anoteleia
ENCODING 903
SWIDTH 301 0
DWIDTH 2 0
BBX 2 2 0 2
BITMAP
10
60
ENDCHAR
STARTCHAR Epsilontonos
ENCODING 904
SWIDTH 562 0
DWIDTH 5 0
BBX 7 7 -2 0
BITMAP
1000
66A4
0650
0650
0790
0600
07F4
ENDCHAR
STARTCHAR Etatonos
ENCODING 905
SWIDTH 706 0
DWIDTH 6 0
BBX 7 7 -2 0
BITMAP
1000
6508
060C
065C
07AC
060C
060C
ENDCHAR
STARTCHAR Iotatonos
ENCODING 906
SWIDTH 291 0
DWIDTH 2 0
BBX 4 7 -2 0
BITMAP
10
66
06
06
06
06
06
ENDCHAR
STARTCHAR Omicrontonos
ENCODING 908
SWIDTH 700 0
DWIDTH 6 0
BBX 7 6 -1 0
BITMAP
5680
1DB0
2834
2834
1C70
0BD0
ENDCHAR
STARTCHAR Upsilontonos
ENCODING 910
SWIDTH 666 0
DWIDTH 5 0
BBX 7 7 -2 0
BITMAP
1000
6608
0368
01B4
00E0
0090
0090
ENDCHAR
STARTCHAR Omegatonos
ENCODING 911
SWIDTH 681 0
DWIDTH 5 0
BBX 6 7 -1 0
BITMAP
1000
5680
1DA0
1870
1870
0C90
1EF0
ENDCHAR
STARTCHAR iotadieresistonos
ENCODING 912
SWIDTH 336 0
DWIDTH 3 0
BBX 4 7 -1 0
BITMAP
08
56
10
18
18
18
1D
ENDCHAR
STARTCHAR Alpha
ENCODING 913
SWIDTH 672 0
DWIDTH 5 0
BBX 6 6 0 0
BITMAP
0900
1E00
2B00
3640
7B80
90D0
ENDCHAR
STARTCHAR Beta
ENCODING 914
SWIDTH 638 0
DWIDTH 5 0
BBX 5 6 0 0
BITMAP
6A00
6680
6640
7B40
6280
7F40
ENDCHAR
STARTCHAR Gamma
ENCODING 915
SWIDTH 557 0
DWIDTH 4 0
BBX 4 6 0 0
BITMAP
6A
65
60
60
60
60
ENDCHAR
STARTCHAR uni0394
ENCODING 916
SWIDTH 730 0
DWIDTH 6 0
BBX 6 6 0 0
BITMAP
0900
0F00
2A40
3580
70D0
BFE0
ENDCHAR
STARTCHAR Epsilon
ENCODING 917
SWIDTH 562 0
DWIDTH 5 0
BBX 5 6 0 0
BITMAP
6A40
6500
6500
7900
6000
7F40
ENDCHAR
STARTCHAR Zeta
ENCODING 918
SWIDTH 605 0
DWIDTH 5 0
BBX 5 6 0 0
BITMAP
6A40
5740
0A00
1800
7400
BF80
ENDCHAR
STARTCHAR Eta
ENCODING 919
SWIDTH 706 0
DWIDTH 6 0
BBX 5 6 0 0
BITMAP
5080
60C0
65C0
7AC0
60C0
60C0
ENDCHAR
STARTCHAR Theta
ENCODING 920
SWIDTH 687 0
DWIDTH 6 0
BBX 5 6 0 0
BITMAP
1A00
7680
A5C0
A9C0
61C0
2F40
ENDCHAR
STARTCHAR Iota
ENCODING 921
SWIDTH 291 0
DWIDTH 2 0
BBX 2 6 0 0
BITMAP
60
60
60
60
60
60
ENDCHAR
STARTCHAR Kappa
ENCODING 922
SWIDTH 634 0
DWIDTH 5 0
BBX 5 6 0 0
BITMAP
5180
6740
6D00
7D00
6740
6280
ENDCHAR
STARTCHAR Lambda
ENCODING 923
SWIDTH 647 0
DWIDTH 5 0
BBX 5 6 0 0
BITMAP
0900
1E00
2B00
3340
6280
91C0
ENDCHAR
STARTCHAR Mu
ENCODING 924
SWIDTH 875 0
DWIDTH 7 0
BBX 7 6 0 0
BITMAP
6024
7478
68A8
69A8
6768
6328
ENDCHAR
STARTCHAR Nu
ENCODING 925
SWIDTH 706 0
DWIDTH 6 0
BBX 5 6 0 0
BITMAP
6080
74C0
7CC0
6AC0
63C0
61C0
ENDCHAR
STARTCHAR Xi
ENCODING 926
SWIDTH 566 0
DWIDTH 5 0
BBX 5 6 0 0
BITMAP
6A00
1500
1500
2900
0000
BF40
ENDCHAR
STARTCHAR Omicron
ENCODING 927
SWIDTH 690 0
DWIDTH 6 0
BBX 5 6 0 0
BITMAP
1A00
7680
A0C0
A0C0
61C0
2F40
ENDCHAR
STARTCHAR Pi
ENCODING 928
SWIDTH 707 0
DWIDTH 6 0
BBX 5 6 0 0
BITMAP
6A80
65C0
60C0
60C0
60C0
60C0
ENDCHAR
STARTCHAR Rho
ENCODING 929
SWIDTH 645 0
DWIDTH 5 0
BBX 5 6 0 0
BITMAP
6A00
6680
6180
7F40
6000
6000
ENDCHAR
STARTCHAR Sigma
ENCODING 931
SWIDTH 566 0
DWIDTH 5 0
BBX 5 6 0 0
BITMAP
6A00
7500
1800
1C00
3400
BF40
ENDCHAR
STARTCHAR Tau
ENCODING 932
SWIDTH 618 0
DWIDTH 5 0
BBX 5 6 0 0
BITMAP
AA80
5D40
0C00
0C00
0C00
0C00
ENDCHAR
STARTCHAR Upsilon
ENCODING 933
SWIDTH 618 0
DWIDTH 5 0
BBX 5 6 0 0
BITMAP
9180
7340
3A00
1D00
0C00
0C00
ENDCHAR
STARTCHAR Phi
ENCODING 934
SWIDTH 769 0
DWIDTH 6 0
BBX 6 6 0 0
BITMAP
0500
2F80
AA60
A670
7FD0
0A00
ENDCHAR
STARTCHAR Chi
ENCODING 935
SWIDTH 635 0
DWIDTH 5 0
BBX 5 6 0 0
BITMAP
5180
7740
2E00
1E00
3700
A280
ENDCHAR
STARTCHAR Psi
ENCODING 936
SWIDTH 726 0
DWIDTH 6 0
BBX 6 6 0 0
BITMAP
9550
9AA0
9AA0
7ED0
1A00
0A00
ENDCHAR
STARTCHAR uni03A9
ENCODING 937
SWIDTH 671 0
DWIDTH 5 0
BBX 5 6 0 0
BITMAP
1A00
7680
A1C0
6180
3240
BB80
ENDCHAR
STARTCHAR Iotadieresis
ENCODING 938
SWIDTH 291 0
DWIDTH 2 0
BBX 4 7 -1 0
BITMAP
65
18
18
18
18
18
18
ENDCHAR
STARTCHAR Upsilondieresis
ENCODING 939
SWIDTH 618 0
DWIDTH 5 0
BBX 5 7 0 0
BITMAP
2200
9180
7340
3A00
1D00
0C00
0C00
ENDCHAR
STARTCHAR alphatonos
ENCODING 940
SWIDTH 563 0
DWIDTH 5 0
BBX 5 7 0 0
BITMAP
0400
0800
1500
7B00
9300
A300
7B40
ENDCHAR
STARTCHAR epsilontonos
ENCODING 941
SWIDTH 556 0
DWIDTH 4 0
BBX 4 7 0 0
BITMAP
04
08
14
7B
78
65
7E
ENDCHAR
STARTCHAR etatonos
ENCODING 942
SWIDTH 564 0
DWIDTH 5 0
BBX 4 9 0 -2
BITMAP
04
08
04
BB
A3
A3
A3
03
02
ENDCHAR
STARTCHAR iotatonos
ENCODING 943
SWIDTH 336 0
DWIDTH 3 0
BBX 3 7 0 0
BITMAP
10
20
10
60
60
60
74
ENDCHAR
STARTCHAR upsilondieresistonos
ENCODING 944
SWIDTH 545 0
DWIDTH 4 0
BBX 4 7 0 0
BITMAP
08
56
11
A7
A3
A7
7D
ENDCHAR
STARTCHAR alpha
ENCODING 945
SWIDTH 563 0
DWIDTH 5 0
BBX 5 5 0 0
BITMAP
1100
7B00
9300
A300
7B40
ENDCHAR
STARTCHAR beta
ENCODING 946
SWIDTH 601 0
DWIDTH 5 0
BBX 5 8 0 -2
BITMAP
1900
7740
6700
6740
6240
7F40
6000
5000
ENDCHAR
STARTCHAR gamma
ENCODING 947
SWIDTH 510 0
DWIDTH 4 0
BBX 4 7 0 -2
BITMAP
41
96
69
3C
28
28
14
ENDCHAR
STARTCHAR delta
ENCODING 948
SWIDTH 564 0
DWIDTH 5 0
BBX 5 6 0 0
BITMAP
3900
3400
2A00
9340
A340
7E00
ENDCHAR
STARTCHAR epsilon
ENCODING 949
SWIDTH 556 0
DWIDTH 4 0
BBX 4 5 0 0
BITMAP
04
7B
78
65
7E
ENDCHAR
STARTCHAR zeta
ENCODING 950
SWIDTH 500 0
DWIDTH 4 0
BBX 4 8 0 -2
BITMAP
6A
1D
24
60
60
39
0A
04
ENDCHAR
STARTCHAR eta
ENCODING 951
SWIDTH 564 0
DWIDTH 5 0
BBX 4 7 0 -2
BITMAP
04
BB
A3
A3
A3
03
02
ENDCHAR
STARTCHAR theta
ENCODING 952
SWIDTH 589 0
DWIDTH 5 0
BBX 5 6 0 0
BITMAP
2900
6700
A740
AB40
6300
2E00
ENDCHAR
STARTCHAR iota
ENCODING 953
SWIDTH 336 0
DWIDTH 3 0
BBX 3 4 0 0
BITMAP
60
60
60
74
ENDCHAR
STARTCHAR kappa
ENCODING 954
SWIDTH 589 0
DWIDTH 5 0
BBX 5 5 0 0
BITMAP
0100
6700
7D00
6E00
6740
ENDCHAR
STARTCHAR lambda
ENCODING 955
SWIDTH 548 0
DWIDTH 4 0
BBX 5 6 0 0
BITMAP
7000
2800
2C00
3D00
6600
9340
ENDCHAR
STARTCHAR uni03BC
ENCODING 956
SWIDTH 615 0
DWIDTH 5 0
BBX 5 7 0 -2
BITMAP
0100
6240
6240
6340
7F40
6000
5000
ENDCHAR
STARTCHAR nu
ENCODING 957
SWIDTH 505 0
DWIDTH 4 0
BBX 4 5 0 0
BITMAP
41
96
69
3C
28
ENDCHAR
STARTCHAR xi
ENCODING 958
SWIDTH 529 0
DWIDTH 4 0
BBX 4 8 0 -2
BITMAP
19
74
29
64
A0
2D
07
01
ENDCHAR
STARTCHAR omicron
ENCODING 959
SWIDTH 565 0
DWIDTH 5 0
BBX 5 5 0 0
BITMAP
0400
7A00
9340
A300
7E00
ENDCHAR
STARTCHAR pi
ENCODING 960
SWIDTH 643 0
DWIDTH 5 0
BBX 5 5 0 0
BITMAP
5540
BB80
3340
3340
32C0
ENDCHAR
STARTCHAR rho
ENCODING 961
SWIDTH 564 0
DWIDTH 5 0
BBX 5 7 0 -2
BITMAP
0400
7A00
A340
A340
BE00
A000
5000
ENDCHAR
STARTCHAR sigma1
ENCODING 962
SWIDTH 514 0
DWIDTH 4 0
BBX 4 7 0 -2
BITMAP
04
7A
91
A0
2D
09
04
ENDCHAR
STARTCHAR sigma
ENCODING 963
SWIDTH 572 0
DWIDTH 5 0
BBX 5 5 0 0
BITMAP
0500
7B40
9300
A300
7E00
ENDCHAR
STARTCHAR tau
ENCODING 964
SWIDTH 520 0
DWIDTH 4 0
BBX 4 5 0 0
BITMAP
55
BE
28
28
1D
ENDCHAR
STARTCHAR upsilon
ENCODING 965
SWIDTH 545 0
DWIDTH 4 0
BBX 4 4 0 0
BITMAP
A7
A3
A7
7D
ENDCHAR
STARTCHAR phi
ENCODING 966
SWIDTH 745 0
DWIDTH 6 0
BBX 6 7 0 -2
BITMAP
0100
67D0
9AA0
AAA0
2F80
0A00
0900
ENDCHAR
STARTCHAR chi
ENCODING 967
SWIDTH 508 0
DWIDTH 4 0
BBX 4 7 0 -2
BITMAP
41
B7
2D
1C
2D
76
52
ENDCHAR
STARTCHAR psi
ENCODING 968
SWIDTH 744 0
DWIDTH 6 0
BBX 6 7 0 -2
BITMAP
4040
9A90
9A60
AAA0
2F80
0A00
0900
ENDCHAR
STARTCHAR omega
ENCODING 969
SWIDTH 820 0
DWIDTH 7 0
BBX 7 5 0 0
BITMAP
1010
6130
A734
A730
7EE0
ENDCHAR
STARTCHAR iotadieresis
ENCODING 970
SWIDTH 336 0
DWIDTH 3 0
BBX 3 6 0 0
BITMAP
54
50
60
60
60
74
ENDCHAR
STARTCHAR upsilondieresis
ENCODING 971
SWIDTH 545 0
DWIDTH 4 0
BBX 4 6 0 0
BITMAP
25
11
A7
A3
A7
7D
ENDCHAR
STARTCHAR omicrontonos
ENCODING 972
SWIDTH 565 0
DWIDTH 5 0
BBX 5 7 0 0
BITMAP
0400
0800
0400
7A00
9340
A300
7E00
ENDCHAR
STARTCHAR upsilontonos
ENCODING 973
SWIDTH 545 0
DWIDTH 4 0
BBX 4 7 0 0
BITMAP
04
08
00
A7
A3
A7
7D
ENDCHAR
STARTCHAR omegatonos
ENCODING 974
SWIDTH 820 0
DWIDTH 7 0
BBX 7 7 0 0
BITMAP
0100
0200
1010
6130
A734
A730
7EE0
ENDCHAR
STARTCHAR theta1
ENCODING 977
SWIDTH 595 0
DWIDTH 5 0
BBX 5 6 0 0
BITMAP
0A00
2B40
2B40
5B80
6340
3E00
ENDCHAR
STARTCHAR Upsilon1
ENCODING 978
SWIDTH 590 0
DWIDTH 5 0
BBX 5 6 0 0
BITMAP
9180
6340
3A00
1D00
1C00
1C00
ENDCHAR
STARTCHAR omega1
ENCODING 982
SWIDTH 827 0
DWIDTH 7 0
BBX 7 5 0 0
BITMAP
5550
BAB4
A634
A734
7EE0
ENDCHAR
STARTCHAR uni0400
ENCODING 1024
SWIDTH 562 0
DWIDTH 5 0
BBX 5 8 0 0
BITMAP
1000
1800
6A40
6500
6500
7900
6000
7F40
ENDCHAR
STARTCHAR uni0401
ENCODING 1025
SWIDTH 562 0
DWIDTH 5 0
BBX 5 7 0 0
BITMAP
2200
6A40
6500
6500
7900
6000
7F40
ENDCHAR
STARTCHAR uni0402
ENCODING 1026
SWIDTH 747 0
DWIDTH 6 0
BBX 6 6 0 0
BITMAP
AA40
6900
1940
1EE0
18A0
19D0
ENDCHAR
STARTCHAR uni0403
ENCODING 1027
SWIDTH 557 0
DWIDTH 4 0
BBX 4 7 0 0
BITMAP
09
6A
65
60
60
60
60
ENDCHAR
STARTCHAR uni0404
ENCODING 1028
SWIDTH 659 0
DWIDTH 5 0
BBX 5 6 0 0
BITMAP
1A00
7680
A440
A800
6180
2F40
ENDCHAR
STARTCHAR uni0405
ENCODING 1029
SWIDTH 614 0
DWIDTH 5 0
BBX 5 6 0 0
BITMAP
2A00
6680
7400
1B40
9280
6F40
ENDCHAR
STARTCHAR uni0406
ENCODING 1030
SWIDTH 291 0
DWIDTH 2 0
BBX 2 6 0 0
BITMAP
60
60
60
60
60
60
ENDCHAR
STARTCHAR uni0407
ENCODING 1031
SWIDTH 291 0
DWIDTH 2 0
BBX 4 7 -1 0
BITMAP
65
18
18
18
18
18
18
ENDCHAR
STARTCHAR uni0408
ENCODING 1032
SWIDTH 558 0
DWIDTH 4 0
BBX 4 6 0 0
BITMAP
02
07
07
07
97
7D
ENDCHAR
STARTCHAR uni0409
ENCODING 1033
SWIDTH 1057 0
DWIDTH 8 0
BBX 8 6 0 0
BITMAP
1A80
29C0
24E9
24D7
34C3
A0FE
ENDCHAR
STARTCHAR uni040A
ENCODING 1034
SWIDTH 1058 0
DWIDTH 8 0
BBX 8 6 0 0
BITMAP
5080
60C0
65E9
7AD7
60C3
60FE
ENDCHAR
STARTCHAR uni040B
ENCODING 1035
SWIDTH 771 0
DWIDTH 6 0
BBX 6 6 0 0
BITMAP
AA40
6900
2E40
29A0
2860
2860
ENDCHAR
STARTCHAR uni040C
ENCODING 1036
SWIDTH 634 0
DWIDTH 5 0
BBX 5 7 0 0
BITMAP
0900
5180
6740
6D00
7D00
6740
6280
ENDCHAR
STARTCHAR uni040D
ENCODING 1037
SWIDTH 700 0
DWIDTH 6 0
BBX 5 7 0 0
BITMAP
0800
5180
A2C0
A6C0
ADC0
B8C0
B0C0
ENDCHAR
STARTCHAR uni040E
ENCODING 1038
SWIDTH 631 0
DWIDTH 5 0
BBX 5 7 0 0
BITMAP
1A00
5180
7240
2B00
1E00
0C00
3800
ENDCHAR
STARTCHAR uni040F
ENCODING 1039
SWIDTH 700 0
DWIDTH 6 0
BBX 5 8 0 -2
BITMAP
5080
A0C0
A0C0
A0C0
A0C0
BFC0
0900
0400
ENDCHAR
STARTCHAR uni0410
ENCODING 1040
SWIDTH 672 0
DWIDTH 5 0
BBX 6 6 0 0
BITMAP
0900
1E00
2B00
3640
7B80
90D0
ENDCHAR
STARTCHAR uni0411
ENCODING 1041
SWIDTH 626 0
DWIDTH 5 0
BBX 5 6 0 0
BITMAP
6A00
A500
B900
A680
A280
BE40
ENDCHAR
STARTCHAR uni0412
ENCODING 1042
SWIDTH 638 0
DWIDTH 5 0
BBX 5 6 0 0
BITMAP
6A00
6680
6640
7B40
6280
7F40
ENDCHAR
STARTCHAR uni0413
ENCODING 1043
SWIDTH 557 0
DWIDTH 4 0
BBX 4 6 0 0
BITMAP
6A
65
60
60
60
60
ENDCHAR
STARTCHAR uni0414
ENCODING 1044
SWIDTH 747 0
DWIDTH 6 0
BBX 6 8 0 -2
BITMAP
1A80
29D0
28D0
24D0
30D0
FFE0
D060
4010
ENDCHAR
STARTCHAR uni0415
ENCODING 1045
SWIDTH 562 0
DWIDTH 5 0
BBX 5 6 0 0
BITMAP
6A40
6500
6500
7900
6000
7F40
ENDCHAR
STARTCHAR uni0416
ENCODING 1046
SWIDTH 997 0
DWIDTH 8 0
BBX 8 6 0 0
BITMAP
6149
369C
1AA8
1FF8
369C
A28A
ENDCHAR
STARTCHAR uni0417
ENCODING 1047
SWIDTH 616 0
DWIDTH 5 0
BBX 5 6 0 0
BITMAP
2A00
6740
0740
0B40
5280
7F00
ENDCHAR
STARTCHAR uni0418
ENCODING 1048
SWIDTH 700 0
DWIDTH 6 0
BBX 5 6 0 0
BITMAP
5180
A2C0
A6C0
ADC0
B8C0
B0C0
ENDCHAR
STARTCHAR uni0419
ENCODING 1049
SWIDTH 700 0
DWIDTH 6 0
BBX 5 7 0 0
BITMAP
1A00
5180
A2C0
A6C0
ADC0
B8C0
B0C0
ENDCHAR
STARTCHAR uni041A
ENCODING 1050
SWIDTH 645 0
DWIDTH 5 0
BBX 5 6 0 0
BITMAP
5180
6340
6A00
7E00
6340
61C0
ENDCHAR
STARTCHAR uni041B
ENCODING 1051
SWIDTH 706 0
DWIDTH 6 0
BBX 5 6 0 0
BITMAP
1A80
29C0
24C0
24C0
34C0
A0C0
ENDCHAR
STARTCHAR uni041C
ENCODING 1052
SWIDTH 875 0
DWIDTH 7 0
BBX 7 6 0 0
BITMAP
6024
7478
68A8
69A8
6768
6328
ENDCHAR
STARTCHAR uni041D
ENCODING 1053
SWIDTH 706 0
DWIDTH 6 0
BBX 5 6 0 0
BITMAP
5080
60C0
65C0
7AC0
60C0
60C0
ENDCHAR
STARTCHAR uni041E
ENCODING 1054
SWIDTH 690 0
DWIDTH 6 0
BBX 5 6 0 0
BITMAP
1A00
7680
A0C0
A0C0
61C0
2F40
ENDCHAR
STARTCHAR uni041F
ENCODING 1055
SWIDTH 707 0
DWIDTH 6 0
BBX 5 6 0 0
BITMAP
6A80
65C0
60C0
60C0
60C0
60C0
ENDCHAR
STARTCHAR uni0420
ENCODING 1056
SWIDTH 645 0
DWIDTH 5 0
BBX 5 6 0 0
BITMAP
6A00
6680
6180
7F40
6000
6000
ENDCHAR
STARTCHAR uni0421
ENCODING 1057
SWIDTH 654 0
DWIDTH 5 0
BBX 5 6 0 0
BITMAP
1A00
7680
A040
A000
6180
2F40
ENDCHAR
STARTCHAR uni0422
ENCODING 1058
SWIDTH 618 0
DWIDTH 5 0
BBX 5 6 0 0
BITMAP
AA80
5D40
0C00
0C00
0C00
0C00
ENDCHAR
STARTCHAR uni0423
ENCODING 1059
SWIDTH 631 0
DWIDTH 5 0
BBX 5 6 0 0
BITMAP
5180
7240
2B00
1E00
0C00
3800
ENDCHAR
STARTCHAR uni0424
ENCODING 1060
SWIDTH 816 0
DWIDTH 7 0
BBX 7 7 0 -1
BITMAP
0600
3FE0
A730
9734
7BA0
1B40
0100
ENDCHAR
STARTCHAR uni0425
ENCODING 1061
SWIDTH 635 0
DWIDTH 5 0
BBX 5 6 0 0
BITMAP
5180
7740
2E00
1E00
3700
A280
ENDCHAR
STARTCHAR uni0426
ENCODING 1062
SWIDTH 758 0
DWIDTH 6 0
BBX 6 8 0 -2
BITMAP
5080
A0C0
A0C0
A0C0
A0C0
BFE0
0060
0010
ENDCHAR
STARTCHAR uni0427
ENCODING 1063
SWIDTH 695 0
DWIDTH 6 0
BBX 5 6 0 0
BITMAP
5080
60C0
61C0
2FC0
00C0
00C0
ENDCHAR
STARTCHAR uni0428
ENCODING 1064
SWIDTH 958 0
DWIDTH 8 0
BBX 8 6 0 0
BITMAP
5248
A24D
A24D
A24D
A24D
BFFD
ENDCHAR
STARTCHAR uni0429
ENCODING 1065
SWIDTH 1020 0
DWIDTH 8 0
BBX 8 8 0 -2
BITMAP
5248
A24D
A24D
A24D
A24D
BFFF
0007
0001
ENDCHAR
STARTCHAR uni042A
ENCODING 1066
SWIDTH 770 0
DWIDTH 6 0
BBX 6 6 0 0
BITMAP
A800
5800
1E80
1DA0
1870
1FD0
ENDCHAR
STARTCHAR uni042B
ENCODING 1067
SWIDTH 871 0
DWIDTH 7 0
BBX 7 6 0 0
BITMAP
5014
6024
7924
66A4
62A4
7E64
ENDCHAR
STARTCHAR uni042C
ENCODING 1068
SWIDTH 625 0
DWIDTH 5 0
BBX 5 6 0 0
BITMAP
5000
A000
B900
A680
A280
BE40
ENDCHAR
STARTCHAR uni042D
ENCODING 1069
SWIDTH 650 0
DWIDTH 5 0
BBX 5 6 0 0
BITMAP
2A00
A680
46C0
0AC0
A280
3E00
ENDCHAR
STARTCHAR uni042E
ENCODING 1070
SWIDTH 943 0
DWIDTH 8 0
BBX 8 6 0 0
BITMAP
61A0
6768
6A0C
7E0D
661C
62F4
ENDCHAR
STARTCHAR uni042F
ENCODING 1071
SWIDTH 596 0
DWIDTH 5 0
BBX 5 6 0 0
BITMAP
2A40
A740
A340
3F40
7340
D340
ENDCHAR
STARTCHAR uni0430
ENCODING 1072
SWIDTH 536 0
DWIDTH 4 0
BBX 4 5 0 0
BITMAP
14
7A
2B
A7
7B
ENDCHAR
STARTCHAR uni0431
ENCODING 1073
SWIDTH 569 0
DWIDTH 5 0
BBX 5 6 0 0
BITMAP
1A00
6400
BE00
A340
A340
3E00
ENDCHAR
STARTCHAR uni0432
ENCODING 1074
SWIDTH 565 0
DWIDTH 5 0
BBX 5 5 0 0
BITMAP
1400
7B00
6A00
6740
7E00
ENDCHAR
STARTCHAR uni0433
ENCODING 1075
SWIDTH 418 0
DWIDTH 3 0
BBX 4 5 0 0
BITMAP
14
B9
A0
A0
A0
ENDCHAR
STARTCHAR uni0434
ENCODING 1076
SWIDTH 631 0
DWIDTH 5 0
BBX 5 7 0 -2
BITMAP
1500
2B40
3640
3240
FFC0
D1C0
4040
ENDCHAR
STARTCHAR uni0435
ENCODING 1077
SWIDTH 540 0
DWIDTH 4 0
BBX 4 5 0 0
BITMAP
04
7A
AB
A5
3E
ENDCHAR
STARTCHAR uni0436
ENCODING 1078
SWIDTH 854 0
DWIDTH 7 0
BBX 7 5 0 0
BITMAP
4110
7734
2BA0
3BA0
A334
ENDCHAR
STARTCHAR uni0437
ENCODING 1079
SWIDTH 513 0
DWIDTH 4 0
BBX 4 5 0 0
BITMAP
14
6A
19
5A
7E
ENDCHAR
STARTCHAR uni0438
ENCODING 1080
SWIDTH 567 0
DWIDTH 5 0
BBX 4 5 0 0
BITMAP
01
A7
AB
B7
A3
ENDCHAR
STARTCHAR uni0439
ENCODING 1081
SWIDTH 567 0
DWIDTH 5 0
BBX 4 6 0 0
BITMAP
29
15
A7
AB
B7
A3
ENDCHAR
STARTCHAR uni043A
ENCODING 1082
SWIDTH 563 0
DWIDTH 5 0
BBX 5 5 0 0
BITMAP
0100
6700
7D00
6D00
6740
ENDCHAR
STARTCHAR uni043B
ENCODING 1083
SWIDTH 568 0
DWIDTH 5 0
BBX 4 5 0 0
BITMAP
15
3B
33
73
D3
ENDCHAR
STARTCHAR uni043C
ENCODING 1084
SWIDTH 759 0
DWIDTH 6 0
BBX 6 5 0 0
BITMAP
1040
75E0
7AE0
6FA0
6AA0
ENDCHAR
STARTCHAR uni043D
ENCODING 1085
SWIDTH 567 0
DWIDTH 5 0
BBX 4 5 0 0
BITMAP
01
A3
AB
A7
A3
ENDCHAR
STARTCHAR uni043E
ENCODING 1086
SWIDTH 565 0
DWIDTH 5 0
BBX 5 5 0 0
BITMAP
0400
7A00
9340
A300
7E00
ENDCHAR
STARTCHAR uni043F
ENCODING 1087
SWIDTH 567 0
DWIDTH 5 0
BBX 4 5 0 0
BITMAP
15
BB
A3
A3
A3
ENDCHAR
STARTCHAR uni0440
ENCODING 1088
SWIDTH 562 0
DWIDTH 5 0
BBX 5 7 0 -2
BITMAP
0400
BB00
A340
A300
BE00
A000
5000
ENDCHAR
STARTCHAR uni0441
ENCODING 1089
SWIDTH 521 0
DWIDTH 4 0
BBX 4 5 0 0
BITMAP
04
7A
91
91
7D
ENDCHAR
STARTCHAR uni0442
ENCODING 1090
SWIDTH 509 0
DWIDTH 4 0
BBX 4 5 0 0
BITMAP
55
BE
28
28
28
ENDCHAR
STARTCHAR uni0443
ENCODING 1091
SWIDTH 501 0
DWIDTH 4 0
BBX 4 7 0 -2
BITMAP
41
96
69
3C
28
24
60
ENDCHAR
STARTCHAR uni0444
ENCODING 1092
SWIDTH 730 0
DWIDTH 6 0
BBX 6 8 0 -2
BITMAP
0900
1A40
7ED0
99A0
99A0
7FC0
0900
0500
ENDCHAR
STARTCHAR uni0445
ENCODING 1093
SWIDTH 508 0
DWIDTH 4 0
BBX 4 5 0 0
BITMAP
41
6A
3C
3C
A6
ENDCHAR
STARTCHAR uni0446
ENCODING 1094
SWIDTH 609 0
DWIDTH 5 0
BBX 5 7 0 -2
BITMAP
0100
A300
A300
A300
BF80
0180
0040
ENDCHAR
STARTCHAR uni0447
ENCODING 1095
SWIDTH 553 0
DWIDTH 4 0
BBX 4 5 0 0
BITMAP
01
93
A7
2B
03
ENDCHAR
STARTCHAR uni0448
ENCODING 1096
SWIDTH 827 0
DWIDTH 7 0
BBX 6 5 0 0
BITMAP
0110
A730
A730
A730
BFF0
ENDCHAR
STARTCHAR uni0449
ENCODING 1097
SWIDTH 899 0
DWIDTH 7 0
BBX 7 7 0 -2
BITMAP
0110
A730
A730
A730
BFFC
000C
0004
ENDCHAR
STARTCHAR uni044A
ENCODING 1098
SWIDTH 655 0
DWIDTH 5 0
BBX 5 5 0 0
BITMAP
5000
B400
2F80
24C0
2F80
ENDCHAR
STARTCHAR uni044B
ENCODING 1099
SWIDTH 827 0
DWIDTH 7 0
BBX 6 5 0 0
BITMAP
0010
6030
7E30
6370
7E30
ENDCHAR
STARTCHAR uni044C
ENCODING 1100
SWIDTH 558 0
DWIDTH 4 0
BBX 5 4 0 0
BITMAP
6000
7E00
6340
7E00
ENDCHAR
STARTCHAR uni044D
ENCODING 1101
SWIDTH 520 0
DWIDTH 4 0
BBX 4 5 0 0
BITMAP
14
6D
5B
56
7D
ENDCHAR
STARTCHAR uni044E
ENCODING 1102
SWIDTH 811 0
DWIDTH 7 0
BBX 7 5 0 0
BITMAP
0040
67A0
7D34
6930
67E0
ENDCHAR
STARTCHAR uni044F
ENCODING 1103
SWIDTH 559 0
DWIDTH 4 0
BBX 4 5 0 0
BITMAP
05
7B
A7
3B
A7
ENDCHAR
STARTCHAR uni0450
ENCODING 1104
SWIDTH 540 0
DWIDTH 4 0
BBX 4 6 0 0
BITMAP
24
14
7A
AB
A5
3E
ENDCHAR
STARTCHAR uni0451
ENCODING 1105
SWIDTH 540 0
DWIDTH 4 0
BBX 4 6 0 0
BITMAP
55
14
7A
AB
A5
3E
ENDCHAR
STARTCHAR uni0452
ENCODING 1106
SWIDTH 559 0
DWIDTH 4 0
BBX 4 8 0 -2
BITMAP
A4
A4
BB
A3
A3
A3
07
09
ENDCHAR
STARTCHAR uni0453
ENCODING 1107
SWIDTH 418 0
DWIDTH 3 0
BBX 4 6 0 0
BITMAP
18
14
B9
A0
A0
A0
ENDCHAR
STARTCHAR uni0454
ENCODING 1108
SWIDTH 520 0
DWIDTH 4 0
BBX 4 5 0 0
BITMAP
04
7A
A5
A5
7D
ENDCHAR
STARTCHAR uni0455
ENCODING 1109
SWIDTH 514 0
DWIDTH 4 0
BBX 4 5 0 0
BITMAP
14
6A
74
5A
7D
ENDCHAR
STARTCHAR uni0456
ENCODING 1110
SWIDTH 265 0
DWIDTH 2 0
BBX 2 6 0 0
BITMAP
50
50
A0
A0
A0
A0
ENDCHAR
STARTCHAR uni0457
ENCODING 1111
SWIDTH 273 0
DWIDTH 2 0
BBX 4 6 -1 0
BITMAP
55
14
18
18
18
18
ENDCHAR
STARTCHAR uni0458
ENCODING 1112
SWIDTH 259 0
DWIDTH 2 0
BBX 3 8 -1 -2
BITMAP
14
14
28
28
28
28
28
60
ENDCHAR
STARTCHAR uni0459
ENCODING 1113
SWIDTH 858 0
DWIDTH 7 0
BBX 7 5 0 0
BITMAP
1500
3B00
33E4
6328
D3F4
ENDCHAR
STARTCHAR uni045A
ENCODING 1114
SWIDTH 861 0
DWIDTH 7 0
BBX 7 5 0 0
BITMAP
0100
A300
ABE4
A728
A3F4
ENDCHAR
STARTCHAR uni045B
ENCODING 1115
SWIDTH 564 0
DWIDTH 5 0
BBX 4 6 0 0
BITMAP
A4
A4
BB
A3
A3
A3
ENDCHAR
STARTCHAR uni045C
ENCODING 1116
SWIDTH 563 0
DWIDTH 5 0
BBX 5 6 0 0
BITMAP
0900
1500
6700
7D00
6D00
6740
ENDCHAR
STARTCHAR uni045D
ENCODING 1117
SWIDTH 567 0
DWIDTH 5 0
BBX 4 6 0 0
BITMAP
24
15
A7
AB
B7
A3
ENDCHAR
STARTCHAR uni045E
ENCODING 1118
SWIDTH 501 0
DWIDTH 4 0
BBX 4 8 0 -2
BITMAP
29
41
96
69
3C
28
24
60
ENDCHAR
STARTCHAR uni045F
ENCODING 1119
SWIDTH 567 0
DWIDTH 5 0
BBX 4 7 0 -2
BITMAP
01
A3
A3
A3
BF
1C
04
ENDCHAR
STARTCHAR uni0460
ENCODING 1120
SWIDTH 946 0
DWIDTH 8 0
BBX 7 6 0 0
BITMAP
5248
A24C
A24C
A24C
635C
3EF8
ENDCHAR
STARTCHAR uni0461
ENCODING 1121
SWIDTH 820 0
DWIDTH 7 0
BBX 7 5 0 0
BITMAP
0110
A734
A734
A734
7EE0
ENDCHAR
STARTCHAR uni0462
ENCODING 1122
SWIDTH 625 0
DWIDTH 5 0
BBX 5 6 0 0
BITMAP
5000
F400
B900
A680
A280
BE40
ENDCHAR
STARTCHAR uni0463
ENCODING 1123
SWIDTH 557 0
DWIDTH 4 0
BBX 5 6 0 0
BITMAP
6000
F400
6000
7E00
6340
7E00
ENDCHAR
STARTCHAR uni0464
ENCODING 1124
SWIDTH 892 0
DWIDTH 7 0
BBX 7 6 0 0
BITMAP
51A0
A768
AA44
BA80
A618
A2F4
ENDCHAR
STARTCHAR uni0465
ENCODING 1125
SWIDTH 754 0
DWIDTH 6 0
BBX 6 5 0 0
BITMAP
0140
A7E0
AE50
AE50
A7D0
ENDCHAR
STARTCHAR uni0466
ENCODING 1126
SWIDTH 660 0
DWIDTH 5 0
BBX 5 6 0 0
BITMAP
0900
1E00
2B00
3B40
6E80
9DC0
ENDCHAR
STARTCHAR uni0467
ENCODING 1127
SWIDTH 559 0
DWIDTH 4 0
BBX 5 5 0 0
BITMAP
0400
2C00
3900
7E00
AB40
ENDCHAR
STARTCHAR uni0468
ENCODING 1128
SWIDTH 935 0
DWIDTH 7 0
BBX 8 6 0 0
BITMAP
6090
61E0
62B4
77B8
7BAC
6A9D
ENDCHAR
STARTCHAR uni0469
ENCODING 1129
SWIDTH 798 0
DWIDTH 6 0
BBX 6 5 0 0
BITMAP
0040
A2C0
A390
BFE0
AEB0
ENDCHAR
STARTCHAR uni046A
ENCODING 1130
SWIDTH 871 0
DWIDTH 7 0
BBX 7 6 0 0
BITMAP
2AA0
1DD0
0AC0
7FF4
A328
A328
ENDCHAR
STARTCHAR uni046B
ENCODING 1131
SWIDTH 733 0
DWIDTH 6 0
BBX 6 5 0 0
BITMAP
1540
2B80
1F40
7AD0
AA90
ENDCHAR
STARTCHAR uni046C
ENCODING 1132
SWIDTH 1162 0
DWIDTH 9 0
BBX 9 6 0 0
BITMAP
61AA00
60EA00
60AD00
7BFF40
6725C0
6725C0
ENDCHAR
STARTCHAR uni046D
ENCODING 1133
SWIDTH 1005 0
DWIDTH 8 0
BBX 8 5 0 0
BITMAP
0154
62E8
65F4
6BBD
666A
ENDCHAR
STARTCHAR uni046E
ENCODING 1134
SWIDTH 513 0
DWIDTH 4 0
BBX 4 10 0 -2
BITMAP
54
14
68
19
1D
29
0A
BD
D0
50
ENDCHAR
STARTCHAR uni046F
ENCODING 1135
SWIDTH 503 0
DWIDTH 4 0
BBX 4 8 0 -2
BITMAP
68
10
6D
1D
19
6D
90
50
ENDCHAR
STARTCHAR uni0470
ENCODING 1136
SWIDTH 726 0
DWIDTH 6 0
BBX 6 6 0 0
BITMAP
9550
9AA0
9AA0
7ED0
1A00
0A00
ENDCHAR
STARTCHAR uni0471
ENCODING 1137
SWIDTH 744 0
DWIDTH 6 0
BBX 6 7 0 -2
BITMAP
4040
9A90
9A60
AAA0
2F80
0A00
0900
ENDCHAR
STARTCHAR uni0472
ENCODING 1138
SWIDTH 687 0
DWIDTH 6 0
BBX 6 6 0 0
BITMAP
1A00
7680
A5C0
AAD0
61C0
2F40
ENDCHAR
STARTCHAR uni0473
ENCODING 1139
SWIDTH 564 0
DWIDTH 5 0
BBX 5 5 0 0
BITMAP
0400
7A00
A740
A700
7E00
ENDCHAR
STARTCHAR uni0474
ENCODING 1140
SWIDTH 642 0
DWIDTH 5 0
BBX 5 6 0 0
BITMAP
9080
A280
7240
3700
2E00
1D00
ENDCHAR
STARTCHAR uni0475
ENCODING 1141
SWIDTH 510 0
DWIDTH 4 0
BBX 4 5 0 0
BITMAP
41
97
69
3C
28
ENDCHAR
STARTCHAR uni0476
ENCODING 1142
SWIDTH 642 0
DWIDTH 5 0
BBX 5 7 0 0
BITMAP
6900
9080
A280
7240
3700
2E00
1D00
ENDCHAR
STARTCHAR uni0477
ENCODING 1143
SWIDTH 510 0
DWIDTH 4 0
BBX 4 6 0 0
BITMAP
A8
51
97
69
3C
28
ENDCHAR
STARTCHAR uni0478
ENCODING 1144
SWIDTH 1192 0
DWIDTH 10 0
BBX 10 8 0 -2
BITMAP
1A0000
768400
A0DCD0
A0CDC0
61CB80
2F4340
000700
000900
ENDCHAR
STARTCHAR uni0479
ENCODING 1145
SWIDTH 1067 0
DWIDTH 9 0
BBX 9 7 0 -2
BITMAP
041000
7A7340
937700
A32E00
7E0D00
001C00
002400
ENDCHAR
STARTCHAR uni047A
ENCODING 1146
SWIDTH 687 0
DWIDTH 6 0
BBX 5 7 0 -1
BITMAP
1E00
7A80
A0C0
A0C0
65C0
2F40
0400
ENDCHAR
STARTCHAR uni047B
ENCODING 1147
SWIDTH 564 0
DWIDTH 5 0
BBX 5 6 0 -1
BITMAP
1800
7E00
9340
A740
7E00
0400
ENDCHAR
STARTCHAR uni047C
ENCODING 1148
SWIDTH 946 0
DWIDTH 8 0
BBX 7 7 0 0
BITMAP
0690
1520
702C
A01C
A25C
635C
3EF4
ENDCHAR
STARTCHAR uni047D
ENCODING 1149
SWIDTH 808 0
DWIDTH 6 0
BBX 6 6 0 0
BITMAP
0640
0640
74A0
A130
A670
7EE0
ENDCHAR
STARTCHAR uni047E
ENCODING 1150
SWIDTH 946 0
DWIDTH 8 0
BBX 7 7 0 0
BITMAP
0650
5248
A24C
A24C
A24C
635C
3EF8
ENDCHAR
STARTCHAR uni047F
ENCODING 1151
SWIDTH 820 0
DWIDTH 7 0
BBX 7 6 0 0
BITMAP
0A40
0110
A734
A734
A734
7EE0
ENDCHAR
STARTCHAR uni0480
ENCODING 1152
SWIDTH 621 0
DWIDTH 5 0
BBX 5 8 0 -2
BITMAP
1A00
7680
A000
A000
A000
2D00
0D00
0400
ENDCHAR
STARTCHAR uni0481
ENCODING 1153
SWIDTH 534 0
DWIDTH 4 0
BBX 4 7 0 -2
BITMAP
04
7A
A1
A0
3C
0C
04
ENDCHAR
STARTCHAR uni0482
ENCODING 1154
SWIDTH 622 0
DWIDTH 5 0
BBX 5 5 0 0
BITMAP
1600
0A00
5840
2800
2000
ENDCHAR
STARTCHAR uni0483
ENCODING 1155
SWIDTH 0 0
DWIDTH 0 0
BBX 4 2 -4 4
BITMAP
59
40
ENDCHAR
STARTCHAR uni0484
ENCODING 1156
SWIDTH 0 0
DWIDTH 0 0
BBX 4 1 -4 5
BITMAP
69
ENDCHAR
STARTCHAR uni0485
ENCODING 1157
SWIDTH 0 0
DWIDTH 0 0
BBX 2 2 -3 5
BITMAP
40
10
ENDCHAR
STARTCHAR uni0486
ENCODING 1158
SWIDTH 0 0
DWIDTH 0 0
BBX 2 2 -3 5
BITMAP
10
50
ENDCHAR
STARTCHAR uni0488
ENCODING 1160
SWIDTH 0 0
DWIDTH 0 0
BBX 8 7 -6 -1
BITMAP
0140
1014
0000
5005
0000
1014
0140
ENDCHAR
STARTCHAR uni0489
ENCODING 1161
SWIDTH 0 0
DWIDTH 0 0
BBX 8 8 -6 -2
BITMAP
0040
1004
0410
5004
1001
0410
1044
0100
ENDCHAR
STARTCHAR uni048A
ENCODING 1162
SWIDTH 777 0
DWIDTH 6 0
BBX 6 9 0 -2
BITMAP
1A00
5180
A2C0
A6C0
ADC0
B8C0
B0F0
0030
0010
ENDCHAR
STARTCHAR uni048B
ENCODING 1163
SWIDTH 652 0
DWIDTH 5 0
BBX 5 8 0 -2
BITMAP
2900
1500
A700
AB00
B700
A3C0
00C0
0040
ENDCHAR
STARTCHAR uni048C
ENCODING 1164
SWIDTH 625 0
DWIDTH 5 0
BBX 5 6 0 0
BITMAP
5000
F400
B900
A680
A280
BE40
ENDCHAR
STARTCHAR uni048D
ENCODING 1165
SWIDTH 557 0
DWIDTH 4 0
BBX 5 7 0 0
BITMAP
1000
F400
A000
6000
7E00
6340
7E00
ENDCHAR
STARTCHAR uni048E
ENCODING 1166
SWIDTH 628 0
DWIDTH 5 0
BBX 5 6 0 0
BITMAP
6A00
6680
6280
7F80
6000
6000
ENDCHAR
STARTCHAR uni048F
ENCODING 1167
SWIDTH 563 0
DWIDTH 5 0
BBX 5 7 0 -2
BITMAP
0400
BB00
A340
A700
BF00
A000
5000
ENDCHAR
STARTCHAR uni0490
ENCODING 1168
SWIDTH 555 0
DWIDTH 4 0
BBX 5 7 0 0
BITMAP
0340
6B40
A500
A000
A000
A000
A000
ENDCHAR
STARTCHAR uni0491
ENCODING 1169
SWIDTH 461 0
DWIDTH 4 0
BBX 4 6 0 0
BITMAP
05
19
B9
A0
A0
A0
ENDCHAR
STARTCHAR uni0492
ENCODING 1170
SWIDTH 557 0
DWIDTH 4 0
BBX 4 6 0 0
BITMAP
6A
65
A4
A4
60
60
ENDCHAR
STARTCHAR uni0493
ENCODING 1171
SWIDTH 418 0
DWIDTH 3 0
BBX 4 5 0 0
BITMAP
14
B9
A4
A0
A0
ENDCHAR
STARTCHAR uni0494
ENCODING 1172
SWIDTH 622 0
DWIDTH 5 0
BBX 5 7 0 -1
BITMAP
6A00
6500
6400
7B40
6280
6180
0740
ENDCHAR
STARTCHAR uni0495
ENCODING 1173
SWIDTH 528 0
DWIDTH 4 0
BBX 4 6 0 -1
BITMAP
14
B9
A4
AA
A7
09
ENDCHAR
STARTCHAR uni0496
ENCODING 1174
SWIDTH 1068 0
DWIDTH 9 0
BBX 9 8 0 -2
BITMAP
614900
369C00
1AA800
1FF800
369C00
A28B40
000280
000140
ENDCHAR
STARTCHAR uni0497
ENCODING 1175
SWIDTH 908 0
DWIDTH 7 0
BBX 8 7 0 -2
BITMAP
4110
7734
2BA0
3BA0
A33C
000D
0004
ENDCHAR
STARTCHAR uni0498
ENCODING 1176
SWIDTH 616 0
DWIDTH 5 0
BBX 5 8 0 -2
BITMAP
2A00
6740
0740
0B40
5280
7F00
0C00
0C00
ENDCHAR
STARTCHAR uni0499
ENCODING 1177
SWIDTH 513 0
DWIDTH 4 0
BBX 4 7 0 -2
BITMAP
14
6A
19
5A
7E
18
18
ENDCHAR
STARTCHAR uni049A
ENCODING 1178
SWIDTH 743 0
DWIDTH 6 0
BBX 6 8 0 -2
BITMAP
5180
6340
6A00
7E00
6340
61E0
0060
0010
ENDCHAR
STARTCHAR uni049B
ENCODING 1179
SWIDTH 649 0
DWIDTH 5 0
BBX 5 7 0 -2
BITMAP
0100
6700
7D00
6D00
67C0
00C0
0040
ENDCHAR
STARTCHAR uni049C
ENCODING 1180
SWIDTH 661 0
DWIDTH 5 0
BBX 5 6 0 0
BITMAP
5180
A680
AF00
BF00
A680
A1C0
ENDCHAR
STARTCHAR uni049D
ENCODING 1181
SWIDTH 602 0
DWIDTH 5 0
BBX 5 5 0 0
BITMAP
0100
6740
7E00
6F00
6380
ENDCHAR
STARTCHAR uni049E
ENCODING 1182
SWIDTH 655 0
DWIDTH 5 0
BBX 5 6 0 0
BITMAP
6180
B740
7A00
7A00
6340
61C0
ENDCHAR
STARTCHAR uni049F
ENCODING 1183
SWIDTH 544 0
DWIDTH 4 0
BBX 4 6 0 0
BITMAP
A4
A1
6A
7C
69
67
ENDCHAR
STARTCHAR uni04A0
ENCODING 1184
SWIDTH 825 0
DWIDTH 7 0
BBX 7 6 0 0
BITMAP
A824
5DA0
0EC0
0EC0
0DA0
0D34
ENDCHAR
STARTCHAR uni04A1
ENCODING 1185
SWIDTH 715 0
DWIDTH 6 0
BBX 6 5 0 0
BITMAP
5440
ADD0
1F40
1E80
1CD0
ENDCHAR
STARTCHAR uni04A2
ENCODING 1186
SWIDTH 781 0
DWIDTH 6 0
BBX 6 8 0 -2
BITMAP
5080
60C0
65C0
7AC0
60C0
60F0
0030
0010
ENDCHAR
STARTCHAR uni04A3
ENCODING 1187
SWIDTH 648 0
DWIDTH 5 0
BBX 5 7 0 -2
BITMAP
0100
A300
AB00
A700
A3C0
00C0
0040
ENDCHAR
STARTCHAR uni04A4
ENCODING 1188
SWIDTH 984 0
DWIDTH 8 0
BBX 8 6 0 0
BITMAP
50A9
60D4
65C0
7AC0
60C0
60C0
ENDCHAR
STARTCHAR uni04A5
ENCODING 1189
SWIDTH 706 0
DWIDTH 6 0
BBX 6 5 0 0
BITMAP
0140
A390
AB00
A700
A300
ENDCHAR
STARTCHAR uni04A6
ENCODING 1190
SWIDTH 1044 0
DWIDTH 8 0
BBX 8 8 0 -2
BITMAP
6A80
65C0
60D0
60ED
60C3
60C3
000A
0004
ENDCHAR
STARTCHAR uni04A7
ENCODING 1191
SWIDTH 865 0
DWIDTH 7 0
BBX 7 6 0 -1
BITMAP
1500
BB00
A390
A368
A318
0034
ENDCHAR
STARTCHAR uni04A8
ENCODING 1192
SWIDTH 803 0
DWIDTH 6 0
BBX 6 6 0 0
BITMAP
1690
7760
A630
A670
77A0
2FF0
ENDCHAR
STARTCHAR uni04A9
ENCODING 1193
SWIDTH 645 0
DWIDTH 5 0
BBX 5 5 0 0
BITMAP
1100
7B80
A9C0
AA80
2F80
ENDCHAR
STARTCHAR uni04AA
ENCODING 1194
SWIDTH 654 0
DWIDTH 5 0
BBX 5 8 0 -2
BITMAP
1A00
7680
A040
A000
6180
2F40
0D00
0900
ENDCHAR
STARTCHAR uni04AB
ENCODING 1195
SWIDTH 521 0
DWIDTH 4 0
BBX 4 7 0 -2
BITMAP
04
7A
91
91
7D
18
18
ENDCHAR
STARTCHAR uni04AC
ENCODING 1196
SWIDTH 618 0
DWIDTH 5 0
BBX 5 8 0 -2
BITMAP
AA80
5D40
0C00
0C00
0C00
0E00
0600
0100
ENDCHAR
STARTCHAR uni04AD
ENCODING 1197
SWIDTH 509 0
DWIDTH 4 0
BBX 4 7 0 -2
BITMAP
55
BE
28
28
2D
09
05
ENDCHAR
STARTCHAR uni04AE
ENCODING 1198
SWIDTH 618 0
DWIDTH 5 0
BBX 5 6 0 0
BITMAP
9180
7340
3A00
1D00
0C00
0C00
ENDCHAR
STARTCHAR uni04AF
ENCODING 1199
SWIDTH 510 0
DWIDTH 4 0
BBX 4 7 0 -2
BITMAP
41
96
69
3C
28
28
14
ENDCHAR
STARTCHAR uni04B0
ENCODING 1200
SWIDTH 618 0
DWIDTH 5 0
BBX 5 6 0 0
BITMAP
9180
7340
3A00
2E00
0C00
0C00
ENDCHAR
STARTCHAR uni04B1
ENCODING 1201
SWIDTH 510 0
DWIDTH 4 0
BBX 4 7 0 -2
BITMAP
41
96
69
3C
7D
28
14
ENDCHAR
STARTCHAR uni04B2
ENCODING 1202
SWIDTH 666 0
DWIDTH 5 0
BBX 6 8 0 -2
BITMAP
5180
7740
2E00
1E00
3700
A2D0
00D0
0040
ENDCHAR
STARTCHAR uni04B3
ENCODING 1203
SWIDTH 542 0
DWIDTH 4 0
BBX 5 7 0 -2
BITMAP
4100
6A00
3C00
3C00
A740
0340
0100
ENDCHAR
STARTCHAR uni04B4
ENCODING 1204
SWIDTH 895 0
DWIDTH 7 0
BBX 7 8 0 -2
BITMAP
AA20
6930
2830
2830
2830
2FF8
0018
0004
ENDCHAR
STARTCHAR uni04B5
ENCODING 1205
SWIDTH 687 0
DWIDTH 6 0
BBX 6 7 0 -2
BITMAP
5440
B980
3580
3580
3FD0
0090
0040
ENDCHAR
STARTCHAR uni04B6
ENCODING 1206
SWIDTH 767 0
DWIDTH 6 0
BBX 6 8 0 -2
BITMAP
5080
60C0
61C0
2FC0
00C0
00E0
0070
0010
ENDCHAR
STARTCHAR uni04B7
ENCODING 1207
SWIDTH 636 0
DWIDTH 5 0
BBX 5 7 0 -2
BITMAP
0100
9300
A700
2B00
0380
01C0
0040
ENDCHAR
STARTCHAR uni04B8
ENCODING 1208
SWIDTH 680 0
DWIDTH 5 0
BBX 5 6 0 0
BITMAP
5080
A1C0
69C0
2FC0
09C0
01C0
ENDCHAR
STARTCHAR uni04B9
ENCODING 1209
SWIDTH 560 0
DWIDTH 4 0
BBX 4 5 0 0
BITMAP
01
A7
AB
2F
07
ENDCHAR
STARTCHAR uni04BA
ENCODING 1210
SWIDTH 698 0
DWIDTH 6 0
BBX 5 6 0 0
BITMAP
5000
6000
7A00
66C0
60C0
60C0
ENDCHAR
STARTCHAR uni04BB
ENCODING 1211
SWIDTH 559 0
DWIDTH 4 0
BBX 4 6 0 0
BITMAP
A0
A4
BB
A3
A3
A3
ENDCHAR
STARTCHAR uni04BC
ENCODING 1212
SWIDTH 756 0
DWIDTH 6 0
BBX 6 6 0 0
BITMAP
0A40
2990
F9A0
3A90
2800
0BD0
ENDCHAR
STARTCHAR uni04BD
ENCODING 1213
SWIDTH 597 0
DWIDTH 5 0
BBX 5 5 0 0
BITMAP
0400
6B40
BA80
3540
1F40
ENDCHAR
STARTCHAR uni04BE
ENCODING 1214
SWIDTH 756 0
DWIDTH 6 0
BBX 6 8 0 -2
BITMAP
0A40
2990
F9A0
3A90
2800
0BD0
0340
0240
ENDCHAR
STARTCHAR uni04BF
ENCODING 1215
SWIDTH 597 0
DWIDTH 5 0
BBX 5 7 0 -2
BITMAP
0400
6B40
BA80
3540
1F40
0900
0900
ENDCHAR
STARTCHAR uni04C0
ENCODING 1216
SWIDTH 291 0
DWIDTH 2 0
BBX 2 6 0 0
BITMAP
60
60
60
60
60
60
ENDCHAR
STARTCHAR uni04C1
ENCODING 1217
SWIDTH 997 0
DWIDTH 8 0
BBX 8 7 0 0
BITMAP
0280
6149
369C
1AA8
1FF8
369C
A28A
ENDCHAR
STARTCHAR uni04C2
ENCODING 1218
SWIDTH 854 0
DWIDTH 7 0
BBX 7 6 0 0
BITMAP
0A80
4110
7734
2BA0
3BA0
A334
ENDCHAR
STARTCHAR uni04C3
ENCODING 1219
SWIDTH 649 0
DWIDTH 5 0
BBX 5 8 0 -2
BITMAP
5240
A700
AE00
BB40
A1C0
A1C0
0280
0100
ENDCHAR
STARTCHAR uni04C4
ENCODING 1220
SWIDTH 570 0
DWIDTH 5 0
BBX 5 6 0 -1
BITMAP
0100
6700
7D00
6B00
6340
0600
ENDCHAR
STARTCHAR uni04C5
ENCODING 1221
SWIDTH 781 0
DWIDTH 6 0
BBX 6 8 0 -2
BITMAP
1A80
29C0
24C0
24C0
34C0
A0F0
0030
0010
ENDCHAR
STARTCHAR uni04C6
ENCODING 1222
SWIDTH 652 0
DWIDTH 5 0
BBX 5 7 0 -2
BITMAP
1500
3B00
3300
7300
D3C0
00C0
0040
ENDCHAR
STARTCHAR uni04C7
ENCODING 1223
SWIDTH 707 0
DWIDTH 6 0
BBX 5 8 0 -2
BITMAP
5080
60C0
65C0
7AC0
60C0
60C0
01C0
0240
ENDCHAR
STARTCHAR uni04C8
ENCODING 1224
SWIDTH 564 0
DWIDTH 5 0
BBX 4 7 0 -2
BITMAP
01
A3
AB
A7
A3
07
09
ENDCHAR
STARTCHAR uni04C9
ENCODING 1225
SWIDTH 783 0
DWIDTH 6 0
BBX 6 8 0 -2
BITMAP
5080
60C0
65C0
7AC0
60C0
60F0
0030
0010
ENDCHAR
STARTCHAR uni04CA
ENCODING 1226
SWIDTH 650 0
DWIDTH 5 0
BBX 5 7 0 -2
BITMAP
0100
A300
AB00
A700
A3C0
00C0
0040
ENDCHAR
STARTCHAR uni04CB
ENCODING 1227
SWIDTH 695 0
DWIDTH 6 0
BBX 5 8 0 -2
BITMAP
5080
60C0
61C0
2FC0
00C0
03C0
0300
0100
ENDCHAR
STARTCHAR uni04CC
ENCODING 1228
SWIDTH 553 0
DWIDTH 4 0
BBX 4 7 0 -2
BITMAP
01
93
A7
2B
0F
0C
04
ENDCHAR
STARTCHAR uni04CD
ENCODING 1229
SWIDTH 950 0
DWIDTH 8 0
BBX 8 8 0 -2
BITMAP
6024
7478
68A8
69A8
6768
632D
0009
0004
ENDCHAR
STARTCHAR uni04CE
ENCODING 1230
SWIDTH 829 0
DWIDTH 7 0
BBX 7 7 0 -2
BITMAP
1040
75E0
7AE0
6FA0
6AB4
0024
0010
ENDCHAR
STARTCHAR uni04CF
ENCODING 1231
SWIDTH 291 0
DWIDTH 2 0
BBX 2 6 0 0
BITMAP
60
60
60
60
60
60
ENDCHAR
STARTCHAR uni04D0
ENCODING 1232
SWIDTH 672 0
DWIDTH 5 0
BBX 6 7 0 0
BITMAP
1A00
0900
1E00
2B00
3640
7B80
90D0
ENDCHAR
STARTCHAR uni04D1
ENCODING 1233
SWIDTH 536 0
DWIDTH 4 0
BBX 4 6 0 0
BITMAP
29
14
7A
2B
A7
7B
ENDCHAR
STARTCHAR uni04D2
ENCODING 1234
SWIDTH 672 0
DWIDTH 5 0
BBX 6 7 0 0
BITMAP
2200
0900
1E00
2B00
3640
7B80
90D0
ENDCHAR
STARTCHAR uni04D3
ENCODING 1235
SWIDTH 536 0
DWIDTH 4 0
BBX 4 6 0 0
BITMAP
65
14
7A
2B
A7
7B
ENDCHAR
STARTCHAR uni04D4
ENCODING 1236
SWIDTH 939 0
DWIDTH 8 0
BBX 8 6 0 0
BITMAP
02A8
0B94
0DD4
2AE4
7AC0
A1FD
ENDCHAR
STARTCHAR uni04D5
ENCODING 1237
SWIDTH 844 0
DWIDTH 7 0
BBX 7 5 0 0
BITMAP
1440
7BB4
1BA8
A750
7AF4
ENDCHAR
STARTCHAR uni04D6
ENCODING 1238
SWIDTH 562 0
DWIDTH 5 0
BBX 5 7 0 0
BITMAP
2A00
6A40
6500
6500
7900
6000
7F40
ENDCHAR
STARTCHAR uni04D7
ENCODING 1239
SWIDTH 540 0
DWIDTH 4 0
BBX 4 6 0 0
BITMAP
29
14
7A
AB
A5
3E
ENDCHAR
STARTCHAR uni04D8
ENCODING 1240
SWIDTH 694 0
DWIDTH 6 0
BBX 6 6 0 0
BITMAP
2A00
1680
15C0
BAD0
61C0
2F40
ENDCHAR
STARTCHAR uni04D9
ENCODING 1241
SWIDTH 529 0
DWIDTH 4 0
BBX 4 5 0 0
BITMAP
14
6E
5B
AB
7D
ENDCHAR
STARTCHAR uni04DA
ENCODING 1242
SWIDTH 694 0
DWIDTH 6 0
BBX 6 7 0 0
BITMAP
2200
2A00
1680
15C0
BAD0
61C0
2F40
ENDCHAR
STARTCHAR uni04DB
ENCODING 1243
SWIDTH 529 0
DWIDTH 4 0
BBX 4 6 0 0
BITMAP
55
14
6E
5B
AB
7D
ENDCHAR
STARTCHAR uni04DC
ENCODING 1244
SWIDTH 997 0
DWIDTH 8 0
BBX 8 7 0 0
BITMAP
0550
6149
369C
1AA8
1FF8
369C
A28A
ENDCHAR
STARTCHAR uni04DD
ENCODING 1245
SWIDTH 854 0
DWIDTH 7 0
BBX 7 6 0 0
BITMAP
0880
4110
7734
2BA0
3BA0
A334
ENDCHAR
STARTCHAR uni04DE
ENCODING 1246
SWIDTH 616 0
DWIDTH 5 0
BBX 5 7 0 0
BITMAP
2200
2A00
6740
0740
0B40
5280
7F00
ENDCHAR
STARTCHAR uni04DF
ENCODING 1247
SWIDTH 513 0
DWIDTH 4 0
BBX 4 6 0 0
BITMAP
55
14
6A
19
5A
7E
ENDCHAR
STARTCHAR uni04E0
ENCODING 1248
SWIDTH 578 0
DWIDTH 5 0
BBX 5 6 0 0
BITMAP
6A40
1B00
1D00
0700
5340
7E00
ENDCHAR
STARTCHAR uni04E1
ENCODING 1249
SWIDTH 579 0
DWIDTH 5 0
BBX 5 7 0 -2
BITMAP
1500
6B00
0900
1E00
0340
6740
1900
ENDCHAR
STARTCHAR uni04E2
ENCODING 1250
SWIDTH 700 0
DWIDTH 6 0
BBX 5 7 0 0
BITMAP
1A00
5180
A2C0
A6C0
ADC0
B8C0
B0C0
ENDCHAR
STARTCHAR uni04E3
ENCODING 1251
SWIDTH 567 0
DWIDTH 5 0
BBX 4 6 0 0
BITMAP
29
01
A7
AB
B7
A3
ENDCHAR
STARTCHAR uni04E4
ENCODING 1252
SWIDTH 700 0
DWIDTH 6 0
BBX 5 7 0 0
BITMAP
2600
5180
A2C0
A6C0
ADC0
B8C0
B0C0
ENDCHAR
STARTCHAR uni04E5
ENCODING 1253
SWIDTH 567 0
DWIDTH 5 0
BBX 4 6 0 0
BITMAP
22
11
A7
AB
B7
A3
ENDCHAR
STARTCHAR uni04E6
ENCODING 1254
SWIDTH 690 0
DWIDTH 6 0
BBX 5 7 0 0
BITMAP
2600
1A00
7680
A0C0
A0C0
61C0
2F40
ENDCHAR
STARTCHAR uni04E7
ENCODING 1255
SWIDTH 565 0
DWIDTH 5 0
BBX 5 6 0 0
BITMAP
2600
1400
7A00
9340
A300
7E00
ENDCHAR
STARTCHAR uni04E8
ENCODING 1256
SWIDTH 687 0
DWIDTH 6 0
BBX 6 6 0 0
BITMAP
1A00
7680
A5C0
AAD0
61C0
2F40
ENDCHAR
STARTCHAR uni04E9
ENCODING 1257
SWIDTH 564 0
DWIDTH 5 0
BBX 5 5 0 0
BITMAP
0400
7A00
A740
A700
7E00
ENDCHAR
STARTCHAR uni04EA
ENCODING 1258
SWIDTH 687 0
DWIDTH 6 0
BBX 6 7 0 0
BITMAP
1640
1A00
7680
A5C0
AAD0
61C0
2F40
ENDCHAR
STARTCHAR uni04EB
ENCODING 1259
SWIDTH 564 0
DWIDTH 5 0
BBX 5 6 0 0
BITMAP
2500
1400
7A00
A740
A700
7E00
ENDCHAR
STARTCHAR uni04EC
ENCODING 1260
SWIDTH 650 0
DWIDTH 5 0
BBX 5 7 0 0
BITMAP
2200
2A00
A680
46C0
0AC0
A280
3E00
ENDCHAR
STARTCHAR uni04ED
ENCODING 1261
SWIDTH 520 0
DWIDTH 4 0
BBX 4 6 0 0
BITMAP
55
14
6D
5B
56
7D
ENDCHAR
STARTCHAR uni04EE
ENCODING 1262
SWIDTH 631 0
DWIDTH 5 0
BBX 5 7 0 0
BITMAP
1A00
5180
7240
2B00
1E00
0C00
3800
ENDCHAR
STARTCHAR uni04EF
ENCODING 1263
SWIDTH 501 0
DWIDTH 4 0
BBX 4 8 0 -2
BITMAP
69
41
96
69
3C
28
24
60
ENDCHAR
STARTCHAR uni04F0
ENCODING 1264
SWIDTH 631 0
DWIDTH 5 0
BBX 5 7 0 0
BITMAP
2200
5180
7240
2B00
1E00
0C00
3800
ENDCHAR
STARTCHAR uni04F1
ENCODING 1265
SWIDTH 501 0
DWIDTH 4 0
BBX 4 8 0 -2
BITMAP
55
41
96
69
3C
28
24
60
ENDCHAR
STARTCHAR uni04F2
ENCODING 1266
SWIDTH 631 0
DWIDTH 5 0
BBX 5 8 0 0
BITMAP
0400
1A00
5180
7240
2B00
1E00
0C00
3800
ENDCHAR
STARTCHAR uni04F3
ENCODING 1267
SWIDTH 501 0
DWIDTH 4 0
BBX 4 8 0 -2
BITMAP
26
55
96
69
3C
28
24
60
ENDCHAR
STARTCHAR uni04F4
ENCODING 1268
SWIDTH 695 0
DWIDTH 6 0
BBX 5 7 0 0
BITMAP
1540
5080
60C0
61C0
2FC0
00C0
00C0
ENDCHAR
STARTCHAR uni04F5
ENCODING 1269
SWIDTH 553 0
DWIDTH 4 0
BBX 4 6 0 0
BITMAP
26
11
93
A7
2B
03
ENDCHAR
STARTCHAR uni04F6
ENCODING 1270
SWIDTH 557 0
DWIDTH 4 0
BBX 4 8 0 -2
BITMAP
6A
65
60
60
60
74
28
14
ENDCHAR
STARTCHAR uni04F7
ENCODING 1271
SWIDTH 418 0
DWIDTH 3 0
BBX 4 7 0 -2
BITMAP
14
B9
A0
A0
B4
24
14
ENDCHAR
STARTCHAR uni04F8
ENCODING 1272
SWIDTH 871 0
DWIDTH 7 0
BBX 7 7 0 0
BITMAP
0880
5014
6024
7924
66A4
62A4
7E64
ENDCHAR
STARTCHAR uni04F9
ENCODING 1273
SWIDTH 827 0
DWIDTH 7 0
BBX 6 6 0 0
BITMAP
0880
0010
6030
7E30
6370
7E30
ENDCHAR
STARTCHAR uni04FA
ENCODING 1274
SWIDTH 600 0
DWIDTH 5 0
BBX 5 8 0 -2
BITMAP
2A40
3500
7400
7400
3000
3C00
1C00
2400
ENDCHAR
STARTCHAR uni04FB
ENCODING 1275
SWIDTH 458 0
DWIDTH 4 0
BBX 4 7 0 -2
BITMAP
14
79
B8
70
78
28
24
ENDCHAR
STARTCHAR uni04FC
ENCODING 1276
SWIDTH 700 0
DWIDTH 6 0
BBX 6 8 0 -2
BITMAP
5180
7740
2E00
1E00
3700
A2E0
0090
0180
ENDCHAR
STARTCHAR uni04FD
ENCODING 1277
SWIDTH 576 0
DWIDTH 5 0
BBX 5 7 0 -2
BITMAP
4100
6A00
3C00
3D00
A780
0240
0600
ENDCHAR
STARTCHAR uni04FE
ENCODING 1278
SWIDTH 635 0
DWIDTH 5 0
BBX 5 6 0 0
BITMAP
5180
7740
2E00
2E00
3700
A280
ENDCHAR
STARTCHAR uni04FF
ENCODING 1279
SWIDTH 508 0
DWIDTH 4 0
BBX 4 5 0 0
BITMAP
41
6A
7D
3D
A6
ENDCHAR
STARTCHAR uni0500
ENCODING 1280
SWIDTH 625 0
DWIDTH 5 0
BBX 5 6 0 0
BITMAP
0140
0280
2B80
A680
A280
2F80
ENDCHAR
STARTCHAR uni0501
ENCODING 1281
SWIDTH 563 0
DWIDTH 5 0
BBX 4 6 0 0
BITMAP
03
17
7B
93
93
7B
ENDCHAR
STARTCHAR uni0502
ENCODING 1282
SWIDTH 907 0
DWIDTH 7 0
BBX 7 6 0 0
BITMAP
0140
0180
1B94
769C
6198
2FF4
ENDCHAR
STARTCHAR uni0503
ENCODING 1283
SWIDTH 853 0
DWIDTH 7 0
BBX 7 6 0 0
BITMAP
0300
1700
7B14
A324
A324
7AE0
ENDCHAR
STARTCHAR uni0504
ENCODING 1284
SWIDTH 787 0
DWIDTH 6 0
BBX 6 6 0 0
BITMAP
A800
5A00
1A50
2D70
0A60
07D0
ENDCHAR
STARTCHAR uni0505
ENCODING 1285
SWIDTH 642 0
DWIDTH 5 0
BBX 5 5 0 0
BITMAP
5000
A800
68C0
6CC0
0E80
ENDCHAR
STARTCHAR uni0506
ENCODING 1286
SWIDTH 585 0
DWIDTH 5 0
BBX 5 8 0 -2
BITMAP
A400
1D00
1900
6C00
0A00
0740
0240
0100
ENDCHAR
STARTCHAR uni0507
ENCODING 1287
SWIDTH 559 0
DWIDTH 4 0
BBX 5 7 0 -2
BITMAP
1000
6D00
1D00
6D00
0B40
0200
0100
ENDCHAR
STARTCHAR uni0508
ENCODING 1288
SWIDTH 964 0
DWIDTH 8 0
BBX 8 6 0 0
BITMAP
1A80
29C0
24C9
24C9
34C9
A0B8
ENDCHAR
STARTCHAR uni0509
ENCODING 1289
SWIDTH 847 0
DWIDTH 7 0
BBX 7 5 0 0
BITMAP
1500
3B10
3324
3324
A2E0
ENDCHAR
STARTCHAR uni050A
ENCODING 1290
SWIDTH 994 0
DWIDTH 8 0
BBX 8 6 0 0
BITMAP
5080
A0C0
A5C9
BAC9
A0C9
A0B8
ENDCHAR
STARTCHAR uni050B
ENCODING 1291
SWIDTH 825 0
DWIDTH 7 0
BBX 7 5 0 0
BITMAP
0100
A310
AB24
A734
A2E0
ENDCHAR
STARTCHAR uni050C
ENCODING 1292
SWIDTH 633 0
DWIDTH 5 0
BBX 5 6 0 0
BITMAP
1A00
7500
9000
9180
A180
2F40
ENDCHAR
STARTCHAR uni050D
ENCODING 1293
SWIDTH 529 0
DWIDTH 4 0
BBX 4 5 0 0
BITMAP
04
79
A0
A3
3E
ENDCHAR
STARTCHAR uni050E
ENCODING 1294
SWIDTH 705 0
DWIDTH 6 0
BBX 6 6 0 0
BITMAP
AA40
5D00
1C80
1C90
1CD0
0B80
ENDCHAR
STARTCHAR uni050F
ENCODING 1295
SWIDTH 637 0
DWIDTH 5 0
BBX 5 5 0 0
BITMAP
5500
BE00
2980
2980
1F40
ENDCHAR
STARTCHAR uni0510
ENCODING 1296
SWIDTH 655 0
DWIDTH 5 0
BBX 5 6 0 0
BITMAP
2A00
7680
7500
7900
A180
2F40
ENDCHAR
STARTCHAR uni0511
ENCODING 1297
SWIDTH 556 0
DWIDTH 4 0
BBX 4 5 0 0
BITMAP
04
7B
78
65
7E
ENDCHAR
STARTCHAR uni0512
ENCODING 1298
SWIDTH 812 0
DWIDTH 7 0
BBX 7 8 0 -2
BITMAP
1A80
29C0
24C0
24C0
34C0
A0F4
0074
0090
ENDCHAR
STARTCHAR uni0513
ENCODING 1299
SWIDTH 684 0
DWIDTH 5 0
BBX 6 7 0 -2
BITMAP
1500
3B00
3300
7300
D3D0
01D0
0240
ENDCHAR
STARTCHAR uni1E00
ENCODING 7680
SWIDTH 672 0
DWIDTH 5 0
BBX 6 8 0 -2
BITMAP
0900
1E00
2B00
3640
7B80
90D0
0500
0400
ENDCHAR
STARTCHAR uni1E01
ENCODING 7681
SWIDTH 536 0
DWIDTH 4 0
BBX 4 7 0 -2
BITMAP
14
7A
2B
A7
7B
14
10
ENDCHAR
STARTCHAR uni1E3E
ENCODING 7742
SWIDTH 875 0
DWIDTH 7 0
BBX 7 8 0 0
BITMAP
0040
0240
6024
7478
68A8
69A8
6768
6328
ENDCHAR
STARTCHAR uni1E3F
ENCODING 7743
SWIDTH 865 0
DWIDTH 7 0
BBX 7 6 0 0
BITMAP
0280
0510
BBB4
A324
A328
A328
ENDCHAR
STARTCHAR Wgrave
ENCODING 7808
SWIDTH 874 0
DWIDTH 7 0
BBX 7 8 0 0
BITMAP
0400
0600
9218
A768
67A4
39B0
3CF0
28A0
ENDCHAR
STARTCHAR wgrave
ENCODING 7809
SWIDTH 734 0
DWIDTH 6 0
BBX 6 6 0 0
BITMAP
0C00
4510
9A60
6E90
7AC0
3580
ENDCHAR
STARTCHAR Wacute
ENCODING 7810
SWIDTH 874 0
DWIDTH 7 0
BBX 7 8 0 0
BITMAP
0040
0240
9218
A768
67A4
39B0
3CF0
28A0
ENDCHAR
STARTCHAR wacute
ENCODING 7811
SWIDTH 734 0
DWIDTH 6 0
BBX 6 6 0 0
BITMAP
0600
4410
9A60
6E90
7AC0
3580
ENDCHAR
STARTCHAR Wdieresis
ENCODING 7812
SWIDTH 874 0
DWIDTH 7 0
BBX 7 7 0 0
BITMAP
0880
9218
A768
67A4
39B0
3CF0
28A0
ENDCHAR
STARTCHAR wdieresis
ENCODING 7813
SWIDTH 734 0
DWIDTH 6 0
BBX 6 6 0 0
BITMAP
1540
4010
9A60
6E90
7AC0
3580
ENDCHAR
STARTCHAR uni1EA0
ENCODING 7840
SWIDTH 672 0
DWIDTH 5 0
BBX 6 8 0 -2
BITMAP
0900
1E00
2B00
3640
7B80
90D0
0400
0400
ENDCHAR
STARTCHAR uni1EA1
ENCODING 7841
SWIDTH 536 0
DWIDTH 4 0
BBX 4 7 0 -2
BITMAP
14
7A
2B
A7
7B
14
10
ENDCHAR
STARTCHAR uni1EA2
ENCODING 7842
SWIDTH 672 0
DWIDTH 5 0
BBX 6 8 0 0
BITMAP
0500
0900
0900
1E00
2B00
3640
7B80
90D0
ENDCHAR
STARTCHAR uni1EA3
ENCODING 7843
SWIDTH 536 0
DWIDTH 4 0
BBX 4 7 0 0
BITMAP
14
08
14
7A
2B
A7
7B
ENDCHAR
STARTCHAR uni1EA4
ENCODING 7844
SWIDTH 672 0
DWIDTH 5 0
BBX 6 8 0 0
BITMAP
0040
1940
0900
1E00
2B00
3640
7B80
90D0
ENDCHAR
STARTCHAR uni1EA5
ENCODING 7845
SWIDTH 536 0
DWIDTH 4 0
BBX 5 7 0 0
BITMAP
0040
1500
1400
7A00
2B00
A700
7B00
ENDCHAR
STARTCHAR uni1EA6
ENCODING 7846
SWIDTH 672 0
DWIDTH 5 0
BBX 6 8 0 0
BITMAP
4000
1900
0900
1E00
2B00
3640
7B80
90D0
ENDCHAR
STARTCHAR uni1EA7
ENCODING 7847
SWIDTH 536 0
DWIDTH 4 0
BBX 4 7 0 0
BITMAP
40
54
14
7A
2B
A7
7B
ENDCHAR
STARTCHAR uni1EA8
ENCODING 7848
SWIDTH 672 0
DWIDTH 5 0
BBX 6 8 0 0
BITMAP
0080
1A40
0900
1E00
2B00
3640
7B80
90D0
ENDCHAR
STARTCHAR uni1EA9
ENCODING 7849
SWIDTH 536 0
DWIDTH 4 0
BBX 4 7 0 0
BITMAP
01
15
14
7A
2B
A7
7B
ENDCHAR
STARTCHAR uni1EAA
ENCODING 7850
SWIDTH 672 0
DWIDTH 5 0
BBX 6 8 0 0
BITMAP
0500
1900
0900
1E00
2B00
3640
7B80
90D0
ENDCHAR
STARTCHAR uni1EAB
ENCODING 7851
SWIDTH 536 0
DWIDTH 4 0
BBX 4 7 0 0
BITMAP
14
18
14
7A
2B
A7
7B
ENDCHAR
STARTCHAR uni1EAC
ENCODING 7852
SWIDTH 672 0
DWIDTH 5 0
BBX 6 9 0 -2
BITMAP
1A00
0900
1E00
2B00
3640
7B80
90D0
0400
0400
ENDCHAR
STARTCHAR uni1EAD
ENCODING 7853
SWIDTH 536 0
DWIDTH 4 0
BBX 4 8 0 -2
BITMAP
28
14
7A
2B
A7
7B
14
10
ENDCHAR
STARTCHAR uni1EAE
ENCODING 7854
SWIDTH 672 0
DWIDTH 5 0
BBX 6 8 0 0
BITMAP
0500
1A00
0900
1E00
2B00
3640
7B80
90D0
ENDCHAR
STARTCHAR uni1EAF
ENCODING 7855
SWIDTH 536 0
DWIDTH 4 0
BBX 4 7 0 0
BITMAP
04
29
14
7A
2B
A7
7B
ENDCHAR
STARTCHAR uni1EB0
ENCODING 7856
SWIDTH 672 0
DWIDTH 5 0
BBX 6 8 0 0
BITMAP
0400
1A00
0900
1E00
2B00
3640
7B80
90D0
ENDCHAR
STARTCHAR uni1EB1
ENCODING 7857
SWIDTH 536 0
DWIDTH 4 0
BBX 4 7 0 0
BITMAP
10
29
14
7A
2B
A7
7B
ENDCHAR
STARTCHAR uni1EB2
ENCODING 7858
SWIDTH 672 0
DWIDTH 5 0
BBX 6 8 0 0
BITMAP
0900
1A00
0900
1E00
2B00
3640
7B80
90D0
ENDCHAR
STARTCHAR uni1EB3
ENCODING 7859
SWIDTH 536 0
DWIDTH 4 0
BBX 4 7 0 0
BITMAP
18
29
14
7A
2B
A7
7B
ENDCHAR
STARTCHAR uni1EB4
ENCODING 7860
SWIDTH 672 0
DWIDTH 5 0
BBX 6 8 0 0
BITMAP
1900
1A00
0900
1E00
2B00
3640
7B80
90D0
ENDCHAR
STARTCHAR uni1EB5
ENCODING 7861
SWIDTH 536 0
DWIDTH 4 0
BBX 4 7 0 0
BITMAP
28
25
14
7A
2B
A7
7B
ENDCHAR
STARTCHAR uni1EB6
ENCODING 7862
SWIDTH 672 0
DWIDTH 5 0
BBX 6 9 0 -2
BITMAP
1A00
0900
1E00
2B00
3640
7B80
90D0
0400
0400
ENDCHAR
STARTCHAR uni1EB7
ENCODING 7863
SWIDTH 536 0
DWIDTH 4 0
BBX 4 8 0 -2
BITMAP
29
14
7A
2B
A7
7B
14
10
ENDCHAR
STARTCHAR uni1EB8
ENCODING 7864
SWIDTH 562 0
DWIDTH 5 0
BBX 5 8 0 -2
BITMAP
6A40
6500
6500
7900
6000
7F40
0800
0400
ENDCHAR
STARTCHAR uni1EB9
ENCODING 7865
SWIDTH 540 0
DWIDTH 4 0
BBX 4 7 0 -2
BITMAP
04
7A
AB
A5
3E
04
04
ENDCHAR
STARTCHAR uni1EBA
ENCODING 7866
SWIDTH 562 0
DWIDTH 5 0
BBX 5 8 0 0
BITMAP
0900
0900
6A40
6500
6500
7900
6000
7F40
ENDCHAR
STARTCHAR uni1EBB
ENCODING 7867
SWIDTH 540 0
DWIDTH 4 0
BBX 4 7 0 0
BITMAP
14
18
04
7A
AB
A5
3E
ENDCHAR
STARTCHAR uni1EBC
ENCODING 7868
SWIDTH 562 0
DWIDTH 5 0
BBX 5 7 0 0
BITMAP
2A00
6A40
6500
6500
7900
6000
7F40
ENDCHAR
STARTCHAR uni1EBD
ENCODING 7869
SWIDTH 540 0
DWIDTH 4 0
BBX 4 6 0 0
BITMAP
29
14
7A
AB
A5
3E
ENDCHAR
STARTCHAR uni1EBE
ENCODING 7870
SWIDTH 562 0
DWIDTH 5 0
BBX 5 8 0 0
BITMAP
0040
1940
6A40
6500
6500
7900
6000
7F40
ENDCHAR
STARTCHAR uni1EBF
ENCODING 7871
SWIDTH 540 0
DWIDTH 4 0
BBX 5 7 0 0
BITMAP
0040
1500
1400
7A00
AB00
A500
3E00
ENDCHAR
STARTCHAR uni1EC0
ENCODING 7872
SWIDTH 562 0
DWIDTH 5 0
BBX 5 8 0 0
BITMAP
4000
5900
6A40
6500
6500
7900
6000
7F40
ENDCHAR
STARTCHAR uni1EC1
ENCODING 7873
SWIDTH 540 0
DWIDTH 4 0
BBX 4 7 0 0
BITMAP
40
54
14
7A
AB
A5
3E
ENDCHAR
STARTCHAR uni1EC2
ENCODING 7874
SWIDTH 562 0
DWIDTH 5 0
BBX 5 8 0 0
BITMAP
0140
1A00
6A40
6500
6500
7900
6000
7F40
ENDCHAR
STARTCHAR uni1EC3
ENCODING 7875
SWIDTH 540 0
DWIDTH 4 0
BBX 4 7 0 0
BITMAP
01
15
14
7A
AB
A5
3E
ENDCHAR
STARTCHAR uni1EC4
ENCODING 7876
SWIDTH 562 0
DWIDTH 5 0
BBX 5 8 0 0
BITMAP
1500
1900
6A40
6500
6500
7900
6000
7F40
ENDCHAR
STARTCHAR uni1EC5
ENCODING 7877
SWIDTH 540 0
DWIDTH 4 0
BBX 4 7 0 0
BITMAP
14
14
14
7A
AB
A5
3E
ENDCHAR
STARTCHAR uni1EC6
ENCODING 7878
SWIDTH 562 0
DWIDTH 5 0
BBX 5 10 0 -2
BITMAP
0400
2900
6A40
6500
6500
7900
6000
7F40
0800
0400
ENDCHAR
STARTCHAR uni1EC7
ENCODING 7879
SWIDTH 540 0
DWIDTH 4 0
BBX 4 8 0 -2
BITMAP
28
14
7A
AB
A5
3E
04
04
ENDCHAR
STARTCHAR uni1EC8
ENCODING 7880
SWIDTH 291 0
DWIDTH 2 0
BBX 2 8 0 0
BITMAP
60
20
60
60
60
60
60
60
ENDCHAR
STARTCHAR uni1EC9
ENCODING 7881
SWIDTH 273 0
DWIDTH 2 0
BBX 2 7 0 0
BITMAP
50
70
10
60
60
60
60
ENDCHAR
STARTCHAR uni1ECA
ENCODING 7882
SWIDTH 291 0
DWIDTH 2 0
BBX 2 8 0 -2
BITMAP
60
60
60
60
60
60
50
10
ENDCHAR
STARTCHAR uni1ECB
ENCODING 7883
SWIDTH 265 0
DWIDTH 2 0
BBX 2 8 0 -2
BITMAP
50
50
A0
A0
A0
A0
50
10
ENDCHAR
STARTCHAR uni1ECC
ENCODING 7884
SWIDTH 690 0
DWIDTH 6 0
BBX 5 8 0 -2
BITMAP
1A00
7680
A0C0
A0C0
61C0
2F40
0500
0400
ENDCHAR
STARTCHAR uni1ECD
ENCODING 7885
SWIDTH 565 0
DWIDTH 5 0
BBX 5 7 0 -2
BITMAP
0400
7A00
9340
A300
7E00
0400
0400
ENDCHAR
STARTCHAR uni1ECE
ENCODING 7886
SWIDTH 690 0
DWIDTH 6 0
BBX 5 8 0 0
BITMAP
0500
0500
1A00
7680
A0C0
A0C0
61C0
2F40
ENDCHAR
STARTCHAR uni1ECF
ENCODING 7887
SWIDTH 565 0
DWIDTH 5 0
BBX 5 7 0 0
BITMAP
0400
0800
0400
7A00
9340
A300
7E00
ENDCHAR
STARTCHAR uni1ED0
ENCODING 7888
SWIDTH 690 0
DWIDTH 6 0
BBX 5 8 0 0
BITMAP
0040
1A40
1A00
7680
A0C0
A0C0
61C0
2F40
ENDCHAR
STARTCHAR uni1ED1
ENCODING 7889
SWIDTH 565 0
DWIDTH 5 0
BBX 5 7 0 0
BITMAP
0040
1940
1400
7A00
9340
A300
7E00
ENDCHAR
STARTCHAR uni1ED2
ENCODING 7890
SWIDTH 690 0
DWIDTH 6 0
BBX 5 8 0 0
BITMAP
4000
1900
1A00
7680
A0C0
A0C0
61C0
2F40
ENDCHAR
STARTCHAR uni1ED3
ENCODING 7891
SWIDTH 565 0
DWIDTH 5 0
BBX 5 7 0 0
BITMAP
4000
5800
1400
7A00
9340
A300
7E00
ENDCHAR
STARTCHAR uni1ED4
ENCODING 7892
SWIDTH 690 0
DWIDTH 6 0
BBX 5 8 0 0
BITMAP
0080
1A40
1A00
7680
A0C0
A0C0
61C0
2F40
ENDCHAR
STARTCHAR uni1ED5
ENCODING 7893
SWIDTH 565 0
DWIDTH 5 0
BBX 5 7 0 0
BITMAP
0100
1900
1400
7A00
9340
A300
7E00
ENDCHAR
STARTCHAR uni1ED6
ENCODING 7894
SWIDTH 690 0
DWIDTH 6 0
BBX 5 8 0 0
BITMAP
0500
0900
1A00
7680
A0C0
A0C0
61C0
2F40
ENDCHAR
STARTCHAR uni1ED7
ENCODING 7895
SWIDTH 565 0
DWIDTH 5 0
BBX 5 7 0 0
BITMAP
1400
1800
1400
7A00
9340
A300
7E00
ENDCHAR
STARTCHAR uni1ED8
ENCODING 7896
SWIDTH 690 0
DWIDTH 6 0
BBX 5 9 0 -2
BITMAP
1A00
1A00
7680
A0C0
A0C0
61C0
2F40
0500
0400
ENDCHAR
STARTCHAR uni1ED9
ENCODING 7897
SWIDTH 565 0
DWIDTH 5 0
BBX 5 8 0 -2
BITMAP
2900
1400
7A00
9340
A300
7E00
0400
0400
ENDCHAR
STARTCHAR uni1EDA
ENCODING 7898
SWIDTH 701 0
DWIDTH 6 0
BBX 6 8 0 0
BITMAP
0100
0600
1A60
76C0
A0C0
A0C0
61C0
2F40
ENDCHAR
STARTCHAR uni1EDB
ENCODING 7899
SWIDTH 581 0
DWIDTH 5 0
BBX 5 6 0 0
BITMAP
0900
1440
7B40
9340
A300
7E00
ENDCHAR
STARTCHAR uni1EDC
ENCODING 7900
SWIDTH 701 0
DWIDTH 6 0
BBX 6 7 0 0
BITMAP
0800
1A60
76C0
A0C0
A0C0
61C0
2F40
ENDCHAR
STARTCHAR uni1EDD
ENCODING 7901
SWIDTH 581 0
DWIDTH 5 0
BBX 5 6 0 0
BITMAP
2400
1440
7B40
9340
A300
7E00
ENDCHAR
STARTCHAR uni1EDE
ENCODING 7902
SWIDTH 701 0
DWIDTH 6 0
BBX 6 8 0 0
BITMAP
0500
0500
1A60
76C0
A0C0
A0C0
61C0
2F40
ENDCHAR
STARTCHAR uni1EDF
ENCODING 7903
SWIDTH 581 0
DWIDTH 5 0
BBX 5 7 0 0
BITMAP
0400
0800
0440
7B40
9340
A300
7E00
ENDCHAR
STARTCHAR uni1EE0
ENCODING 7904
SWIDTH 701 0
DWIDTH 6 0
BBX 6 7 0 0
BITMAP
1A00
1A60
76C0
A0C0
A0C0
61C0
2F40
ENDCHAR
STARTCHAR uni1EE1
ENCODING 7905
SWIDTH 581 0
DWIDTH 5 0
BBX 5 6 0 0
BITMAP
2A00
1440
7B40
9340
A300
7E00
ENDCHAR
STARTCHAR uni1EE2
ENCODING 7906
SWIDTH 701 0
DWIDTH 6 0
BBX 6 8 0 -2
BITMAP
1A60
76C0
A0C0
A0C0
61C0
2F40
0800
0400
ENDCHAR
STARTCHAR uni1EE3
ENCODING 7907
SWIDTH 581 0
DWIDTH 5 0
BBX 5 7 0 -2
BITMAP
0440
7B40
9340
A300
7E00
0400
0400
ENDCHAR
STARTCHAR uni1EE4
ENCODING 7908
SWIDTH 658 0
DWIDTH 5 0
BBX 5 8 0 -2
BITMAP
5180
A180
A180
A180
6180
2F40
0800
0400
ENDCHAR
STARTCHAR uni1EE5
ENCODING 7909
SWIDTH 559 0
DWIDTH 4 0
BBX 4 7 0 -2
BITMAP
01
A3
A3
A3
7B
14
10
ENDCHAR
STARTCHAR uni1EE6
ENCODING 7910
SWIDTH 658 0
DWIDTH 5 0
BBX 5 8 0 0
BITMAP
0900
0900
5180
A180
A180
A180
6180
2F40
ENDCHAR
STARTCHAR uni1EE7
ENCODING 7911
SWIDTH 559 0
DWIDTH 4 0
BBX 4 7 0 0
BITMAP
04
08
01
A3
A3
A3
7B
ENDCHAR
STARTCHAR uni1EE8
ENCODING 7912
SWIDTH 712 0
DWIDTH 6 0
BBX 7 8 0 0
BITMAP
0100
0600
5194
A1E0
A180
A180
6180
2F40
ENDCHAR
STARTCHAR uni1EE9
ENCODING 7913
SWIDTH 609 0
DWIDTH 5 0
BBX 5 6 0 0
BITMAP
0900
1540
A380
A300
A300
7B00
ENDCHAR
STARTCHAR uni1EEA
ENCODING 7914
SWIDTH 712 0
DWIDTH 6 0
BBX 7 8 0 0
BITMAP
0400
0800
5194
A1E0
A180
A180
6180
2F40
ENDCHAR
STARTCHAR uni1EEB
ENCODING 7915
SWIDTH 609 0
DWIDTH 5 0
BBX 5 6 0 0
BITMAP
2400
1540
A380
A300
A300
7B00
ENDCHAR
STARTCHAR uni1EEC
ENCODING 7916
SWIDTH 712 0
DWIDTH 6 0
BBX 7 8 0 0
BITMAP
0500
0500
5194
A1E0
A180
A180
6180
2F40
ENDCHAR
STARTCHAR uni1EED
ENCODING 7917
SWIDTH 609 0
DWIDTH 5 0
BBX 5 7 0 0
BITMAP
0400
0C00
0140
A380
A300
A300
7B00
ENDCHAR
STARTCHAR uni1EEE
ENCODING 7918
SWIDTH 712 0
DWIDTH 6 0
BBX 7 7 0 0
BITMAP
1A00
5194
A1E0
A180
A180
6180
2F40
ENDCHAR
STARTCHAR uni1EEF
ENCODING 7919
SWIDTH 609 0
DWIDTH 5 0
BBX 5 6 0 0
BITMAP
2A00
5140
A380
A300
A300
7B00
ENDCHAR
STARTCHAR uni1EF0
ENCODING 7920
SWIDTH 712 0
DWIDTH 6 0
BBX 7 8 0 -2
BITMAP
5194
A1E0
A180
A180
6180
2F40
0400
0400
ENDCHAR
STARTCHAR uni1EF1
ENCODING 7921
SWIDTH 609 0
DWIDTH 5 0
BBX 5 7 0 -2
BITMAP
0140
A380
A300
A300
7B00
1400
0400
ENDCHAR
STARTCHAR Ygrave
ENCODING 7922
SWIDTH 618 0
DWIDTH 5 0
BBX 5 8 0 0
BITMAP
1000
1800
9180
7340
3A00
1D00
0C00
0C00
ENDCHAR
STARTCHAR ygrave
ENCODING 7923
SWIDTH 501 0
DWIDTH 4 0
BBX 4 8 0 -2
BITMAP
30
41
96
69
3C
28
24
60
ENDCHAR
STARTCHAR uni1EF4
ENCODING 7924
SWIDTH 618 0
DWIDTH 5 0
BBX 5 8 0 -2
BITMAP
9180
7340
3A00
1D00
0C00
0C00
0800
0400
ENDCHAR
STARTCHAR uni1EF5
ENCODING 7925
SWIDTH 501 0
DWIDTH 4 0
BBX 4 7 0 -2
BITMAP
41
96
69
3C
28
24
66
ENDCHAR
STARTCHAR uni1EF6
ENCODING 7926
SWIDTH 618 0
DWIDTH 5 0
BBX 5 8 0 0
BITMAP
0900
0900
9180
7340
3A00
1D00
0C00
0C00
ENDCHAR
STARTCHAR uni1EF7
ENCODING 7927
SWIDTH 501 0
DWIDTH 4 0
BBX 4 9 0 -2
BITMAP
14
18
41
96
69
3C
28
24
60
ENDCHAR
STARTCHAR uni1EF8
ENCODING 7928
SWIDTH 618 0
DWIDTH 5 0
BBX 5 7 0 0
BITMAP
2A00
9180
7340
3A00
1D00
0C00
0C00
ENDCHAR
STARTCHAR uni1EF9
ENCODING 7929
SWIDTH 501 0
DWIDTH 4 0
BBX 4 8 0 -2
BITMAP
69
41
96
69
3C
28
24
60
ENDCHAR
STARTCHAR uni1F4D
ENCODING 8013
SWIDTH 724 0
DWIDTH 6 0
BBX 8 6 -2 0
BITMAP
95A4
535C
0709
0709
030D
01F8
ENDCHAR
STARTCHAR uni2000
ENCODING 8192
SWIDTH 509 0
DWIDTH 4 0
BBX 1 1 0 0
BITMAP
00
ENDCHAR
STARTCHAR uni2001
ENCODING 8193
SWIDTH 1020 0
DWIDTH 8 0
BBX 1 1 0 0
BITMAP
00
ENDCHAR
STARTCHAR uni2002
ENCODING 8194
SWIDTH 509 0
DWIDTH 4 0
BBX 1 1 0 0
BITMAP
00
ENDCHAR
STARTCHAR uni2003
ENCODING 8195
SWIDTH 1020 0
DWIDTH 8 0
BBX 1 1 0 0
BITMAP
00
ENDCHAR
STARTCHAR uni2004
ENCODING 8196
SWIDTH 340 0
DWIDTH 3 0
BBX 1 1 0 0
BITMAP
00
ENDCHAR
STARTCHAR uni2005
ENCODING 8197
SWIDTH 254 0
DWIDTH 2 0
BBX 1 1 0 0
BITMAP
00
ENDCHAR
STARTCHAR uni2006
ENCODING 8198
SWIDTH 169 0
DWIDTH 1 0
BBX 1 1 0 0
BITMAP
00
ENDCHAR
STARTCHAR uni2007
ENCODING 8199
SWIDTH 562 0
DWIDTH 5 0
BBX 1 1 0 0
BITMAP
00
ENDCHAR
STARTCHAR uni2008
ENCODING 8200
SWIDTH 273 0
DWIDTH 2 0
BBX 1 1 0 0
BITMAP
00
ENDCHAR
STARTCHAR uni2009
ENCODING 8201
SWIDTH 204 0
DWIDTH 2 0
BBX 1 1 0 0
BITMAP
00
ENDCHAR
STARTCHAR uni200A
ENCODING 8202
SWIDTH 102 0
DWIDTH 1 0
BBX 1 1 0 0
BITMAP
00
ENDCHAR
STARTCHAR uni200B
ENCODING 8203
SWIDTH 0 0
DWIDTH 0 0
BBX 1 1 0 0
BITMAP
00
ENDCHAR
STARTCHAR uni2010
ENCODING 8208
SWIDTH 388 0
DWIDTH 3 0
BBX 3 1 0 2
BITMAP
B8
ENDCHAR
STARTCHAR uni2011
ENCODING 8209
SWIDTH 388 0
DWIDTH 3 0
BBX 3 1 0 2
BITMAP
B8
ENDCHAR
STARTCHAR endash
ENCODING 8211
SWIDTH 631 0
DWIDTH 5 0
BBX 5 2 0 2
BITMAP
1500
6A40
ENDCHAR
STARTCHAR emdash
ENCODING 8212
SWIDTH 763 0
DWIDTH 6 0
BBX 6 2 0 2
BITMAP
1550
6AA0
ENDCHAR
STARTCHAR uni2015
ENCODING 8213
SWIDTH 763 0
DWIDTH 6 0
BBX 6 2 0 2
BITMAP
1550
6AA0
ENDCHAR
STARTCHAR underscoredbl
ENCODING 8215
SWIDTH 445 0
DWIDTH 4 0
BBX 4 2 0 -2
BITMAP
A9
A9
ENDCHAR
STARTCHAR quoteleft
ENCODING 8216
SWIDTH 233 0
DWIDTH 2 0
BBX 2 2 0 4
BITMAP
50
90
ENDCHAR
STARTCHAR quoteright
ENCODING 8217
SWIDTH 229 0
DWIDTH 2 0
BBX 2 2 0 4
BITMAP
50
80
ENDCHAR
STARTCHAR quotesinglbase
ENCODING 8218
SWIDTH 248 0
DWIDTH 2 0
BBX 2 2 0 -1
BITMAP
50
90
ENDCHAR
STARTCHAR quotereversed
ENCODING 8219
SWIDTH 208 0
DWIDTH 2 0
BBX 2 2 0 4
BITMAP
90
50
ENDCHAR
STARTCHAR quotedblleft
ENCODING 8220
SWIDTH 405 0
DWIDTH 3 0
BBX 3 2 0 4
BITMAP
68
58
ENDCHAR
STARTCHAR quotedblright
ENCODING 8221
SWIDTH 408 0
DWIDTH 3 0
BBX 3 2 0 4
BITMAP
6C
98
ENDCHAR
STARTCHAR quotedblbase
ENCODING 8222
SWIDTH 402 0
DWIDTH 3 0
BBX 3 2 0 -1
BITMAP
6C
A8
ENDCHAR
STARTCHAR dagger
ENCODING 8224
SWIDTH 538 0
DWIDTH 4 0
BBX 4 6 0 0
BITMAP
14
69
BE
18
18
18
ENDCHAR
STARTCHAR daggerdbl
ENCODING 8225
SWIDTH 578 0
DWIDTH 5 0
BBX 5 8 0 -2
BITMAP
1800
1D00
6E40
1C00
1C00
BF40
1C00
0800
ENDCHAR
STARTCHAR bullet
ENCODING 8226
SWIDTH 359 0
DWIDTH 3 0
BBX 3 2 0 2
BITMAP
64
74
ENDCHAR
STARTCHAR twodotenleader
ENCODING 8229
SWIDTH 521 0
DWIDTH 4 0
BBX 4 1 0 0
BITMAP
6A
ENDCHAR
STARTCHAR ellipsis
ENCODING 8230
SWIDTH 739 0
DWIDTH 6 0
BBX 6 1 0 0
BITMAP
6A90
ENDCHAR
STARTCHAR uni2027
ENCODING 8231
SWIDTH 257 0
DWIDTH 2 0
BBX 2 1 0 2
BITMAP
60
ENDCHAR
STARTCHAR perthousand
ENCODING 8240
SWIDTH 959 0
DWIDTH 8 0
BBX 8 6 0 0
BITMAP
6400
8940
6600
0994
1A65
12A9
ENDCHAR
STARTCHAR minute
ENCODING 8242
SWIDTH 161 0
DWIDTH 1 0
BBX 1 2 0 4
BITMAP
80
80
ENDCHAR
STARTCHAR second
ENCODING 8243
SWIDTH 320 0
DWIDTH 3 0
BBX 3 2 0 4
BITMAP
A4
94
ENDCHAR
STARTCHAR guilsinglleft
ENCODING 8249
SWIDTH 311 0
DWIDTH 3 0
BBX 2 4 0 0
BITMAP
10
60
60
10
ENDCHAR
STARTCHAR guilsinglright
ENCODING 8250
SWIDTH 301 0
DWIDTH 2 0
BBX 2 4 0 0
BITMAP
40
20
20
40
ENDCHAR
STARTCHAR exclamdbl
ENCODING 8252
SWIDTH 543 0
DWIDTH 4 0
BBX 4 6 0 0
BITMAP
56
67
66
66
11
66
ENDCHAR
STARTCHAR fraction
ENCODING 8260
SWIDTH 445 0
DWIDTH 4 0
BBX 4 5 0 0
BITMAP
09
18
20
50
40
ENDCHAR
STARTCHAR uni2074
ENCODING 8308
SWIDTH 372 0
DWIDTH 3 0
BBX 3 3 0 3
BITMAP
14
64
A8
ENDCHAR
STARTCHAR uni207F
ENCODING 8319
SWIDTH 417 0
DWIDTH 3 0
BBX 3 4 0 2
BITMAP
68
9C
98
44
ENDCHAR
STARTCHAR franc
ENCODING 8355
SWIDTH 547 0
DWIDTH 4 0
BBX 4 6 0 0
BITMAP
6A
65
65
7A
F4
B0
ENDCHAR
STARTCHAR lira
ENCODING 8356
SWIDTH 594 0
DWIDTH 5 0
BBX 5 6 0 0
BITMAP
1A00
3640
7800
7800
3400
BF40
ENDCHAR
STARTCHAR uni20A6
ENCODING 8358
SWIDTH 813 0
DWIDTH 7 0
BBX 7 6 0 0
BITMAP
2450
38A0
BEF4
BBE4
32E0
30E0
ENDCHAR
STARTCHAR peseta
ENCODING 8359
SWIDTH 859 0
DWIDTH 7 0
BBX 7 6 0 0
BITMAP
6910
67A0
67B4
7E60
6060
6074
ENDCHAR
STARTCHAR uni20A8
ENCODING 8360
SWIDTH 1084 0
DWIDTH 9 0
BBX 9 6 0 0
BITMAP
6A0000
668400
62BB40
7F3900
635740
62AB00
ENDCHAR
STARTCHAR uni20A9
ENCODING 8361
SWIDTH 807 0
DWIDTH 6 0
BBX 6 6 0 0
BITMAP
5620
BBB0
7BA0
7ED0
2ED0
29C0
ENDCHAR
STARTCHAR uni20AA
ENCODING 8362
SWIDTH 868 0
DWIDTH 7 0
BBX 7 5 0 0
BITMAP
1500
BBA8
AAA8
AD64
AFE0
ENDCHAR
STARTCHAR dong
ENCODING 8363
SWIDTH 578 0
DWIDTH 5 0
BBX 5 8 0 -2
BITMAP
0B40
1740
7B00
9300
9300
7B00
5500
5500
ENDCHAR
STARTCHAR Euro
ENCODING 8364
SWIDTH 573 0
DWIDTH 5 0
BBX 5 6 0 0
BITMAP
0A00
2900
7900
7900
3400
1F40
ENDCHAR
STARTCHAR uni20B1
ENCODING 8369
SWIDTH 748 0
DWIDTH 6 0
BBX 6 6 0 0
BITMAP
2A40
BBD0
BAE0
7F80
7000
7000
ENDCHAR
STARTCHAR uni20B9
ENCODING 8377
SWIDTH 527 0
DWIDTH 4 0
BBX 4 6 0 0
BITMAP
6A
6D
6E
B8
74
1C
ENDCHAR
STARTCHAR uni20BA
ENCODING 8378
SWIDTH 593 0
DWIDTH 5 0
BBX 5 6 0 0
BITMAP
2000
7800
B800
B240
3340
3E00
ENDCHAR
STARTCHAR uni20BC
ENCODING 8380
SWIDTH 682 0
DWIDTH 5 0
BBX 6 5 0 0
BITMAP
0400
0D00
3F80
A9C0
99D0
ENDCHAR
STARTCHAR uni20BD
ENCODING 8381
SWIDTH 705 0
DWIDTH 6 0
BBX 6 6 0 0
BITMAP
2A40
35D0
34D0
BF80
B900
7400
ENDCHAR
STARTCHAR uni2105
ENCODING 8453
SWIDTH 734 0
DWIDTH 6 0
BBX 6 6 0 0
BITMAP
6400
9540
6600
0980
1660
1290
ENDCHAR
STARTCHAR uni2113
ENCODING 8467
SWIDTH 493 0
DWIDTH 4 0
BBX 4 6 0 0
BITMAP
19
3A
39
78
74
2C
ENDCHAR
STARTCHAR uni2116
ENCODING 8470
SWIDTH 1014 0
DWIDTH 8 0
BBX 8 6 0 0
BITMAP
6159
B6A2
BAA6
AA94
A795
A380
ENDCHAR
STARTCHAR trademark
ENCODING 8482
SWIDTH 631 0
DWIDTH 5 0
BBX 5 3 0 3
BITMAP
6540
2A40
1540
ENDCHAR
STARTCHAR uni03A9.dup2
ENCODING 8486
SWIDTH 671 0
DWIDTH 5 0
BBX 5 6 0 0
BITMAP
1A00
7680
A1C0
6180
3240
BB80
ENDCHAR
STARTCHAR estimated
ENCODING 8494
SWIDTH 632 0
DWIDTH 5 0
BBX 5 5 0 0
BITMAP
0400
2100
6640
6000
1500
ENDCHAR
STARTCHAR oneeighth
ENCODING 8539
SWIDTH 783 0
DWIDTH 6 0
BBX 6 6 0 0
BITMAP
1000
7140
2200
19A0
15A0
11A0
ENDCHAR
STARTCHAR threeeighths
ENCODING 8540
SWIDTH 861 0
DWIDTH 7 0
BBX 7 6 0 0
BITMAP
6400
1880
5940
16A4
08B4
04A4
ENDCHAR
STARTCHAR fiveeighths
ENCODING 8541
SWIDTH 852 0
DWIDTH 7 0
BBX 7 6 0 0
BITMAP
6400
A480
5A40
16A4
08B4
04A4
ENDCHAR
STARTCHAR seveneighths
ENCODING 8542
SWIDTH 859 0
DWIDTH 7 0
BBX 6 6 0 0
BITMAP
6800
1940
2200
15A0
08F0
10A0
ENDCHAR
STARTCHAR partialdiff
ENCODING 8706
SWIDTH 572 0
DWIDTH 5 0
BBX 5 6 0 0
BITMAP
3D00
0300
3F40
A340
A300
3E00
ENDCHAR
STARTCHAR uni0394.dup3
ENCODING 8710
SWIDTH 730 0
DWIDTH 6 0
BBX 6 6 0 0
BITMAP
0900
0F00
2A40
3580
70D0
BFE0
ENDCHAR
STARTCHAR product
ENCODING 8719
SWIDTH 692 0
DWIDTH 6 0
BBX 5 7 0 -1
BITMAP
6A80
65C0
61C0
61C0
61C0
61C0
61C0
ENDCHAR
STARTCHAR summation
ENCODING 8721
SWIDTH 626 0
DWIDTH 5 0
BBX 5 7 0 -1
BITMAP
AA40
7500
1800
0900
1C00
3400
BF80
ENDCHAR
STARTCHAR minus
ENCODING 8722
SWIDTH 555 0
DWIDTH 4 0
BBX 4 2 0 2
BITMAP
15
6A
ENDCHAR
STARTCHAR radical
ENCODING 8730
SWIDTH 564 0
DWIDTH 5 0
BBX 5 6 0 0
BITMAP
0140
0200
0200
B600
2900
1C00
ENDCHAR
STARTCHAR infinity
ENCODING 8734
SWIDTH 1046 0
DWIDTH 8 0
BBX 8 5 0 0
BITMAP
0414
7AAE
A2C7
A2C7
2E7D
ENDCHAR
STARTCHAR integral
ENCODING 8747
SWIDTH 288 0
DWIDTH 2 0
BBX 4 8 -1 -2
BITMAP
0E
18
18
18
18
18
28
60
ENDCHAR
STARTCHAR approxequal
ENCODING 8776
SWIDTH 576 0
DWIDTH 5 0
BBX 4 3 0 1
BITMAP
7A
55
6B
ENDCHAR
STARTCHAR notequal
ENCODING 8800
SWIDTH 572 0
DWIDTH 5 0
BBX 4 5 0 0
BITMAP
01
7F
19
7A
10
ENDCHAR
STARTCHAR lessequal
ENCODING 8804
SWIDTH 509 0
DWIDTH 4 0
BBX 4 5 0 0
BITMAP
05
69
B8
05
BE
ENDCHAR
STARTCHAR greaterequal
ENCODING 8805
SWIDTH 516 0
DWIDTH 4 0
BBX 4 5 0 0
BITMAP
50
69
2A
50
7E
ENDCHAR
STARTCHAR lozenge
ENCODING 9674
SWIDTH 508 0
DWIDTH 4 0
BBX 4 6 0 0
BITMAP
14
3C
A6
96
79
28
ENDCHAR
STARTCHAR uniEE01
ENCODING 60929
SWIDTH 293 0
DWIDTH 2 0
BBX 2 4 0 1
BITMAP
60
00
00
60
ENDCHAR
STARTCHAR uniEE02
ENCODING 60930
SWIDTH 320 0
DWIDTH 3 0
BBX 3 2 0 2
BITMAP
94
50
ENDCHAR
STARTCHAR uniF6C3
ENCODING 63171
SWIDTH 229 0
DWIDTH 2 0
BBX 2 2 0 -1
BITMAP
90
40
ENDCHAR
STARTCHAR uniFB01
ENCODING 64257
SWIDTH 608 0
DWIDTH 5 0
BBX 5 6 0 0
BITMAP
2E00
7500
B640
7240
7240
7240
ENDCHAR
STARTCHAR uniFB02
ENCODING 64258
SWIDTH 612 0
DWIDTH 5 0
BBX 5 6 0 0
BITMAP
2F40
7640
B640
7240
7240
7240
ENDCHAR
STARTCHAR uniFB03
ENCODING 64259
SWIDTH 928 0
DWIDTH 7 0
BBX 7 6 0 0
BITMAP
39F4
7684
BB9C
725C
725C
725C
ENDCHAR
STARTCHAR uniFB04
ENCODING 64260
SWIDTH 928 0
DWIDTH 7 0
BBX 7 6 0 0
BITMAP
39FC
769C
BB9C
725C
725C
725C
ENDCHAR
STARTCHAR uniFEFF
ENCODING 65279
SWIDTH 0 0
DWIDTH 0 0
BBX 1 1 0 0
BITMAP
00
ENDCHAR
STARTCHAR uniFFFC
ENCODING 65532
SWIDTH 1021 0
DWIDTH 8 0
BBX 8 8 0 -2
BITMAP
5556
4001
4001
5685
5695
4001
4001
5555
ENDCHAR
STARTCHAR uniFFFD
ENCODING 65533
SWIDTH 1025 0
DWIDTH 8 0
BBX 8 7 0 -1
BITMAP
0280
0BE0
2D68
7F7E
2EB8
0AA0
0280
ENDCHAR
STARTCHAR .notdef
ENCODING -1
SWIDTH 443 0
DWIDTH 4 0
BBX 3 6 0 0
BITMAP
54
44
54
50
54
54
ENDCHAR
STARTCHAR glyph369
ENCODING -1
SWIDTH 390 0
DWIDTH 3 0
BBX 3 2 0 4
BITMAP
94
50
ENDCHAR
STARTCHAR uni2009.locl
ENCODING -1
SWIDTH 125 0
DWIDTH 1 0
BBX 1 1 0 0
BITMAP
00
ENDCHAR
STARTCHAR f_f.dlig
ENCODING -1
SWIDTH 653 0
DWIDTH 5 0
BBX 6 6 0 0
BITMAP
3AD0
7740
BB80
7340
7340
7340
ENDCHAR
STARTCHAR longs_t.dlig
ENCODING -1
SWIDTH 646 0
DWIDTH 5 0
BBX 5 6 0 0
BITMAP
3F40
7340
B780
7340
7340
72C0
ENDCHAR
STARTCHAR s_t.dlig
ENCODING -1
SWIDTH 850 0
DWIDTH 7 0
BBX 7 6 0 0
BITMAP
07E0
1A70
6AB4
7470
5A70
7D38
ENDCHAR
STARTCHAR two.dnom
ENCODING -1
SWIDTH 372 0
DWIDTH 3 0
BBX 3 3 0 0
BITMAP
A4
24
B4
ENDCHAR
STARTCHAR one.dnom
ENCODING -1
SWIDTH 372 0
DWIDTH 3 0
BBX 2 3 0 0
BITMAP
70
20
20
ENDCHAR
STARTCHAR zero.dnom
ENCODING -1
SWIDTH 372 0
DWIDTH 3 0
BBX 3 3 0 0
BITMAP
A4
98
64
ENDCHAR
STARTCHAR nine.c2sc
ENCODING -1
SWIDTH 519 0
DWIDTH 4 0
BBX 4 5 0 0
BITMAP
18
AA
AA
1A
28
ENDCHAR
STARTCHAR eight.c2sc
ENCODING -1
SWIDTH 519 0
DWIDTH 4 0
BBX 4 5 0 0
BITMAP
28
AA
7D
AA
7D
ENDCHAR
STARTCHAR seven.c2sc
ENCODING -1
SWIDTH 519 0
DWIDTH 4 0
BBX 4 5 0 0
BITMAP
69
5A
0C
18
34
ENDCHAR
STARTCHAR six.c2sc
ENCODING -1
SWIDTH 519 0
DWIDTH 4 0
BBX 4 5 0 0
BITMAP
18
74
BE
A7
7D
ENDCHAR
STARTCHAR five.c2sc
ENCODING -1
SWIDTH 519 0
DWIDTH 4 0
BBX 4 5 0 0
BITMAP
29
65
7D
46
7D
ENDCHAR
STARTCHAR four.c2sc
ENCODING -1
SWIDTH 519 0
DWIDTH 4 0
BBX 4 5 0 0
BITMAP
05
1D
69
BF
09
ENDCHAR
STARTCHAR three.c2sc
ENCODING -1
SWIDTH 519 0
DWIDTH 4 0
BBX 4 5 0 0
BITMAP
28
6A
1D
56
7D
ENDCHAR
STARTCHAR two.c2sc
ENCODING -1
SWIDTH 519 0
DWIDTH 4 0
BBX 4 5 0 0
BITMAP
28
AA
09
28
BE
ENDCHAR
STARTCHAR one.c2sc
ENCODING -1
SWIDTH 519 0
DWIDTH 4 0
BBX 3 5 0 0
BITMAP
04
7C
1C
1C
1C
ENDCHAR
STARTCHAR zero.c2sc
ENCODING -1
SWIDTH 519 0
DWIDTH 4 0
BBX 4 5 0 0
BITMAP
18
AA
97
A6
7D
ENDCHAR
STARTCHAR Z.c2sc
ENCODING -1
SWIDTH 523 0
DWIDTH 4 0
BBX 4 5 0 0
BITMAP
6A
5A
1C
34
BF
ENDCHAR
STARTCHAR Y.c2sc
ENCODING -1
SWIDTH 537 0
DWIDTH 4 0
BBX 4 5 0 0
BITMAP
52
66
3D
18
18
ENDCHAR
STARTCHAR X.c2sc
ENCODING -1
SWIDTH 548 0
DWIDTH 4 0
BBX 4 5 0 0
BITMAP
52
7A
2C
3D
A7
ENDCHAR
STARTCHAR W.c2sc
ENCODING -1
SWIDTH 748 0
DWIDTH 6 0
BBX 6 5 0 0
BITMAP
4510
9A60
6F90
7AC0
35C0
ENDCHAR
STARTCHAR V.c2sc
ENCODING -1
SWIDTH 566 0
DWIDTH 5 0
BBX 5 5 0 0
BITMAP
4140
A300
6600
3900
2C00
ENDCHAR
STARTCHAR U.c2sc
ENCODING -1
SWIDTH 569 0
DWIDTH 5 0
BBX 5 5 0 0
BITMAP
5200
A340
A340
A300
7E00
ENDCHAR
STARTCHAR T.c2sc
ENCODING -1
SWIDTH 539 0
DWIDTH 4 0
BBX 4 5 0 0
BITMAP
6A
69
18
18
18
ENDCHAR
STARTCHAR S.c2sc
ENCODING -1
SWIDTH 535 0
DWIDTH 4 0
BBX 4 5 0 0
BITMAP
19
A6
79
57
7E
ENDCHAR
STARTCHAR R.c2sc
ENCODING -1
SWIDTH 557 0
DWIDTH 4 0
BBX 4 5 0 0
BITMAP
69
A7
AB
A9
A7
ENDCHAR
STARTCHAR Q.c2sc
ENCODING -1
SWIDTH 593 0
DWIDTH 5 0
BBX 5 6 0 -1
BITMAP
1900
6740
9240
A240
3F00
0200
ENDCHAR
STARTCHAR P.c2sc
ENCODING -1
SWIDTH 558 0
DWIDTH 4 0
BBX 4 5 0 0
BITMAP
65
A7
A7
A5
A0
ENDCHAR
STARTCHAR O.c2sc
ENCODING -1
SWIDTH 593 0
DWIDTH 5 0
BBX 5 5 0 0
BITMAP
1900
6740
9240
A240
3E00
ENDCHAR
STARTCHAR N.c2sc
ENCODING -1
SWIDTH 604 0
DWIDTH 5 0
BBX 5 5 0 0
BITMAP
5140
B640
AA40
AB40
A340
ENDCHAR
STARTCHAR M.c2sc
ENCODING -1
SWIDTH 753 0
DWIDTH 6 0
BBX 6 5 0 0
BITMAP
6090
B5E0
AAA0
AF60
AA60
ENDCHAR
STARTCHAR L.c2sc
ENCODING -1
SWIDTH 465 0
DWIDTH 4 0
BBX 4 5 0 0
BITMAP
50
A0
A0
A0
BE
ENDCHAR
STARTCHAR K.c2sc
ENCODING -1
SWIDTH 548 0
DWIDTH 4 0
BBX 4 5 0 0
BITMAP
52
AA
BC
A9
A7
ENDCHAR
STARTCHAR J.c2sc
ENCODING -1
SWIDTH 482 0
DWIDTH 4 0
BBX 4 5 0 0
BITMAP
05
09
09
49
7C
ENDCHAR
STARTCHAR I.c2sc
ENCODING -1
SWIDTH 257 0
DWIDTH 2 0
BBX 2 5 0 0
BITMAP
50
A0
A0
A0
A0
ENDCHAR
STARTCHAR H.c2sc
ENCODING -1
SWIDTH 604 0
DWIDTH 5 0
BBX 5 5 0 0
BITMAP
5140
A240
BB40
A640
A240
ENDCHAR
STARTCHAR G.c2sc
ENCODING -1
SWIDTH 579 0
DWIDTH 5 0
BBX 5 5 0 0
BITMAP
1900
6740
9500
A740
3F40
ENDCHAR
STARTCHAR F.c2sc
ENCODING -1
SWIDTH 470 0
DWIDTH 4 0
BBX 4 5 0 0
BITMAP
69
A5
B9
A4
A0
ENDCHAR
STARTCHAR dollar.c2sc
ENCODING -1
SWIDTH 535 0
DWIDTH 4 0
BBX 4 7 0 -1
BITMAP
04
29
A6
79
57
7E
04
ENDCHAR
STARTCHAR sterling.c2sc
ENCODING -1
SWIDTH 571 0
DWIDTH 5 0
BBX 5 5 0 0
BITMAP
1900
3700
7900
7000
7F40
ENDCHAR
STARTCHAR yen.c2sc
ENCODING -1
SWIDTH 456 0
DWIDTH 4 0
BBX 4 5 0 0
BITMAP
55
AD
7D
BD
24
ENDCHAR
STARTCHAR Gamma.c2sc
ENCODING -1
SWIDTH 471 0
DWIDTH 4 0
BBX 4 5 0 0
BITMAP
69
A5
A0
A0
A0
ENDCHAR
STARTCHAR uni0394.c2sc
ENCODING -1
SWIDTH 566 0
DWIDTH 5 0
BBX 5 5 0 0
BITMAP
1800
2D00
3600
6300
BF40
ENDCHAR
STARTCHAR Theta.c2sc
ENCODING -1
SWIDTH 593 0
DWIDTH 5 0
BBX 5 5 0 0
BITMAP
1900
6740
AA40
A640
3E00
ENDCHAR
STARTCHAR Lambda.c2sc
ENCODING -1
SWIDTH 566 0
DWIDTH 5 0
BBX 5 5 0 0
BITMAP
1800
2D00
3600
6300
9240
ENDCHAR
STARTCHAR Xi.c2sc
ENCODING -1
SWIDTH 458 0
DWIDTH 4 0
BBX 4 5 0 0
BITMAP
69
54
68
00
BD
ENDCHAR
STARTCHAR Pi.c2sc
ENCODING -1
SWIDTH 609 0
DWIDTH 5 0
BBX 5 5 0 0
BITMAP
6A40
A640
A240
A240
A240
ENDCHAR
STARTCHAR Sigma.c2sc
ENCODING -1
SWIDTH 532 0
DWIDTH 4 0
BBX 4 5 0 0
BITMAP
69
75
24
30
BF
ENDCHAR
STARTCHAR Phi.c2sc
ENCODING -1
SWIDTH 729 0
DWIDTH 6 0
BBX 6 5 0 0
BITMAP
0500
7F80
99A0
AAD0
1E40
ENDCHAR
STARTCHAR Psi.c2sc
ENCODING -1
SWIDTH 693 0
DWIDTH 6 0
BBX 6 5 0 0
BITMAP
5540
99D0
A9C0
2F40
0900
ENDCHAR
STARTCHAR uni03A9.c2sc
ENCODING -1
SWIDTH 602 0
DWIDTH 5 0
BBX 5 5 0 0
BITMAP
1900
6740
9240
6240
BB40
ENDCHAR
STARTCHAR uni0402.c2sc
ENCODING -1
SWIDTH 708 0
DWIDTH 6 0
BBX 6 5 0 0
BITMAP
6A00
6900
2F80
2890
29C0
ENDCHAR
STARTCHAR uni0404.c2sc
ENCODING -1
SWIDTH 563 0
DWIDTH 5 0
BBX 4 5 0 0
BITMAP
19
67
B8
A2
7E
ENDCHAR
STARTCHAR uni0409.c2sc
ENCODING -1
SWIDTH 924 0
DWIDTH 7 0
BBX 7 5 0 0
BITMAP
2A40
3640
32F8
724C
E2F8
ENDCHAR
STARTCHAR uni040A.c2sc
ENCODING -1
SWIDTH 920 0
DWIDTH 7 0
BBX 7 5 0 0
BITMAP
5140
A240
BBF8
A64C
A2F8
ENDCHAR
STARTCHAR uni040B.c2sc
ENCODING -1
SWIDTH 714 0
DWIDTH 6 0
BBX 6 5 0 0
BITMAP
6A00
6900
2F80
2890
2890
ENDCHAR
STARTCHAR uni040F.c2sc
ENCODING -1
SWIDTH 609 0
DWIDTH 5 0
BBX 5 7 0 -2
BITMAP
5140
A240
A240
A240
BF40
0C00
0400
ENDCHAR
STARTCHAR uni0411.c2sc
ENCODING -1
SWIDTH 564 0
DWIDTH 5 0
BBX 5 5 0 0
BITMAP
6900
A500
BE00
A340
BE00
ENDCHAR
STARTCHAR uni0414.c2sc
ENCODING -1
SWIDTH 692 0
DWIDTH 6 0
BBX 6 7 0 -2
BITMAP
1A40
2A80
3680
3280
FFD0
D0D0
4040
ENDCHAR
STARTCHAR uni0416.c2sc
ENCODING -1
SWIDTH 804 0
DWIDTH 6 0
BBX 6 5 0 0
BITMAP
5520
76A0
2FD0
3BA0
A670
ENDCHAR
STARTCHAR uni0417.c2sc
ENCODING -1
SWIDTH 536 0
DWIDTH 4 0
BBX 4 5 0 0
BITMAP
29
6B
1D
47
7E
ENDCHAR
STARTCHAR uni0418.c2sc
ENCODING -1
SWIDTH 606 0
DWIDTH 5 0
BBX 5 5 0 0
BITMAP
5140
A740
AE40
B640
A240
ENDCHAR
STARTCHAR uni041A.c2sc
ENCODING -1
SWIDTH 551 0
DWIDTH 4 0
BBX 4 5 0 0
BITMAP
52
AA
BC
AD
A7
ENDCHAR
STARTCHAR uni041B.c2sc
ENCODING -1
SWIDTH 603 0
DWIDTH 5 0
BBX 5 5 0 0
BITMAP
2A40
3640
3240
7240
E240
ENDCHAR
STARTCHAR uni0423.c2sc
ENCODING -1
SWIDTH 553 0
DWIDTH 4 0
BBX 4 5 0 0
BITMAP
51
67
3D
1C
34
ENDCHAR
STARTCHAR uni0426.c2sc
ENCODING -1
SWIDTH 695 0
DWIDTH 6 0
BBX 6 7 0 -2
BITMAP
5140
A240
A240
A240
BFD0
0090
0040
ENDCHAR
STARTCHAR uni0427.c2sc
ENCODING -1
SWIDTH 582 0
DWIDTH 5 0
BBX 5 5 0 0
BITMAP
5100
9340
A740
1740
0340
ENDCHAR
STARTCHAR uni0428.c2sc
ENCODING -1
SWIDTH 835 0
DWIDTH 7 0
BBX 7 5 0 0
BITMAP
5110
A734
A734
A734
BFF4
ENDCHAR
STARTCHAR uni0429.c2sc
ENCODING -1
SWIDTH 921 0
DWIDTH 7 0
BBX 7 7 0 -2
BITMAP
5110
A734
A734
A734
BFFC
000C
0004
ENDCHAR
STARTCHAR uni042A.c2sc
ENCODING -1
SWIDTH 698 0
DWIDTH 6 0
BBX 6 5 0 0
BITMAP
A400
6800
2F80
28D0
2F80
ENDCHAR
STARTCHAR uni042B.c2sc
ENCODING -1
SWIDTH 778 0
DWIDTH 6 0
BBX 6 5 0 0
BITMAP
5010
A070
BE70
A370
BE70
ENDCHAR
STARTCHAR uni042C.c2sc
ENCODING -1
SWIDTH 560 0
DWIDTH 4 0
BBX 5 5 0 0
BITMAP
5000
A000
BE00
A340
BE00
ENDCHAR
STARTCHAR uni042D.c2sc
ENCODING -1
SWIDTH 563 0
DWIDTH 5 0
BBX 5 5 0 0
BITMAP
1900
A700
0B40
5700
7E00
ENDCHAR
STARTCHAR uni042E.c2sc
ENCODING -1
SWIDTH 830 0
DWIDTH 7 0
BBX 7 5 0 0
BITMAP
5190
AA70
BD24
A934
A7E0
ENDCHAR
STARTCHAR uni042F.c2sc
ENCODING -1
SWIDTH 563 0
DWIDTH 5 0
BBX 4 5 0 0
BITMAP
1A
77
7B
37
A3
ENDCHAR
STARTCHAR uni0492.c2sc
ENCODING -1
SWIDTH 526 0
DWIDTH 4 0
BBX 4 5 0 0
BITMAP
2A
35
B4
70
30
ENDCHAR
STARTCHAR uni0496.c2sc
ENCODING -1
SWIDTH 862 0
DWIDTH 7 0
BBX 7 7 0 -2
BITMAP
5520
76A0
2FD0
3BA0
A678
0018
0004
ENDCHAR
STARTCHAR uni049A.c2sc
ENCODING -1
SWIDTH 593 0
DWIDTH 5 0
BBX 5 7 0 -2
BITMAP
5200
AA00
BC00
AD00
A780
0180
0040
ENDCHAR
STARTCHAR uni049C.c2sc
ENCODING -1
SWIDTH 635 0
DWIDTH 5 0
BBX 5 5 0 0
BITMAP
5140
A740
BE00
AB00
A280
ENDCHAR
STARTCHAR uni04A0.c2sc
ENCODING -1
SWIDTH 704 0
DWIDTH 6 0
BBX 6 5 0 0
BITMAP
6480
6980
1F40
1A80
18D0
ENDCHAR
STARTCHAR uni04A8.c2sc
ENCODING -1
SWIDTH 765 0
DWIDTH 6 0
BBX 6 5 0 0
BITMAP
1680
6AA0
9960
A6A0
2FE0
ENDCHAR
STARTCHAR uni04B0.c2sc
ENCODING -1
SWIDTH 539 0
DWIDTH 4 0
BBX 4 5 0 0
BITMAP
52
66
3D
3D
18
ENDCHAR
STARTCHAR uni04B2.c2sc
ENCODING -1
SWIDTH 606 0
DWIDTH 5 0
BBX 5 7 0 -2
BITMAP
5200
7A00
2C00
3D00
A780
0180
0040
ENDCHAR
STARTCHAR uni04B4.c2sc
ENCODING -1
SWIDTH 845 0
DWIDTH 7 0
BBX 7 7 0 -2
BITMAP
6950
69A0
28A0
28A0
2FF4
0024
0010
ENDCHAR
STARTCHAR uni04B8.c2sc
ENCODING -1
SWIDTH 582 0
DWIDTH 5 0
BBX 5 5 0 0
BITMAP
5100
9740
AB40
1B40
0740
ENDCHAR
STARTCHAR uni04BA.c2sc
ENCODING -1
SWIDTH 582 0
DWIDTH 5 0
BBX 5 5 0 0
BITMAP
5000
A000
BE00
A240
A240
ENDCHAR
STARTCHAR uni04BC.c2sc
ENCODING -1
SWIDTH 773 0
DWIDTH 6 0
BBX 6 5 0 0
BITMAP
0680
9DA0
BEB0
1D40
0BD0
ENDCHAR
STARTCHAR uni04D8.c2sc
ENCODING -1
SWIDTH 602 0
DWIDTH 5 0
BBX 5 5 0 0
BITMAP
2900
1740
AB80
A240
7E00
ENDCHAR
STARTCHAR uni04E0.c2sc
ENCODING -1
SWIDTH 537 0
DWIDTH 4 0
BBX 4 5 0 0
BITMAP
69
5D
1D
47
7E
ENDCHAR
STARTCHAR uni04E8.c2sc
ENCODING -1
SWIDTH 593 0
DWIDTH 5 0
BBX 5 5 0 0
BITMAP
1900
6740
BB40
A740
3E00
ENDCHAR
STARTCHAR lira.c2sc
ENCODING -1
SWIDTH 571 0
DWIDTH 5 0
BBX 5 5 0 0
BITMAP
1900
3700
B900
B900
7F40
ENDCHAR
STARTCHAR Euro.c2sc
ENCODING -1
SWIDTH 501 0
DWIDTH 4 0
BBX 4 5 0 0
BITMAP
19
39
B9
79
2E
ENDCHAR
STARTCHAR uni2116.c2sc
ENCODING -1
SWIDTH 1028 0
DWIDTH 8 0
BBX 8 5 0 0
BITMAP
5159
B662
AA66
AB59
A340
ENDCHAR
STARTCHAR uni20BD.c2sc
ENCODING -1
SWIDTH 646 0
DWIDTH 5 0
BBX 5 5 0 0
BITMAP
2900
3680
7680
B900
7800
ENDCHAR
STARTCHAR three.dnom
ENCODING -1
SWIDTH 372 0
DWIDTH 3 0
BBX 3 3 0 0
BITMAP
68
24
A4
ENDCHAR
STARTCHAR four.dnom
ENCODING -1
SWIDTH 372 0
DWIDTH 3 0
BBX 3 3 0 0
BITMAP
24
A8
68
ENDCHAR
STARTCHAR five.dnom
ENCODING -1
SWIDTH 372 0
DWIDTH 3 0
BBX 3 3 0 0
BITMAP
A4
68
64
ENDCHAR
STARTCHAR six.dnom
ENCODING -1
SWIDTH 372 0
DWIDTH 3 0
BBX 3 3 0 0
BITMAP
60
A8
68
ENDCHAR
STARTCHAR seven.dnom
ENCODING -1
SWIDTH 372 0
DWIDTH 3 0
BBX 3 3 0 0
BITMAP
68
20
60
ENDCHAR
STARTCHAR eight.dnom
ENCODING -1
SWIDTH 372 0
DWIDTH 3 0
BBX 3 3 0 0
BITMAP
A4
64
A8
ENDCHAR
STARTCHAR nine.dnom
ENCODING -1
SWIDTH 372 0
DWIDTH 3 0
BBX 3 3 0 0
BITMAP
A4
A8
24
ENDCHAR
STARTCHAR glyph550
ENCODING -1
SWIDTH 477 0
DWIDTH 4 0
BBX 3 2 0 2
BITMAP
14
54
ENDCHAR
STARTCHAR glyph551
ENCODING -1
SWIDTH 333 0
DWIDTH 3 0
BBX 3 3 0 4
BITMAP
14
50
10
ENDCHAR
STARTCHAR E.c2sc
ENCODING -1
SWIDTH 481 0
DWIDTH 4 0
BBX 4 5 0 0
BITMAP
69
A5
B9
A0
BE
ENDCHAR
STARTCHAR g.ss01
ENCODING -1
SWIDTH 528 0
DWIDTH 4 0
BBX 4 7 0 -2
BITMAP
15
AB
AA
68
7E
D7
69
ENDCHAR
STARTCHAR alpha.ss02
ENCODING -1
SWIDTH 584 0
DWIDTH 5 0
BBX 5 5 0 0
BITMAP
1000
7B40
9300
A300
7A40
ENDCHAR
STARTCHAR R.ss03
ENCODING -1
SWIDTH 652 0
DWIDTH 5 0
BBX 5 6 0 0
BITMAP
6A00
6680
6680
7B40
6280
6180
ENDCHAR
STARTCHAR K.ss04
ENCODING -1
SWIDTH 645 0
DWIDTH 5 0
BBX 5 6 0 0
BITMAP
5180
6340
6A00
7E00
6340
61C0
ENDCHAR
STARTCHAR k.ss04
ENCODING -1
SWIDTH 534 0
DWIDTH 4 0
BBX 4 6 0 0
BITMAP
A0
A1
AA
BC
AD
A7
ENDCHAR
STARTCHAR K.ss05
ENCODING -1
SWIDTH 648 0
DWIDTH 5 0
BBX 5 6 0 0
BITMAP
5140
6700
6D00
7D00
6B00
6280
ENDCHAR
STARTCHAR k.ss05
ENCODING -1
SWIDTH 531 0
DWIDTH 4 0
BBX 4 6 0 0
BITMAP
A0
A1
AA
B8
AD
A7
ENDCHAR
STARTCHAR D.c2sc
ENCODING -1
SWIDTH 557 0
DWIDTH 4 0
BBX 5 5 0 0
BITMAP
6400
AA00
A340
A300
BD00
ENDCHAR
STARTCHAR C.c2sc
ENCODING -1
SWIDTH 563 0
DWIDTH 5 0
BBX 4 5 0 0
BITMAP
19
67
90
92
7E
ENDCHAR
STARTCHAR B.c2sc
ENCODING -1
SWIDTH 553 0
DWIDTH 4 0
BBX 4 5 0 0
BITMAP
69
AB
BA
A7
BE
ENDCHAR
STARTCHAR A.c2sc
ENCODING -1
SWIDTH 583 0
DWIDTH 5 0
BBX 5 5 0 0
BITMAP
1800
2D00
3600
7B00
9240
ENDCHAR
STARTCHAR glyph564
ENCODING -1
SWIDTH 250 0
DWIDTH 2 0
BBX 2 2 0 4
BITMAP
60
50
ENDCHAR
STARTCHAR glyph565
ENCODING -1
SWIDTH 451 0
DWIDTH 4 0
BBX 3 2 0 5
BITMAP
10
68
ENDCHAR
STARTCHAR glyph566
ENCODING -1
SWIDTH 0 0
DWIDTH 0 0
BBX 2 2 -3 5
BITMAP
10
90
ENDCHAR
STARTCHAR glyph567
ENCODING -1
SWIDTH 503 0
DWIDTH 4 0
BBX 4 2 1 5
BITMAP
05
A4
ENDCHAR
STARTCHAR glyph568
ENCODING -1
SWIDTH 503 0
DWIDTH 4 0
BBX 4 2 -1 5
BITMAP
40
1A
ENDCHAR
STARTCHAR glyph569
ENCODING -1
SWIDTH 503 0
DWIDTH 4 0
BBX 3 2 1 5
BITMAP
08
A4
ENDCHAR
STARTCHAR glyph570
ENCODING -1
SWIDTH 503 0
DWIDTH 4 0
BBX 2 2 1 5
BITMAP
50
90
ENDCHAR
STARTCHAR uni0490.c2sc
ENCODING -1
SWIDTH 471 0
DWIDTH 4 0
BBX 4 6 0 0
BITMAP
06
6A
A5
A0
A0
A0
ENDCHAR
STARTCHAR glyph572
ENCODING -1
SWIDTH 451 0
DWIDTH 4 0
BBX 3 2 0 5
BITMAP
04
68
ENDCHAR
STARTCHAR glyph573
ENCODING -1
SWIDTH 451 0
DWIDTH 4 0
BBX 3 3 0 4
BITMAP
14
68
10
ENDCHAR
STARTCHAR zero.numr
ENCODING -1
SWIDTH 372 0
DWIDTH 3 0
BBX 3 4 0 2
BITMAP
64
98
98
10
ENDCHAR
STARTCHAR four.numr
ENCODING -1
SWIDTH 372 0
DWIDTH 3 0
BBX 3 3 0 3
BITMAP
14
64
A8
ENDCHAR
STARTCHAR five.numr
ENCODING -1
SWIDTH 372 0
DWIDTH 3 0
BBX 3 4 0 2
BITMAP
64
A4
58
10
ENDCHAR
STARTCHAR six.numr
ENCODING -1
SWIDTH 372 0
DWIDTH 3 0
BBX 3 4 0 2
BITMAP
20
A4
98
10
ENDCHAR
STARTCHAR seven.numr
ENCODING -1
SWIDTH 372 0
DWIDTH 3 0
BBX 3 4 0 2
BITMAP
A4
14
20
10
ENDCHAR
STARTCHAR eight.numr
ENCODING -1
SWIDTH 372 0
DWIDTH 3 0
BBX 3 4 0 2
BITMAP
64
64
A8
10
ENDCHAR
STARTCHAR nine.numr
ENCODING -1
SWIDTH 372 0
DWIDTH 3 0
BBX 3 4 0 2
BITMAP
64
98
28
10
ENDCHAR
STARTCHAR C.ss06
ENCODING -1
SWIDTH 676 0
DWIDTH 5 0
BBX 5 6 0 0
BITMAP
1A40
75C0
A040
A000
61C0
2F40
ENDCHAR
STARTCHAR G.ss06
ENCODING -1
SWIDTH 696 0
DWIDTH 6 0
BBX 5 6 0 0
BITMAP
1A40
75C0
A000
A3C0
70C0
2F80
ENDCHAR
STARTCHAR D.ss06
ENCODING -1
SWIDTH 680 0
DWIDTH 5 0
BBX 5 6 0 0
BITMAP
6900
6680
61C0
60C0
6280
7E00
ENDCHAR
STARTCHAR O.ss06
ENCODING -1
SWIDTH 729 0
DWIDTH 6 0
BBX 6 6 0 0
BITMAP
1A40
75C0
A090
A090
70D0
2F40
ENDCHAR
STARTCHAR Q.ss06
ENCODING -1
SWIDTH 729 0
DWIDTH 6 0
BBX 6 7 0 -1
BITMAP
1A40
75C0
A090
A090
70D0
2F80
0080
ENDCHAR
STARTCHAR one.oldstyle.pnum
ENCODING -1
SWIDTH 550 0
DWIDTH 4 0
BBX 3 5 0 0
BITMAP
04
7C
0C
0C
0C
ENDCHAR
STARTCHAR two.oldstyle.pnum
ENCODING -1
SWIDTH 563 0
DWIDTH 5 0
BBX 5 5 0 0
BITMAP
1900
6700
0600
2800
BF40
ENDCHAR
STARTCHAR three.oldstyle.pnum
ENCODING -1
SWIDTH 542 0
DWIDTH 4 0
BBX 4 7 0 -2
BITMAP
69
5D
28
1A
07
AE
14
ENDCHAR
STARTCHAR four.oldstyle.pnum
ENCODING -1
SWIDTH 583 0
DWIDTH 5 0
BBX 5 6 0 -1
BITMAP
0500
0E00
2A00
6600
BF40
0600
ENDCHAR
STARTCHAR five.oldstyle.pnum
ENCODING -1
SWIDTH 552 0
DWIDTH 4 0
BBX 5 7 0 -2
BITMAP
2A00
6500
6900
5700
0340
6A00
1400
ENDCHAR
STARTCHAR seven.oldstyle.pnum
ENCODING -1
SWIDTH 522 0
DWIDTH 4 0
BBX 4 7 0 -2
BITMAP
6A
57
0A
0C
18
34
10
ENDCHAR
STARTCHAR glyph592
ENCODING -1
SWIDTH 451 0
DWIDTH 4 0
BBX 3 2 0 5
BITMAP
64
58
ENDCHAR
STARTCHAR glyph593
ENCODING -1
SWIDTH 230 0
DWIDTH 2 0
BBX 2 3 0 -2
BITMAP
90
90
50
ENDCHAR
STARTCHAR OE.c2sc
ENCODING -1
SWIDTH 819 0
DWIDTH 7 0
BBX 7 5 0 0
BITMAP
1AA4
6750
93E0
A340
3FF4
ENDCHAR
STARTCHAR nine.oldstyle.pnum
ENCODING -1
SWIDTH 581 0
DWIDTH 5 0
BBX 5 7 0 -2
BITMAP
1900
7700
A240
7B40
1740
2A00
0400
ENDCHAR
STARTCHAR glyph596
ENCODING -1
SWIDTH 263 0
DWIDTH 2 0
BBX 3 3 -1 -2
BITMAP
18
28
60
ENDCHAR
STARTCHAR three.oldstyle
ENCODING -1
SWIDTH 573 0
DWIDTH 5 0
BBX 4 7 0 -2
BITMAP
6A
5E
1C
17
03
AA
14
ENDCHAR
STARTCHAR five.oldstyle
ENCODING -1
SWIDTH 573 0
DWIDTH 5 0
BBX 4 7 0 -2
BITMAP
2A
65
69
57
03
6A
14
ENDCHAR
STARTCHAR four.oldstyle
ENCODING -1
SWIDTH 573 0
DWIDTH 5 0
BBX 5 6 0 -1
BITMAP
0500
0F00
2B00
6700
BF40
0700
ENDCHAR
STARTCHAR two.oldstyle
ENCODING -1
SWIDTH 573 0
DWIDTH 5 0
BBX 5 5 0 0
BITMAP
1900
A700
0A00
2800
BF40
ENDCHAR
STARTCHAR seven.oldstyle
ENCODING -1
SWIDTH 573 0
DWIDTH 5 0
BBX 4 7 0 -2
BITMAP
6A
57
06
0D
18
24
10
ENDCHAR
STARTCHAR zero.oldstyle
ENCODING -1
SWIDTH 573 0
DWIDTH 5 0
BBX 5 5 0 0
BITMAP
1900
6700
9240
9340
7E00
ENDCHAR
STARTCHAR six.oldstyle
ENCODING -1
SWIDTH 573 0
DWIDTH 5 0
BBX 5 6 0 0
BITMAP
1900
3400
BA00
A740
A340
2E00
ENDCHAR
STARTCHAR nine.oldstyle
ENCODING -1
SWIDTH 573 0
DWIDTH 5 0
BBX 5 7 0 -2
BITMAP
1900
6700
A240
7B40
1700
2E00
0400
ENDCHAR
STARTCHAR eight.oldstyle
ENCODING -1
SWIDTH 573 0
DWIDTH 5 0
BBX 4 6 0 0
BITMAP
29
67
7A
7A
A3
7E
ENDCHAR
STARTCHAR one.oldstyle
ENCODING -1
SWIDTH 573 0
DWIDTH 5 0
BBX 3 5 1 0
BITMAP
14
F4
24
24
24
ENDCHAR
STARTCHAR glyph607
ENCODING -1
SWIDTH 281 0
DWIDTH 2 0
BBX 3 7 -1 -2
BITMAP
04
18
18
18
18
28
60
ENDCHAR
STARTCHAR glyph608
ENCODING -1
SWIDTH 281 0
DWIDTH 2 0
BBX 3 7 -1 -2
BITMAP
04
18
18
18
18
28
60
ENDCHAR
STARTCHAR glyph609
ENCODING -1
SWIDTH 273 0
DWIDTH 2 0
BBX 2 4 0 0
BITMAP
60
60
60
60
ENDCHAR
STARTCHAR glyph610
ENCODING -1
SWIDTH 273 0
DWIDTH 2 0
BBX 2 6 0 -2
BITMAP
60
60
60
A0
C0
50
ENDCHAR
STARTCHAR glyph611
ENCODING -1
SWIDTH 273 0
DWIDTH 2 0
BBX 2 4 0 0
BITMAP
60
60
60
60
ENDCHAR
STARTCHAR germandbls.sc
ENCODING -1
SWIDTH 553 0
DWIDTH 4 0
BBX 4 5 0 0
BITMAP
18
AA
AD
A3
AE
ENDCHAR
STARTCHAR zero.oldstyle.pnum
ENCODING -1
SWIDTH 602 0
DWIDTH 5 0
BBX 5 5 0 0
BITMAP
1900
6740
9240
A240
3E00
ENDCHAR
STARTCHAR seven.pnum
ENCODING -1
SWIDTH 530 0
DWIDTH 4 0
BBX 4 6 0 0
BITMAP
AA
56
09
0C
28
30
ENDCHAR
STARTCHAR b.ss06
ENCODING -1
SWIDTH 570 0
DWIDTH 5 0
BBX 5 6 0 0
BITMAP
A000
A400
BB00
A340
A340
BE00
ENDCHAR
STARTCHAR c.ss06
ENCODING -1
SWIDTH 534 0
DWIDTH 4 0
BBX 4 5 0 0
BITMAP
04
7A
91
91
7E
ENDCHAR
STARTCHAR d.ss06
ENCODING -1
SWIDTH 574 0
DWIDTH 5 0
BBX 4 6 0 0
BITMAP
03
13
7B
93
A3
7B
ENDCHAR
STARTCHAR g.ss06
ENCODING -1
SWIDTH 573 0
DWIDTH 5 0
BBX 4 7 0 -2
BITMAP
15
7B
93
A3
7B
17
29
ENDCHAR
STARTCHAR o.ss06
ENCODING -1
SWIDTH 576 0
DWIDTH 5 0
BBX 5 5 0 0
BITMAP
0400
7B00
9240
9340
7E00
ENDCHAR
STARTCHAR p.ss06
ENCODING -1
SWIDTH 572 0
DWIDTH 5 0
BBX 5 7 0 -2
BITMAP
0400
BB00
A340
A340
BE00
A000
5000
ENDCHAR
STARTCHAR q.ss06
ENCODING -1
SWIDTH 575 0
DWIDTH 5 0
BBX 4 7 0 -2
BITMAP
15
7B
93
A3
7B
03
02
ENDCHAR
STARTCHAR e.ss07
ENCODING -1
SWIDTH 540 0
DWIDTH 4 0
BBX 4 5 0 0
BITMAP
04
7A
AB
A5
3E
ENDCHAR
STARTCHAR g.ss07
ENCODING -1
SWIDTH 570 0
DWIDTH 5 0
BBX 4 7 0 -2
BITMAP
11
7B
93
93
7F
17
29
ENDCHAR
STARTCHAR one.pnum
ENCODING -1
SWIDTH 478 0
DWIDTH 4 0
BBX 3 6 0 0
BITMAP
18
AC
1C
1C
1C
1C
ENDCHAR
STARTCHAR ampersand.c2sc
ENCODING -1
SWIDTH 650 0
DWIDTH 5 0
BBX 5 5 0 0
BITMAP
1800
6900
3D00
AA40
7F40
ENDCHAR
STARTCHAR Lslash.c2sc
ENCODING -1
SWIDTH 476 0
DWIDTH 4 0
BBX 4 5 0 0
BITMAP
50
A0
A4
A0
BE
ENDCHAR
STARTCHAR AE.c2sc
ENCODING -1
SWIDTH 789 0
DWIDTH 6 0
BBX 6 5 0 0
BITMAP
0A90
1F50
37A0
7B00
D7F0
ENDCHAR
STARTCHAR Thorn.c2sc
ENCODING -1
SWIDTH 509 0
DWIDTH 4 0
BBX 4 5 0 0
BITMAP
50
B9
A7
BE
A0
ENDCHAR
STARTCHAR Oslash.c2sc
ENCODING -1
SWIDTH 593 0
DWIDTH 5 0
BBX 5 5 0 0
BITMAP
1A00
6740
9A40
B640
7E00
ENDCHAR
STARTCHAR Hbar.c2sc
ENCODING -1
SWIDTH 648 0
DWIDTH 5 0
BBX 5 5 0 0
BITMAP
5140
BBC0
7B80
6680
6280
ENDCHAR
STARTCHAR Eng.c2sc
ENCODING -1
SWIDTH 604 0
DWIDTH 5 0
BBX 5 7 0 -2
BITMAP
5140
B640
AA40
AB40
A340
0240
0600
ENDCHAR
STARTCHAR Dcroat.c2sc
ENCODING -1
SWIDTH 557 0
DWIDTH 4 0
BBX 6 5 -1 0
BITMAP
1900
2A80
7DD0
28C0
2F40
ENDCHAR
STARTCHAR Eth.c2sc
ENCODING -1
SWIDTH 557 0
DWIDTH 4 0
BBX 6 5 -1 0
BITMAP
1900
2A80
7DD0
28C0
2F40
ENDCHAR
STARTCHAR Tbar.c2sc
ENCODING -1
SWIDTH 539 0
DWIDTH 4 0
BBX 4 5 0 0
BITMAP
6A
69
7D
18
18
ENDCHAR
STARTCHAR Agrave.c2sc
ENCODING -1
SWIDTH 583 0
DWIDTH 5 0
BBX 5 6 0 0
BITMAP
2800
1800
2D00
3600
7B00
9240
ENDCHAR
STARTCHAR Aacute.c2sc
ENCODING -1
SWIDTH 583 0
DWIDTH 5 0
BBX 5 6 0 0
BITMAP
0900
1800
2D00
3600
7B00
9240
ENDCHAR
STARTCHAR Acircumflex.c2sc
ENCODING -1
SWIDTH 583 0
DWIDTH 5 0
BBX 5 6 0 0
BITMAP
2900
1800
2D00
3600
7B00
9240
ENDCHAR
STARTCHAR Atilde.c2sc
ENCODING -1
SWIDTH 583 0
DWIDTH 5 0
BBX 5 6 0 0
BITMAP
2A00
1800
2D00
3600
7B00
9240
ENDCHAR
STARTCHAR Adieresis.c2sc
ENCODING -1
SWIDTH 583 0
DWIDTH 5 0
BBX 5 6 0 0
BITMAP
2200
1800
2D00
3600
7B00
9240
ENDCHAR
STARTCHAR Aring.c2sc
ENCODING -1
SWIDTH 583 0
DWIDTH 5 0
BBX 5 7 0 0
BITMAP
0400
1800
1800
2D00
3600
7B00
9240
ENDCHAR
STARTCHAR Aringacute.c2sc
ENCODING -1
SWIDTH 583 0
DWIDTH 5 0
BBX 5 7 0 0
BITMAP
0500
1800
1C00
2D00
3600
7B00
9240
ENDCHAR
STARTCHAR Ccedilla.c2sc
ENCODING -1
SWIDTH 563 0
DWIDTH 5 0
BBX 4 7 0 -2
BITMAP
19
67
90
92
7E
0C
08
ENDCHAR
STARTCHAR Egrave.c2sc
ENCODING -1
SWIDTH 481 0
DWIDTH 4 0
BBX 4 6 0 0
BITMAP
24
69
A5
B9
A0
BE
ENDCHAR
STARTCHAR Eacute.c2sc
ENCODING -1
SWIDTH 481 0
DWIDTH 4 0
BBX 4 6 0 0
BITMAP
0C
69
A5
B9
A0
BE
ENDCHAR
STARTCHAR Ecircumflex.c2sc
ENCODING -1
SWIDTH 481 0
DWIDTH 4 0
BBX 4 6 0 0
BITMAP
29
69
A5
B9
A0
BE
ENDCHAR
STARTCHAR Edieresis.c2sc
ENCODING -1
SWIDTH 481 0
DWIDTH 4 0
BBX 4 6 0 0
BITMAP
65
69
A5
B9
A0
BE
ENDCHAR
STARTCHAR Igrave.c2sc
ENCODING -1
SWIDTH 257 0
DWIDTH 2 0
BBX 2 6 0 0
BITMAP
90
50
A0
A0
A0
A0
ENDCHAR
STARTCHAR Iacute.c2sc
ENCODING -1
SWIDTH 257 0
DWIDTH 2 0
BBX 2 6 0 0
BITMAP
20
50
A0
A0
A0
A0
ENDCHAR
STARTCHAR Icircumflex.c2sc
ENCODING -1
SWIDTH 257 0
DWIDTH 2 0
BBX 2 6 0 0
BITMAP
A0
50
A0
A0
A0
A0
ENDCHAR
STARTCHAR Idieresis.c2sc
ENCODING -1
SWIDTH 257 0
DWIDTH 2 0
BBX 4 6 -1 0
BITMAP
55
14
28
28
28
28
ENDCHAR
STARTCHAR Ntilde.c2sc
ENCODING -1
SWIDTH 604 0
DWIDTH 5 0
BBX 5 6 0 0
BITMAP
2A00
5140
B640
AA40
AB40
A340
ENDCHAR
STARTCHAR Ograve.c2sc
ENCODING -1
SWIDTH 593 0
DWIDTH 5 0
BBX 5 6 0 0
BITMAP
2800
1900
6740
9240
A240
3E00
ENDCHAR
STARTCHAR Oacute.c2sc
ENCODING -1
SWIDTH 593 0
DWIDTH 5 0
BBX 5 6 0 0
BITMAP
0900
1900
6740
9240
A240
3E00
ENDCHAR
STARTCHAR Ocircumflex.c2sc
ENCODING -1
SWIDTH 593 0
DWIDTH 5 0
BBX 5 6 0 0
BITMAP
2900
1900
6740
9240
A240
3E00
ENDCHAR
STARTCHAR Otilde.c2sc
ENCODING -1
SWIDTH 593 0
DWIDTH 5 0
BBX 5 6 0 0
BITMAP
2A00
1900
6740
9240
A240
3E00
ENDCHAR
STARTCHAR Odieresis.c2sc
ENCODING -1
SWIDTH 593 0
DWIDTH 5 0
BBX 5 6 0 0
BITMAP
2200
1900
6740
9240
A240
3E00
ENDCHAR
STARTCHAR Ugrave.c2sc
ENCODING -1
SWIDTH 569 0
DWIDTH 5 0
BBX 5 6 0 0
BITMAP
2400
5200
A340
A340
A300
7E00
ENDCHAR
STARTCHAR Uacute.c2sc
ENCODING -1
SWIDTH 569 0
DWIDTH 5 0
BBX 5 6 0 0
BITMAP
0900
5200
A340
A340
A300
7E00
ENDCHAR
STARTCHAR Ucircumflex.c2sc
ENCODING -1
SWIDTH 569 0
DWIDTH 5 0
BBX 5 6 0 0
BITMAP
2900
5200
A340
A340
A300
7E00
ENDCHAR
STARTCHAR Udieresis.c2sc
ENCODING -1
SWIDTH 569 0
DWIDTH 5 0
BBX 5 6 0 0
BITMAP
2600
5200
A340
A340
A300
7E00
ENDCHAR
STARTCHAR Yacute.c2sc
ENCODING -1
SWIDTH 537 0
DWIDTH 4 0
BBX 4 6 0 0
BITMAP
0C
52
66
3D
18
18
ENDCHAR
STARTCHAR Amacron.c2sc
ENCODING -1
SWIDTH 583 0
DWIDTH 5 0
BBX 5 6 0 0
BITMAP
2900
1800
2D00
3600
7B00
9240
ENDCHAR
STARTCHAR Abreve.c2sc
ENCODING -1
SWIDTH 583 0
DWIDTH 5 0
BBX 5 6 0 0
BITMAP
2900
1800
2D00
3600
7B00
9240
ENDCHAR
STARTCHAR Aogonek.c2sc
ENCODING -1
SWIDTH 583 0
DWIDTH 5 0
BBX 5 7 0 -2
BITMAP
1800
2D00
3600
7B00
9240
0200
0140
ENDCHAR
STARTCHAR Cacute.c2sc
ENCODING -1
SWIDTH 563 0
DWIDTH 5 0
BBX 4 6 0 0
BITMAP
09
19
67
90
92
7E
ENDCHAR
STARTCHAR Ccircumflex.c2sc
ENCODING -1
SWIDTH 563 0
DWIDTH 5 0
BBX 4 6 0 0
BITMAP
29
19
67
90
92
7E
ENDCHAR
STARTCHAR Cdotaccent.c2sc
ENCODING -1
SWIDTH 563 0
DWIDTH 5 0
BBX 4 6 0 0
BITMAP
08
19
67
90
92
7E
ENDCHAR
STARTCHAR Ccaron.c2sc
ENCODING -1
SWIDTH 563 0
DWIDTH 5 0
BBX 4 6 0 0
BITMAP
29
19
67
90
92
7E
ENDCHAR
STARTCHAR Dcaron.c2sc
ENCODING -1
SWIDTH 557 0
DWIDTH 4 0
BBX 5 6 0 0
BITMAP
6800
6400
AA00
A340
A300
BD00
ENDCHAR
STARTCHAR Emacron.c2sc
ENCODING -1
SWIDTH 481 0
DWIDTH 4 0
BBX 4 6 0 0
BITMAP
29
69
A5
B9
A0
BE
ENDCHAR
STARTCHAR Ebreve.c2sc
ENCODING -1
SWIDTH 481 0
DWIDTH 4 0
BBX 4 6 0 0
BITMAP
29
69
A5
B9
A0
BE
ENDCHAR
STARTCHAR Edotaccent.c2sc
ENCODING -1
SWIDTH 481 0
DWIDTH 4 0
BBX 4 6 0 0
BITMAP
18
69
A5
B9
A0
BE
ENDCHAR
STARTCHAR Eogonek.c2sc
ENCODING -1
SWIDTH 481 0
DWIDTH 4 0
BBX 4 7 0 -2
BITMAP
69
A5
B9
A0
BE
08
08
ENDCHAR
STARTCHAR Ecaron.c2sc
ENCODING -1
SWIDTH 481 0
DWIDTH 4 0
BBX 4 6 0 0
BITMAP
29
69
A5
B9
A0
BE
ENDCHAR
STARTCHAR Gcircumflex.c2sc
ENCODING -1
SWIDTH 579 0
DWIDTH 5 0
BBX 5 6 0 0
BITMAP
2900
1900
6740
9500
A740
3F40
ENDCHAR
STARTCHAR Gbreve.c2sc
ENCODING -1
SWIDTH 579 0
DWIDTH 5 0
BBX 5 6 0 0
BITMAP
2A00
1900
6740
9500
A740
3F40
ENDCHAR
STARTCHAR Gdotaccent.c2sc
ENCODING -1
SWIDTH 579 0
DWIDTH 5 0
BBX 5 6 0 0
BITMAP
0800
1900
6740
9500
A740
3F40
ENDCHAR
STARTCHAR uni0122.c2sc
ENCODING -1
SWIDTH 579 0
DWIDTH 5 0
BBX 5 7 0 -2
BITMAP
1900
6740
9500
A740
3F40
0800
0800
ENDCHAR
STARTCHAR Hcircumflex.c2sc
ENCODING -1
SWIDTH 604 0
DWIDTH 5 0
BBX 5 6 0 0
BITMAP
2900
5140
A240
BB40
A640
A240
ENDCHAR
STARTCHAR Itilde.c2sc
ENCODING -1
SWIDTH 257 0
DWIDTH 2 0
BBX 4 6 -1 0
BITMAP
69
14
28
28
28
28
ENDCHAR
STARTCHAR Imacron.c2sc
ENCODING -1
SWIDTH 257 0
DWIDTH 2 0
BBX 4 6 -1 0
BITMAP
69
14
28
28
28
28
ENDCHAR
STARTCHAR Ibreve.c2sc
ENCODING -1
SWIDTH 257 0
DWIDTH 2 0
BBX 3 6 0 0
BITMAP
A4
50
A0
A0
A0
A0
ENDCHAR
STARTCHAR Iogonek.c2sc
ENCODING -1
SWIDTH 257 0
DWIDTH 2 0
BBX 2 7 0 -2
BITMAP
50
A0
A0
A0
A0
90
50
ENDCHAR
STARTCHAR Idotaccent.c2sc
ENCODING -1
SWIDTH 257 0
DWIDTH 2 0
BBX 2 6 0 0
BITMAP
50
50
A0
A0
A0
A0
ENDCHAR
STARTCHAR Jcircumflex.c2sc
ENCODING -1
SWIDTH 482 0
DWIDTH 4 0
BBX 4 6 0 0
BITMAP
1A
05
09
09
49
7C
ENDCHAR
STARTCHAR uni0136.c2sc
ENCODING -1
SWIDTH 548 0
DWIDTH 4 0
BBX 4 7 0 -2
BITMAP
52
AA
BC
A9
A7
14
20
ENDCHAR
STARTCHAR Lacute.c2sc
ENCODING -1
SWIDTH 465 0
DWIDTH 4 0
BBX 4 6 0 0
BITMAP
60
50
A0
A0
A0
BE
ENDCHAR
STARTCHAR uni013B.c2sc
ENCODING -1
SWIDTH 465 0
DWIDTH 4 0
BBX 4 7 0 -2
BITMAP
50
A0
A0
A0
BE
14
20
ENDCHAR
STARTCHAR Lcaron.c2sc
ENCODING -1
SWIDTH 465 0
DWIDTH 4 0
BBX 4 5 0 0
BITMAP
54
A8
A0
A0
BE
ENDCHAR
STARTCHAR Ldot.c2sc
ENCODING -1
SWIDTH 465 0
DWIDTH 4 0
BBX 4 5 0 0
BITMAP
50
A0
A8
A0
BE
ENDCHAR
STARTCHAR Nacute.c2sc
ENCODING -1
SWIDTH 604 0
DWIDTH 5 0
BBX 5 6 0 0
BITMAP
0900
5140
B640
AA40
AB40
A340
ENDCHAR
STARTCHAR uni0145.c2sc
ENCODING -1
SWIDTH 604 0
DWIDTH 5 0
BBX 5 7 0 -2
BITMAP
5140
B640
AA40
AB40
A340
0800
0800
ENDCHAR
STARTCHAR Ncaron.c2sc
ENCODING -1
SWIDTH 604 0
DWIDTH 5 0
BBX 5 6 0 0
BITMAP
1900
5140
B640
AA40
AB40
A340
ENDCHAR
STARTCHAR Omacron.c2sc
ENCODING -1
SWIDTH 593 0
DWIDTH 5 0
BBX 5 6 0 0
BITMAP
2900
1900
6740
9240
A240
3E00
ENDCHAR
STARTCHAR Obreve.c2sc
ENCODING -1
SWIDTH 593 0
DWIDTH 5 0
BBX 5 6 0 0
BITMAP
2900
1900
6740
9240
A240
3E00
ENDCHAR
STARTCHAR Ohungarumlaut.c2sc
ENCODING -1
SWIDTH 593 0
DWIDTH 5 0
BBX 5 6 0 0
BITMAP
1A00
1900
6740
9240
A240
3E00
ENDCHAR
STARTCHAR Racute.c2sc
ENCODING -1
SWIDTH 557 0
DWIDTH 4 0
BBX 4 6 0 0
BITMAP
18
69
A7
AB
A9
A7
ENDCHAR
STARTCHAR uni0156.c2sc
ENCODING -1
SWIDTH 557 0
DWIDTH 4 0
BBX 4 7 0 -2
BITMAP
69
A7
AB
A9
A7
14
14
ENDCHAR
STARTCHAR Rcaron.c2sc
ENCODING -1
SWIDTH 557 0
DWIDTH 4 0
BBX 4 6 0 0
BITMAP
28
69
A7
AB
A9
A7
ENDCHAR
STARTCHAR Sacute.c2sc
ENCODING -1
SWIDTH 535 0
DWIDTH 4 0
BBX 4 6 0 0
BITMAP
09
29
A6
79
57
7E
ENDCHAR
STARTCHAR Scircumflex.c2sc
ENCODING -1
SWIDTH 535 0
DWIDTH 4 0
BBX 4 6 0 0
BITMAP
29
19
A6
79
57
7E
ENDCHAR
STARTCHAR Scedilla.c2sc
ENCODING -1
SWIDTH 535 0
DWIDTH 4 0
BBX 4 7 0 -2
BITMAP
19
A6
79
57
7E
0C
08
ENDCHAR
STARTCHAR Scaron.c2sc
ENCODING -1
SWIDTH 535 0
DWIDTH 4 0
BBX 4 6 0 0
BITMAP
29
19
A6
79
57
7E
ENDCHAR
STARTCHAR uni021A.c2sc
ENCODING -1
SWIDTH 539 0
DWIDTH 4 0
BBX 4 7 0 -2
BITMAP
6A
69
18
18
18
14
14
ENDCHAR
STARTCHAR Tcaron.c2sc
ENCODING -1
SWIDTH 539 0
DWIDTH 4 0
BBX 4 6 0 0
BITMAP
28
6A
69
18
18
18
ENDCHAR
STARTCHAR uni0162.c2sc
ENCODING -1
SWIDTH 539 0
DWIDTH 4 0
BBX 4 7 0 -2
BITMAP
6A
69
18
18
18
18
18
ENDCHAR
STARTCHAR Utilde.c2sc
ENCODING -1
SWIDTH 569 0
DWIDTH 5 0
BBX 5 6 0 0
BITMAP
2A00
5200
A340
A340
A300
7E00
ENDCHAR
STARTCHAR Umacron.c2sc
ENCODING -1
SWIDTH 569 0
DWIDTH 5 0
BBX 5 6 0 0
BITMAP
2900
5200
A340
A340
A300
7E00
ENDCHAR
STARTCHAR Ubreve.c2sc
ENCODING -1
SWIDTH 569 0
DWIDTH 5 0
BBX 5 6 0 0
BITMAP
2900
5200
A340
A340
A300
7E00
ENDCHAR
STARTCHAR Uring.c2sc
ENCODING -1
SWIDTH 569 0
DWIDTH 5 0
BBX 5 7 0 0
BITMAP
0400
1800
5200
A340
A340
A300
7E00
ENDCHAR
STARTCHAR Uhungarumlaut.c2sc
ENCODING -1
SWIDTH 569 0
DWIDTH 5 0
BBX 5 6 0 0
BITMAP
2A00
5200
A340
A340
A300
7E00
ENDCHAR
STARTCHAR Uogonek.c2sc
ENCODING -1
SWIDTH 569 0
DWIDTH 5 0
BBX 5 7 0 -2
BITMAP
5200
A340
A340
A300
7E00
0C00
0400
ENDCHAR
STARTCHAR Wcircumflex.c2sc
ENCODING -1
SWIDTH 748 0
DWIDTH 6 0
BBX 6 6 0 0
BITMAP
0A00
4510
9A60
6F90
7AC0
35C0
ENDCHAR
STARTCHAR Ycircumflex.c2sc
ENCODING -1
SWIDTH 537 0
DWIDTH 4 0
BBX 4 6 0 0
BITMAP
29
52
66
3D
18
18
ENDCHAR
STARTCHAR Ydieresis.c2sc
ENCODING -1
SWIDTH 537 0
DWIDTH 4 0
BBX 4 6 0 0
BITMAP
65
52
66
3D
18
18
ENDCHAR
STARTCHAR Zacute.c2sc
ENCODING -1
SWIDTH 523 0
DWIDTH 4 0
BBX 4 6 0 0
BITMAP
0C
6A
5A
1C
34
BF
ENDCHAR
STARTCHAR Zdotaccent.c2sc
ENCODING -1
SWIDTH 523 0
DWIDTH 4 0
BBX 4 6 0 0
BITMAP
18
6A
5A
1C
34
BF
ENDCHAR
STARTCHAR Zcaron.c2sc
ENCODING -1
SWIDTH 523 0
DWIDTH 4 0
BBX 4 6 0 0
BITMAP
28
6A
5A
1C
34
BF
ENDCHAR
STARTCHAR two.pnum
ENCODING -1
SWIDTH 573 0
DWIDTH 5 0
BBX 5 6 0 0
BITMAP
2900
A700
0700
0D00
3400
BF40
ENDCHAR
STARTCHAR three.pnum
ENCODING -1
SWIDTH 573 0
DWIDTH 5 0
BBX 4 6 0 0
BITMAP
29
67
0A
1A
53
7E
ENDCHAR
STARTCHAR four.pnum
ENCODING -1
SWIDTH 573 0
DWIDTH 5 0
BBX 5 6 0 0
BITMAP
0600
1E00
2A00
6600
AF40
0600
ENDCHAR
STARTCHAR five.pnum
ENCODING -1
SWIDTH 573 0
DWIDTH 5 0
BBX 5 6 0 0
BITMAP
2A00
6500
7900
1700
5340
3E00
ENDCHAR
STARTCHAR six.pnum
ENCODING -1
SWIDTH 583 0
DWIDTH 5 0
BBX 5 6 0 0
BITMAP
0900
3400
7A00
A740
6340
2E00
ENDCHAR
STARTCHAR eight.pnum
ENCODING -1
SWIDTH 593 0
DWIDTH 5 0
BBX 5 6 0 0
BITMAP
2900
7700
7B00
7A00
6340
3E00
ENDCHAR
STARTCHAR nine.pnum
ENCODING -1
SWIDTH 583 0
DWIDTH 5 0
BBX 4 6 0 0
BITMAP
29
67
A3
7B
06
29
ENDCHAR
STARTCHAR zero.pnum
ENCODING -1
SWIDTH 593 0
DWIDTH 5 0
BBX 5 6 0 0
BITMAP
2900
6700
A340
A240
6340
2E00
ENDCHAR
STARTCHAR G_acutecomb.ccmp
ENCODING -1
SWIDTH 681 0
DWIDTH 5 0
BBX 5 8 0 0
BITMAP
0100
0500
1A00
7680
A000
A7C0
61C0
2F80
ENDCHAR
STARTCHAR g_acutecomb.ccmp
ENCODING -1
SWIDTH 570 0
DWIDTH 5 0
BBX 4 8 0 -2
BITMAP
09
15
7B
93
A3
7B
17
29
ENDCHAR
STARTCHAR N_gravecomb.ccmp
ENCODING -1
SWIDTH 706 0
DWIDTH 6 0
BBX 5 7 0 0
BITMAP
0800
6080
74C0
7CC0
6AC0
63C0
61C0
ENDCHAR
STARTCHAR n_gravecomb.ccmp
ENCODING -1
SWIDTH 560 0
DWIDTH 4 0
BBX 4 6 0 0
BITMAP
24
04
BB
A3
A3
A3
ENDCHAR
STARTCHAR A_uni030F.ccmp
ENCODING -1
SWIDTH 672 0
DWIDTH 5 0
BBX 6 7 0 0
BITMAP
2900
0900
1E00
2B00
3640
7B80
90D0
ENDCHAR
STARTCHAR a_uni030F.ccmp
ENCODING -1
SWIDTH 536 0
DWIDTH 4 0
BBX 4 6 0 0
BITMAP
A8
14
7A
2B
A7
7B
ENDCHAR
STARTCHAR E_uni030F.ccmp
ENCODING -1
SWIDTH 562 0
DWIDTH 5 0
BBX 5 7 0 0
BITMAP
2900
6A40
6500
6500
7900
6000
7F40
ENDCHAR
STARTCHAR e_uni030F.ccmp
ENCODING -1
SWIDTH 540 0
DWIDTH 4 0
BBX 4 6 0 0
BITMAP
A8
14
7A
AB
A5
3E
ENDCHAR
STARTCHAR I_uni030F.ccmp
ENCODING -1
SWIDTH 291 0
DWIDTH 2 0
BBX 3 7 -1 0
BITMAP
68
18
18
18
18
18
18
ENDCHAR
STARTCHAR dotlessi_uni030F.ccmp
ENCODING -1
SWIDTH 273 0
DWIDTH 2 0
BBX 3 6 -1 0
BITMAP
A8
14
18
18
18
18
ENDCHAR
STARTCHAR O_uni030F.ccmp
ENCODING -1
SWIDTH 690 0
DWIDTH 6 0
BBX 5 7 0 0
BITMAP
2A00
1A00
7680
A0C0
A0C0
61C0
2F40
ENDCHAR
STARTCHAR o_uni030F.ccmp
ENCODING -1
SWIDTH 565 0
DWIDTH 5 0
BBX 5 6 0 0
BITMAP
6800
1400
7A00
9340
A300
7E00
ENDCHAR
STARTCHAR R_uni030F.ccmp
ENCODING -1
SWIDTH 638 0
DWIDTH 5 0
BBX 5 7 0 0
BITMAP
6800
6A00
6680
6280
7F00
6340
6280
ENDCHAR
STARTCHAR r_uni030F.ccmp
ENCODING -1
SWIDTH 364 0
DWIDTH 3 0
BBX 4 6 -1 0
BITMAP
69
15
2E
28
28
28
ENDCHAR
STARTCHAR U_uni030F.ccmp
ENCODING -1
SWIDTH 658 0
DWIDTH 5 0
BBX 5 7 0 0
BITMAP
2900
5180
A180
A180
A180
6180
2F40
ENDCHAR
STARTCHAR u_uni030F.ccmp
ENCODING -1
SWIDTH 559 0
DWIDTH 4 0
BBX 4 6 0 0
BITMAP
68
11
A3
A3
A3
7B
ENDCHAR
STARTCHAR Upsilon1_acutecomb.ccmp
ENCODING -1
SWIDTH 639 0
DWIDTH 5 0
BBX 7 7 -2 0
BITMAP
1000
5608
0368
02B0
00E0
00D0
00D0
ENDCHAR
STARTCHAR B_dotbelowcomb.ccmp
ENCODING -1
SWIDTH 638 0
DWIDTH 5 0
BBX 5 8 0 -2
BITMAP
6A00
6680
6640
7B40
6280
7F40
0800
0400
ENDCHAR
STARTCHAR b_dotbelowcomb.ccmp
ENCODING -1
SWIDTH 562 0
DWIDTH 5 0
BBX 5 8 0 -2
BITMAP
A000
A400
BB00
A340
A340
BE00
0800
0400
ENDCHAR
STARTCHAR D_dotbelowcomb.ccmp
ENCODING -1
SWIDTH 649 0
DWIDTH 5 0
BBX 5 8 0 -2
BITMAP
6900
6740
6180
6180
6280
7E00
1400
0400
ENDCHAR
STARTCHAR d_dotbelowcomb.ccmp
ENCODING -1
SWIDTH 563 0
DWIDTH 5 0
BBX 4 8 0 -2
BITMAP
03
17
7B
93
93
7B
04
04
ENDCHAR
STARTCHAR D_uniF6C3.ccmp
ENCODING -1
SWIDTH 649 0
DWIDTH 5 0
BBX 5 8 0 -2
BITMAP
6900
6740
6180
6180
6280
7E00
1400
1400
ENDCHAR
STARTCHAR d_uniF6C3.ccmp
ENCODING -1
SWIDTH 563 0
DWIDTH 5 0
BBX 4 8 0 -2
BITMAP
03
17
7B
93
93
7B
04
14
ENDCHAR
STARTCHAR H_dotbelowcomb.ccmp
ENCODING -1
SWIDTH 706 0
DWIDTH 6 0
BBX 5 8 0 -2
BITMAP
5080
60C0
65C0
7AC0
60C0
60C0
0500
0400
ENDCHAR
STARTCHAR h_dotbelowcomb.ccmp
ENCODING -1
SWIDTH 559 0
DWIDTH 4 0
BBX 4 8 0 -2
BITMAP
A0
A4
BB
A3
A3
A3
04
04
ENDCHAR
STARTCHAR K_acutecomb.ccmp
ENCODING -1
SWIDTH 634 0
DWIDTH 5 0
BBX 5 7 0 0
BITMAP
0900
5180
6740
6D00
7D00
6740
6280
ENDCHAR
STARTCHAR k_acutecomb.ccmp
ENCODING -1
SWIDTH 534 0
DWIDTH 4 0
BBX 4 8 0 0
BITMAP
01
09
A0
A1
AA
BC
AD
A7
ENDCHAR
STARTCHAR K_dotbelowcomb.ccmp
ENCODING -1
SWIDTH 634 0
DWIDTH 5 0
BBX 5 7 0 -1
BITMAP
5180
6740
6D00
7D00
6740
6280
0800
ENDCHAR
STARTCHAR k_dotbelowcomb.ccmp
ENCODING -1
SWIDTH 534 0
DWIDTH 4 0
BBX 4 7 0 -1
BITMAP
A0
A1
AA
BC
AD
A7
18
ENDCHAR
STARTCHAR L_dotbelowcomb.ccmp
ENCODING -1
SWIDTH 541 0
DWIDTH 4 0
BBX 4 8 0 -2
BITMAP
50
60
60
60
60
7F
08
04
ENDCHAR
STARTCHAR l_dotbelowcomb.ccmp
ENCODING -1
SWIDTH 265 0
DWIDTH 2 0
BBX 2 8 0 -2
BITMAP
A0
A0
A0
A0
A0
A0
50
10
ENDCHAR
STARTCHAR M_dotbelowcomb.ccmp
ENCODING -1
SWIDTH 875 0
DWIDTH 7 0
BBX 7 8 0 -2
BITMAP
6024
7478
68A8
69A8
6768
6328
0200
0100
ENDCHAR
STARTCHAR m_dotbelowcomb.ccmp
ENCODING -1
SWIDTH 865 0
DWIDTH 7 0
BBX 7 7 0 -2
BITMAP
0410
BBB4
A324
A328
A328
0200
0100
ENDCHAR
STARTCHAR N_dotbelowcomb.ccmp
ENCODING -1
SWIDTH 706 0
DWIDTH 6 0
BBX 5 8 0 -2
BITMAP
6080
74C0
7CC0
6AC0
63C0
61C0
0500
0400
ENDCHAR
STARTCHAR n_dotbelowcomb.ccmp
ENCODING -1
SWIDTH 560 0
DWIDTH 4 0
BBX 4 7 0 -2
BITMAP
04
BB
A3
A3
A3
14
04
ENDCHAR
STARTCHAR O_tildecomb_acutecomb.ccmp
ENCODING -1
SWIDTH 690 0
DWIDTH 6 0
BBX 5 8 0 0
BITMAP
0500
1900
1A00
7680
A0C0
A0C0
61C0
2F40
ENDCHAR
STARTCHAR P_acutecomb.ccmp
ENCODING -1
SWIDTH 645 0
DWIDTH 5 0
BBX 5 8 0 0
BITMAP
0100
0900
6A00
6680
6180
7F40
6000
6000
ENDCHAR
STARTCHAR p_acutecomb.ccmp
ENCODING -1
SWIDTH 562 0
DWIDTH 5 0
BBX 5 8 0 -2
BITMAP
0600
0400
BB00
A340
A300
BE00
A000
5000
ENDCHAR
STARTCHAR R_dotbelowcomb.ccmp
ENCODING -1
SWIDTH 638 0
DWIDTH 5 0
BBX 5 8 0 -2
BITMAP
6A00
6680
6280
7F00
6340
6280
0800
0400
ENDCHAR
STARTCHAR r_dotbelowcomb.ccmp
ENCODING -1
SWIDTH 364 0
DWIDTH 3 0
BBX 3 7 0 -2
BITMAP
04
B8
A0
A0
A0
50
10
ENDCHAR
STARTCHAR S_dotbelowcomb.ccmp
ENCODING -1
SWIDTH 614 0
DWIDTH 5 0
BBX 5 8 0 -2
BITMAP
2A00
6680
7400
1B40
9280
6F40
0800
0400
ENDCHAR
STARTCHAR s_dotbelowcomb.ccmp
ENCODING -1
SWIDTH 514 0
DWIDTH 4 0
BBX 4 7 0 -2
BITMAP
14
6A
74
5A
7D
14
14
ENDCHAR
STARTCHAR T_dotbelowcomb.ccmp
ENCODING -1
SWIDTH 618 0
DWIDTH 5 0
BBX 5 8 0 -2
BITMAP
AA80
5D40
0C00
0C00
0C00
0C00
0800
0400
ENDCHAR
STARTCHAR t_dotbelowcomb.ccmp
ENCODING -1
SWIDTH 337 0
DWIDTH 3 0
BBX 3 8 0 -2
BITMAP
10
70
B4
60
60
74
20
10
ENDCHAR
STARTCHAR U_tildecomb_acutecomb.ccmp
ENCODING -1
SWIDTH 658 0
DWIDTH 5 0
BBX 5 8 0 0
BITMAP
0400
1500
5180
A180
A180
A180
6180
2F40
ENDCHAR
STARTCHAR V_tildecomb.ccmp
ENCODING -1
SWIDTH 653 0
DWIDTH 5 0
BBX 5 7 0 0
BITMAP
2A00
9080
A180
7240
3700
2E00
1D00
ENDCHAR
STARTCHAR v_tildecomb.ccmp
ENCODING -1
SWIDTH 505 0
DWIDTH 4 0
BBX 4 6 0 0
BITMAP
69
41
96
69
3C
28
ENDCHAR
STARTCHAR V_dotbelowcomb.ccmp
ENCODING -1
SWIDTH 653 0
DWIDTH 5 0
BBX 5 8 0 -2
BITMAP
9080
A180
7240
3700
2E00
1D00
0800
0400
ENDCHAR
STARTCHAR v_dotbelowcomb.ccmp
ENCODING -1
SWIDTH 505 0
DWIDTH 4 0
BBX 4 7 0 -2
BITMAP
41
96
69
3C
28
14
04
ENDCHAR
STARTCHAR W_dotbelowcomb.ccmp
ENCODING -1
SWIDTH 874 0
DWIDTH 7 0
BBX 7 8 0 -2
BITMAP
9218
A768
67A4
39B0
3CF0
28A0
0200
0100
ENDCHAR
STARTCHAR w_dotbelowcomb.ccmp
ENCODING -1
SWIDTH 734 0
DWIDTH 6 0
BBX 6 7 0 -2
BITMAP
4010
9A60
6E90
7AC0
3580
0500
0400
ENDCHAR
STARTCHAR Z_dotbelowcomb.ccmp
ENCODING -1
SWIDTH 605 0
DWIDTH 5 0
BBX 5 8 0 -2
BITMAP
6A40
5740
0A00
1800
7400
BF80
0800
0400
ENDCHAR
STARTCHAR z_dotbelowcomb.ccmp
ENCODING -1
SWIDTH 508 0
DWIDTH 4 0
BBX 4 7 0 -2
BITMAP
15
6E
1C
34
BE
14
04
ENDCHAR
STARTCHAR Alphatonos.c2sc
ENCODING -1
SWIDTH 583 0
DWIDTH 5 0
BBX 5 5 0 0
BITMAP
9800
2D00
3600
7B00
9240
ENDCHAR
STARTCHAR Epsilontonos.c2sc
ENCODING -1
SWIDTH 511 0
DWIDTH 4 0
BBX 5 5 -1 0
BITMAP
9A80
1D40
1E80
1800
1FC0
ENDCHAR
STARTCHAR Etatonos.c2sc
ENCODING -1
SWIDTH 634 0
DWIDTH 5 0
BBX 6 5 -1 0
BITMAP
9450
1860
1EA0
19A0
1860
ENDCHAR
STARTCHAR Iotatonos.c2sc
ENCODING -1
SWIDTH 286 0
DWIDTH 2 0
BBX 3 5 -1 0
BITMAP
94
18
18
18
18
ENDCHAR
STARTCHAR Omicrontonos.c2sc
ENCODING -1
SWIDTH 598 0
DWIDTH 5 0
BBX 6 5 -1 0
BITMAP
9640
19D0
2490
2890
0B80
ENDCHAR
STARTCHAR Upsilontonos.c2sc
ENCODING -1
SWIDTH 566 0
DWIDTH 5 0
BBX 6 5 -1 0
BITMAP
9450
1DC0
0B40
0700
0700
ENDCHAR
STARTCHAR Omegatonos.c2sc
ENCODING -1
SWIDTH 606 0
DWIDTH 5 0
BBX 6 5 -1 0
BITMAP
5640
19D0
24A0
1890
2ED0
ENDCHAR
STARTCHAR Alpha.c2sc
ENCODING -1
SWIDTH 583 0
DWIDTH 5 0
BBX 5 5 0 0
BITMAP
1800
2D00
3600
7B00
9240
ENDCHAR
STARTCHAR Beta.c2sc
ENCODING -1
SWIDTH 553 0
DWIDTH 4 0
BBX 4 5 0 0
BITMAP
69
AB
BA
A7
BE
ENDCHAR
STARTCHAR Epsilon.c2sc
ENCODING -1
SWIDTH 481 0
DWIDTH 4 0
BBX 4 5 0 0
BITMAP
69
A5
B9
A0
BE
ENDCHAR
STARTCHAR Zeta.c2sc
ENCODING -1
SWIDTH 523 0
DWIDTH 4 0
BBX 4 5 0 0
BITMAP
6A
5A
1C
34
BF
ENDCHAR
STARTCHAR Eta.c2sc
ENCODING -1
SWIDTH 604 0
DWIDTH 5 0
BBX 5 5 0 0
BITMAP
5140
A240
BB40
A640
A240
ENDCHAR
STARTCHAR Iota.c2sc
ENCODING -1
SWIDTH 257 0
DWIDTH 2 0
BBX 2 5 0 0
BITMAP
50
A0
A0
A0
A0
ENDCHAR
STARTCHAR Kappa.c2sc
ENCODING -1
SWIDTH 548 0
DWIDTH 4 0
BBX 4 5 0 0
BITMAP
52
AA
BC
A9
A7
ENDCHAR
STARTCHAR Mu.c2sc
ENCODING -1
SWIDTH 753 0
DWIDTH 6 0
BBX 6 5 0 0
BITMAP
6090
B5E0
AAA0
AF60
AA60
ENDCHAR
STARTCHAR Nu.c2sc
ENCODING -1
SWIDTH 604 0
DWIDTH 5 0
BBX 5 5 0 0
BITMAP
5140
B640
AA40
AB40
A340
ENDCHAR
STARTCHAR Omicron.c2sc
ENCODING -1
SWIDTH 593 0
DWIDTH 5 0
BBX 5 5 0 0
BITMAP
1900
6740
9240
A240
3E00
ENDCHAR
STARTCHAR Rho.c2sc
ENCODING -1
SWIDTH 558 0
DWIDTH 4 0
BBX 4 5 0 0
BITMAP
65
A7
A7
A5
A0
ENDCHAR
STARTCHAR Tau.c2sc
ENCODING -1
SWIDTH 539 0
DWIDTH 4 0
BBX 4 5 0 0
BITMAP
6A
69
18
18
18
ENDCHAR
STARTCHAR Upsilon.c2sc
ENCODING -1
SWIDTH 537 0
DWIDTH 4 0
BBX 4 5 0 0
BITMAP
52
66
3D
18
18
ENDCHAR
STARTCHAR Chi.c2sc
ENCODING -1
SWIDTH 548 0
DWIDTH 4 0
BBX 4 5 0 0
BITMAP
52
7A
2C
3D
A7
ENDCHAR
STARTCHAR Iotadieresis.c2sc
ENCODING -1
SWIDTH 257 0
DWIDTH 2 0
BBX 4 6 -1 0
BITMAP
55
14
28
28
28
28
ENDCHAR
STARTCHAR Upsilondieresis.c2sc
ENCODING -1
SWIDTH 537 0
DWIDTH 4 0
BBX 4 6 0 0
BITMAP
65
52
66
3D
18
18
ENDCHAR
STARTCHAR uni0401.c2sc
ENCODING -1
SWIDTH 481 0
DWIDTH 4 0
BBX 4 6 0 0
BITMAP
65
69
A5
B9
A0
BE
ENDCHAR
STARTCHAR uni0403.c2sc
ENCODING -1
SWIDTH 471 0
DWIDTH 4 0
BBX 4 6 0 0
BITMAP
18
69
A5
A0
A0
A0
ENDCHAR
STARTCHAR uni0405.c2sc
ENCODING -1
SWIDTH 535 0
DWIDTH 4 0
BBX 4 5 0 0
BITMAP
19
A6
79
57
7E
ENDCHAR
STARTCHAR uni0406.c2sc
ENCODING -1
SWIDTH 257 0
DWIDTH 2 0
BBX 2 5 0 0
BITMAP
50
A0
A0
A0
A0
ENDCHAR
STARTCHAR uni0407.c2sc
ENCODING -1
SWIDTH 257 0
DWIDTH 2 0
BBX 4 6 -1 0
BITMAP
55
14
28
28
28
28
ENDCHAR
STARTCHAR uni0408.c2sc
ENCODING -1
SWIDTH 482 0
DWIDTH 4 0
BBX 4 5 0 0
BITMAP
05
09
09
49
7C
ENDCHAR
STARTCHAR uni040C.c2sc
ENCODING -1
SWIDTH 548 0
DWIDTH 4 0
BBX 4 6 0 0
BITMAP
18
52
AA
BC
A9
A7
ENDCHAR
STARTCHAR uni040E.c2sc
ENCODING -1
SWIDTH 553 0
DWIDTH 4 0
BBX 4 6 0 0
BITMAP
29
51
67
3D
1C
34
ENDCHAR
STARTCHAR uni0410.c2sc
ENCODING -1
SWIDTH 583 0
DWIDTH 5 0
BBX 5 5 0 0
BITMAP
1800
2D00
3600
7B00
9240
ENDCHAR
STARTCHAR uni0412.c2sc
ENCODING -1
SWIDTH 553 0
DWIDTH 4 0
BBX 4 5 0 0
BITMAP
69
AB
BA
A7
BE
ENDCHAR
STARTCHAR uni0413.c2sc
ENCODING -1
SWIDTH 471 0
DWIDTH 4 0
BBX 4 5 0 0
BITMAP
69
A5
A0
A0
A0
ENDCHAR
STARTCHAR uni0415.c2sc
ENCODING -1
SWIDTH 481 0
DWIDTH 4 0
BBX 4 5 0 0
BITMAP
69
A5
B9
A0
BE
ENDCHAR
STARTCHAR uni0419.c2sc
ENCODING -1
SWIDTH 606 0
DWIDTH 5 0
BBX 5 6 0 0
BITMAP
2A00
5140
A740
AE40
B640
A240
ENDCHAR
STARTCHAR uni041C.c2sc
ENCODING -1
SWIDTH 753 0
DWIDTH 6 0
BBX 6 5 0 0
BITMAP
6090
B5E0
AAA0
AF60
AA60
ENDCHAR
STARTCHAR uni041D.c2sc
ENCODING -1
SWIDTH 604 0
DWIDTH 5 0
BBX 5 5 0 0
BITMAP
5140
A240
BB40
A640
A240
ENDCHAR
STARTCHAR uni041E.c2sc
ENCODING -1
SWIDTH 593 0
DWIDTH 5 0
BBX 5 5 0 0
BITMAP
1900
6740
9240
A240
3E00
ENDCHAR
STARTCHAR uni041F.c2sc
ENCODING -1
SWIDTH 609 0
DWIDTH 5 0
BBX 5 5 0 0
BITMAP
6A40
A640
A240
A240
A240
ENDCHAR
STARTCHAR uni0420.c2sc
ENCODING -1
SWIDTH 558 0
DWIDTH 4 0
BBX 4 5 0 0
BITMAP
65
A7
A7
A5
A0
ENDCHAR
STARTCHAR uni0421.c2sc
ENCODING -1
SWIDTH 563 0
DWIDTH 5 0
BBX 4 5 0 0
BITMAP
19
67
90
92
7E
ENDCHAR
STARTCHAR uni0422.c2sc
ENCODING -1
SWIDTH 539 0
DWIDTH 4 0
BBX 4 5 0 0
BITMAP
6A
69
18
18
18
ENDCHAR
STARTCHAR uni0425.c2sc
ENCODING -1
SWIDTH 548 0
DWIDTH 4 0
BBX 4 5 0 0
BITMAP
52
7A
2C
3D
A7
ENDCHAR
STARTCHAR uni0498.c2sc
ENCODING -1
SWIDTH 536 0
DWIDTH 4 0
BBX 4 7 0 -2
BITMAP
29
6B
1D
47
7E
18
18
ENDCHAR
STARTCHAR uni04A2.c2sc
ENCODING -1
SWIDTH 604 0
DWIDTH 5 0
BBX 6 7 0 -2
BITMAP
5140
A240
BB40
A640
A2D0
0090
0040
ENDCHAR
STARTCHAR uni04AA.c2sc
ENCODING -1
SWIDTH 563 0
DWIDTH 5 0
BBX 4 7 0 -2
BITMAP
19
67
90
92
7E
1C
18
ENDCHAR
STARTCHAR uni04AE.c2sc
ENCODING -1
SWIDTH 537 0
DWIDTH 4 0
BBX 4 5 0 0
BITMAP
52
66
3D
18
18
ENDCHAR
STARTCHAR uni04BE.c2sc
ENCODING -1
SWIDTH 773 0
DWIDTH 6 0
BBX 6 7 0 -2
BITMAP
0680
9DA0
BEB0
1D40
0BD0
0280
0240
ENDCHAR
STARTCHAR uni04E2.c2sc
ENCODING -1
SWIDTH 606 0
DWIDTH 5 0
BBX 5 6 0 0
BITMAP
2A00
5140
A740
AE40
B640
A240
ENDCHAR
STARTCHAR uni04EE.c2sc
ENCODING -1
SWIDTH 553 0
DWIDTH 4 0
BBX 4 6 0 0
BITMAP
29
51
67
3D
1C
34
ENDCHAR
STARTCHAR uni0424.c2sc
ENCODING -1
SWIDTH 729 0
DWIDTH 6 0
BBX 6 5 0 0
BITMAP
0500
7F80
99A0
AAD0
1E40
ENDCHAR
STARTCHAR IJ.c2sc
ENCODING -1
SWIDTH 739 0
DWIDTH 6 0
BBX 6 5 0 0
BITMAP
5050
A0A0
A0A0
A5A0
A7D0
ENDCHAR
STARTCHAR AEacute.c2sc
ENCODING -1
SWIDTH 789 0
DWIDTH 6 0
BBX 6 6 0 0
BITMAP
0240
0A90
1F50
37A0
7B00
D7F0
ENDCHAR
STARTCHAR Oslashacute.c2sc
ENCODING -1
SWIDTH 593 0
DWIDTH 5 0
BBX 5 6 0 0
BITMAP
0900
1A00
6740
9A40
B640
7E00
ENDCHAR
STARTCHAR uni0218.c2sc
ENCODING -1
SWIDTH 535 0
DWIDTH 4 0
BBX 4 7 0 -2
BITMAP
19
A6
79
57
7E
04
14
ENDCHAR
STARTCHAR Wgrave.c2sc
ENCODING -1
SWIDTH 748 0
DWIDTH 6 0
BBX 6 6 0 0
BITMAP
0900
4510
9A60
6F90
7AC0
35C0
ENDCHAR
STARTCHAR Wacute.c2sc
ENCODING -1
SWIDTH 748 0
DWIDTH 6 0
BBX 6 6 0 0
BITMAP
0600
4510
9A60
6F90
7AC0
35C0
ENDCHAR
STARTCHAR Wdieresis.c2sc
ENCODING -1
SWIDTH 748 0
DWIDTH 6 0
BBX 6 6 0 0
BITMAP
1540
4510
9A60
6F90
7AC0
35C0
ENDCHAR
STARTCHAR Ygrave.c2sc
ENCODING -1
SWIDTH 537 0
DWIDTH 4 0
BBX 4 6 0 0
BITMAP
24
52
66
3D
18
18
ENDCHAR
STARTCHAR Aogonek.locl
ENCODING -1
SWIDTH 672 0
DWIDTH 5 0
BBX 6 8 0 -2
BITMAP
0900
1E00
2B00
3640
7B80
90D0
1800
0800
ENDCHAR
STARTCHAR aogonek.locl
ENCODING -1
SWIDTH 536 0
DWIDTH 4 0
BBX 4 7 0 -2
BITMAP
14
7A
2B
A7
7B
30
20
ENDCHAR
STARTCHAR Eogonek.locl
ENCODING -1
SWIDTH 562 0
DWIDTH 5 0
BBX 5 8 0 -2
BITMAP
6A40
6500
6500
7900
6000
7F40
1400
1400
ENDCHAR
STARTCHAR eogonek.locl
ENCODING -1
SWIDTH 540 0
DWIDTH 4 0
BBX 4 7 0 -2
BITMAP
04
7A
AB
A5
3E
24
14
ENDCHAR
STARTCHAR Aogonek.c2sc.locl
ENCODING -1
SWIDTH 583 0
DWIDTH 5 0
BBX 5 7 0 -2
BITMAP
1800
2D00
3600
7B00
9640
2400
1400
ENDCHAR
STARTCHAR Eogonek.c2sc.locl
ENCODING -1
SWIDTH 481 0
DWIDTH 4 0
BBX 4 7 0 -2
BITMAP
69
A5
B9
A0
BE
24
14
ENDCHAR
STARTCHAR glyph1293
ENCODING -1
SWIDTH 273 0
DWIDTH 2 0
BBX 2 6 0 -2
BITMAP
60
60
60
60
50
10
ENDCHAR
ENDFONT
